<?xml version="1.0" standalone="no"?>
<!DOCTYPE svg PUBLIC "-//W3C//DTD SVG 20010904//EN"
 "http://www.w3.org/TR/2001/REC-SVG-20010904/DTD/svg10.dtd">
<svg version="1.0" xmlns="http://www.w3.org/2000/svg"
 width="361.000000pt" height="361.000000pt" viewBox="0 0 361.000000 361.000000"
 preserveAspectRatio="xMidYMid meet">
<metadata>
Created by potrace 1.14, written by Peter Selinger 2001-2017
</metadata>
<g transform="translate(0.000000,361.000000) scale(0.100000,-0.100000)"
fill="#000000" stroke="none">
<path d="M1478 3230 l-105 -80 -178 -4 c-171 -3 -179 -4 -197 -26 -10 -12 -18
-35 -18 -51 0 -34 11 -38 115 -41 63 -3 70 -5 73 -24 2 -14 -14 -41 -48 -80
-84 -96 -109 -161 -136 -360 -2 -16 -38 -81 -79 -143 -75 -113 -93 -165 -61
-177 8 -3 58 13 112 36 54 22 103 39 110 36 6 -2 30 -39 53 -81 24 -42 67
-104 97 -136 53 -58 55 -61 49 -104 l-7 -43 43 -6 c24 -3 131 -10 238 -15 106
-6 195 -12 197 -14 2 -2 20 -59 38 -126 19 -68 42 -132 52 -142 19 -21 64 -25
82 -7 15 15 30 2 40 -38 11 -37 1 -78 -20 -82 -15 -3 -647 306 -677 331 -9 8
-12 25 -8 54 l5 43 -60 -32 c-67 -36 -102 -79 -116 -145 -5 -23 -31 -82 -57
-130 -92 -170 -192 -301 -274 -357 -23 -16 -41 -32 -41 -35 0 -4 33 -15 73
-25 257 -66 430 -202 544 -425 52 -101 60 -110 179 -207 206 -165 444 -301
597 -341 108 -27 227 -24 297 9 68 31 110 70 110 100 0 38 -37 197 -65 288
-53 165 -151 350 -259 484 -31 38 -56 77 -56 85 0 70 -23 248 -34 269 -8 15
-26 38 -41 52 -15 14 -45 49 -67 78 -44 59 -44 77 1 115 23 19 47 25 147 35
103 11 124 16 159 40 39 28 40 29 37 86 -1 31 2 66 8 76 24 45 81 5 94 -65 6
-31 11 -35 37 -35 27 0 29 2 23 28 -13 59 -40 96 -88 122 -53 28 -112 100
-103 124 3 8 29 27 57 41 28 14 50 32 50 41 0 9 -36 68 -80 132 -66 96 -80
123 -80 154 0 22 -7 50 -16 63 -15 23 -15 25 0 31 8 3 61 -1 117 -10 55 -9
105 -14 110 -10 5 3 9 14 9 24 0 20 -45 61 -164 152 -39 29 -94 85 -123 123
-80 107 -165 180 -268 231 -75 38 -102 46 -165 50 -134 9 -138 12 -90 67 35
40 37 53 11 67 -45 24 -76 12 -183 -70z m524 -1959 c10 -25 9 -141 -2 -141
-20 0 -100 197 -100 247 0 16 90 -78 102 -106z"/>
<path d="M2631 1859 c16 -31 6 -124 -16 -149 -47 -52 -125 8 -125 95 0 21 -4
25 -31 25 l-32 0 7 -82 c8 -99 32 -157 77 -189 28 -20 48 -25 119 -27 73 -3
91 0 130 20 65 34 87 84 96 221 l7 107 -122 0 c-121 0 -122 0 -110 -21z"/>
</g>
</svg>
