<svg xmlns="http://www.w3.org/2000/svg" viewBox="0 0 416 507.97" class="address-loc">
  <title>address-loc</title>
  <g>
    <path d="M420.67,283.4,401,306.13l-17.9-9.38V364H333.38V300.8H290.31v62.84H240.85V298l-18.66,8.63-19.5-22.33,109-103.7Z" transform="translate(-102 -81)" />
    <path d="M518,289c0-114.88-93.12-208-208-208S102,174.12,102,289c0,98.71,68.77,181.37,161,202.67l28.81,57.41L311,589l20.06-40.07,28.08-57.76C450.3,469.06,518,386.94,518,289ZM341.64,449.87l-30.88-20.81-31.27,21.22a165.51,165.51,0,1,1,62.15-.41Z" transform="translate(-102 -81)" />
  </g>
</svg>
