<svg xmlns="http://www.w3.org/2000/svg" viewBox="0 0 436 440.9">
  <title>phone-loc</title>
  <path d="M130.1,181.5l88.1,117.2c7.7-5.4,13.7-10,20.2-14c20.3-12.4,40.7-9.7,56.1,8.2c15,17.4,29.5,35.1,43.5,53.4
	c13.2,17.3,13.1,38.9-2.2,53.2c-40.7,38.1-67.8,54.1-127.7,30c-49.8-20.1-87.6-56-120.7-96.9c-42-51.9-76.6-107.8-86-175.8
	c-7.5-54.2,14.5-94,64.1-116.8c18.6-8.5,38.4-4.8,50.6,11.4c14.6,19.4,28.5,39.5,41.6,60c11.5,17.8,8.3,37.7-7.4,53.1
	C144.5,170.2,137.8,175.1,130.1,181.5z M86.6,69.1C38.2,94.3,27,116.6,37.7,166.5c10.8,50.8,37.2,94.1,68.5,134.5
	c29.2,37.6,62.3,71.3,105.5,93c42.2,21.2,72.6,14.3,101.5-23.3c-9.6-12.1-19.1-24.8-29.3-36.9c-21.6-25.7-14.7-29.8-45.8-6.2
	c-19.8,15-30.8,13.9-45.6-5.6c-30.7-40.4-61.1-81-91.4-121.7c-16-21.6-14.3-30,7.2-46.8c4.4-3.4,10.5-5.8,13-10.2
	c3-5.5,6.1-14.5,3.6-18.7C113.4,105.8,100,88.1,86.6,69.1z" />
  <path d="M246.4,34.4c-13.9,0.3-33,6.6-33.3-15.8C212.7-3.2,233,0.7,246.3,0.1c131-5.3,225.4,130,176.7,252.3
	c-4.5,11.3-9.5,23.9-24.5,19c-16.9-5.5-12-18.6-7.4-31C428.9,136.6,355.2,31.9,246.4,34.4z" />
  <path d="M236.9,83.5c-10,0.2-23.7,4.8-23.9-11.4c-0.3-15.6,14.3-12.8,23.8-13.2c94-3.8,161.8,93.3,126.8,181.1
	c-3.2,8.1-6.8,17.1-17.6,13.6c-12.1-4-8.6-13.3-5.3-22.3C367.9,156.9,315,81.6,236.9,83.5z" />
</svg>
