<svg xmlns="http://www.w3.org/2000/svg" viewBox="0 0 431 432" >
<title>time-loc</title>
  <path d="M430.9,218.6c-3.1,121.9-101.3,216.9-220.4,213.3C88.9,428.2-3.5,329.1,0.1,206.4C3.5,91.6,104.3-3.2,219.6,0.1
	C339.1,3.4,433.9,101.5,430.9,218.6z M398.4,216.1C398.6,115.7,317.7,34,217.2,33.1C116.1,32.2,33.1,113.8,32.4,214.9
	c-0.7,100.9,81.4,183.7,182.6,184.1c100.9,0.4,183.1-81.1,183.5-182C398.4,216.7,398.4,216.4,398.4,216.1L398.4,216.1z" />
  <path d="M211.1,198.4c20.5-31.5,56.6-87.6,78.5-121.4l27.3,17.8c-17.8,27.5-57.9,88.3-74.2,115.9c0,0,2.2,7.8,0.5,13.1
	c-3.7,21.4-29.4,30.7-45.5,14.9c-5.4-5.4-6.7-15.3-6.7-15.3s-72.9-40.8-80.3-45.2c5.2-9.4,9.9-17.9,15.4-28" />
  <path d="M346.8,232v-32.3h31.5V232H346.8z" />
  <path d="M50.8,232v-32.3h31.5V232H50.8z" />
  <path d="M195.8,372v-32.3h31.5V372H195.8z" />
  <path d="M200.2,84V51.7h31.5V84H200.2z" />
</svg>
