<svg xmlns="http://www.w3.org/2000/svg" viewBox="0 0 790.02 649.87" class="det-svg det10">
  <link xmlns="http://www.w3.org/1999/xhtml" rel="stylesheet" href="../../css/index.css" type="text/css" />
  <title>det10</title>
  <g>
    <path d="M357,312.79c-.64-2.11-1.17-4.34-2-6.46-2.22-5.92-.78-8.82,5.56-9.57a48.82,48.82,0,0,1,11.77.21,75.49,75.49,0,0,1,31.42,10.92c8.18,5.22,9.08,10.2,3,17.9a76.66,76.66,0,0,1-9.7,9.79c-5.41,4.8-11.12,9.27-16.57,14a32.32,32.32,0,0,0-9.52,13c10.47,5.57,17.75,13.19,15.43,26.45,3.4,2,6.53,4,9.76,5.73,17.58,9.69,34,20.79,47.15,36.33,11.84,14,20.73,29.3,21.92,48.2a107.32,107.32,0,0,1-3.13,34.57c-3.11,11.61-7.1,23-11.11,34.34-1.1,3.13-1.11,5.25,1.22,7.62a84.92,84.92,0,0,1,6.36,7.53c4.94,6.36,4.35,14.33-1.28,18.78s-13,3.43-18.18-2.39c-2.76-3.1-5.37-6.33-7.85-9.27-50.1,20.12-99.58,21.51-149.41-1.34-2.63,3.07-5.35,6.46-8.31,9.64-3.63,3.9-8.27,4.94-13.26,3.49a11.45,11.45,0,0,1-8.5-9.92c-.33-2.47.43-5.14,1-7.64a6.4,6.4,0,0,1,2.14-3.25c7.66-6.2,7.72-13.63,5.85-22.8a231.49,231.49,0,0,1-4.74-58.18c.65-12.83,4.12-24.5,11.48-35.1a128,128,0,0,1,23.18-25.9c12-9.95,24.19-19.6,36.29-29.4,1-.79,1.88-1.71,3.14-2.87l-123.62-78v9.17q0,193.5.07,387c0,10.71-2.81,19.95-11,27-9.56,8.29-20.63,10.62-32.54,6.38S144,725.93,141.82,713.38a63.23,63.23,0,0,1-.6-10.49q0-111.55,0-223.11V471H129.32v8.36q0,113.2.05,226.41c0,10.7-3,20-11.32,26.89-10.33,8.64-22.08,10.65-34.44,5.25C71.55,732.61,65,723,64,709.76c-.19-2.62-.09-5.26-.09-7.9V317.09c-2.86,1-2.9,3.48-3.58,5.29-5.51,14.87-8.57,30.33-10.67,46-3.53,26.36-4.11,52.88-3.7,79.42.15,9.64.93,19.27,1.18,28.91a33.7,33.7,0,0,1-.93,10.39c-2.93,9.8-12.21,15.53-22.39,14.35-10.45-1.21-18.14-9-18.82-19.59C4.37,471.59,3.82,461.29,3.67,451c-.42-29.61-.2-59.21,3.89-88.63,3.49-25.08,8.78-49.65,20.78-72.29,6.56-12.38,15-23.2,26.7-31.15,9.31-6.31,19.52-9.79,30.9-9.52,5.21.12,10.42,0,15.49,0,8.07,38.27,12.06,77,33.3,112.09,2.66-3.66,5-6,6.26-8.8,4.08-9.44,8.3-18.87,11.44-28.64,7.44-23.21,11.78-47.16,15.76-71.17.14-.85.34-1.69.67-3.31,7.53-.18,15.14-.77,22.68.48,2.47.4,4.83,2,7,3.41q47.27,29.86,94.48,59.83a7.08,7.08,0,0,0,1.43.61c.68-2.79.51-6.46,2.24-8,2-1.75,5.75-2.5,8.53-2.11,7.34,1.05,14.59,2.8,21.82,4.56,6.38,1.54,12.64,3.59,19,5.17C349.42,314.36,352.92,315.24,357,312.79Zm7.29,215.56c6-2.16,11.58-3.57,16.59-6.11,7.87-4,11.2-11.59,10.25-20.35-.78-7.17-4.81-12.28-10.5-15.92-6.45-4.11-13.35-7.5-20.06-11.21-3.06-1.69-6.23-3.23-9.17-5.12-4-2.59-6.09-6.31-5.23-11.19.74-4.2,4.06-6.81,9.55-7.68,6.05-.95,11.8-.21,17,3.26,1.25.83,2.54,1.63,4,2.59l11.61-8c-7.27-6.48-15.62-8.16-23.79-9.92-.39-2.65-.72-5-1-7.07h-8.68l-.73,6c-6.32,2.85-12.56,4.69-17.65,8.18-10.25,7-11,21.19-2,29.74a50.33,50.33,0,0,0,9.56,6.92c5.89,3.37,12.1,6.19,18,9.53a35.31,35.31,0,0,1,7.84,5.87c3.09,3.17,4.24,7.11,2.43,11.5-1.71,4.16-5.16,5.84-9.29,6.29-6.52.73-12.68-.33-18.15-4.24-1.93-1.38-3.89-2.71-6-4.19l-11.76,7.86c7.92,7.81,17.2,10.75,26.91,12.53.32,3.29.59,6,.85,8.8h9C364,533.4,364.15,530.82,364.27,528.35Z" transform="translate(-3.52 -91)" />
    <path d="M568.93,373a14.25,14.25,0,0,0-2.58-.61,24.84,24.84,0,0,0-2.93.38c-.93,5.26-2.21,10.37-2.62,15.55-.34,4.22-2.38,6.73-5.63,9a80.84,80.84,0,0,1-22.57,10.48c-16.08,4.88-32.63,6.54-49.32,7.05-8.31.26-16.66.37-24.95-.18-9.14-.61-16.08-6.9-18.36-15.49a21.09,21.09,0,0,1,7.54-22.33c4.75-3.64,10.21-4.74,16.12-4.43a195.64,195.64,0,0,0,52.92-4.16c1.28-.29,2.53-.72,3.81-1,7.46-1.47,11.14-5.46,12.68-13.46a239.59,239.59,0,0,1,22.12-65.14c6-11.55,13.1-22.28,22.35-31.53a75.49,75.49,0,0,1,22.63-15.41c-2.34-10.85-4.66-21.62-7.25-33.62l50,13.09c4.92,16.59,7.43,33.61,12.55,49.9l1.74,0c.68-2.39,1.45-4.77,2-7.19,3.05-12.78,6.11-25.56,9-38.37.57-2.49,1.1-4.35,4.1-5.11,14.66-3.7,29.24-7.66,43.87-11.49a15.34,15.34,0,0,1,3.13,0c-2.38,11.07-4.66,21.68-6.93,32.2a8.59,8.59,0,0,0,1.71,1.46c16.82,7.4,28.11,20.63,37.4,35.83,12.72,20.79,20.33,43.63,26.09,67.14,7.21,29.46,11.26,59.41,13.33,89.63,1.06,15.52,1.7,31.07,2.48,46.61a65.94,65.94,0,0,1,0,8.55c-1.1,13.44-13.92,21.95-27.31,17.82-.88-8.74-1.59-17.67-2.72-26.54q-6.63-52.17-13.49-104.31c-.61-4.67-.76-4.65-6.62-4.49a1767.1,1767.1,0,0,1,22.78,259.1c-5.59,1.63-10.9,3.84-16.42,4.65-19.94,2.93-39.93,5.47-59.93,8-6.3.79-12.69.81-19,1.54-18.48,2.12-36.78-.44-55.06-2.29-17.64-1.78-35.19-4.57-52.74-7.14-4.09-.6-8-2.14-12-3.23-3.44-.93-4.89-2.94-4.68-6.7.54-9.63.52-19.28,1.1-28.9,2.2-36.53,4-73.1,7-109.57,3-36.05,7.73-71.91,13.69-107.6C568.34,378.26,568.56,375.87,568.93,373Zm79.66-6.55a8,8,0,0,0,7.25,7.93c3.85.19,7.65-3.3,7.9-7.27A7.68,7.68,0,0,0,656.2,359,7.81,7.81,0,0,0,648.59,366.44Zm7.48-51.71a7.52,7.52,0,0,0,7.68-7.28,7.6,7.6,0,1,0-7.68,7.28Zm7.68,170.75a7.76,7.76,0,0,0-7.3-7.8c-4.13-.2-8,3.65-7.86,7.91a7.83,7.83,0,0,0,7.62,7.5A8,8,0,0,0,663.75,485.48Zm0-59.33a7.59,7.59,0,1,0-7.57,7.52A7.74,7.74,0,0,0,663.73,426.15Z" transform="translate(-3.52 -91)" />
    <path d="M194.71,175a59,59,0,0,1-58.53,59.5c-33.43.23-59.59-25.63-60.3-58.4-.6-27.57,20.28-60,59.2-60.26C171.47,115.62,194.69,144.91,194.71,175ZM97.37,204.77c6.38,2.11,12.59,3.21,18.59-.11,5.31-2.93,10.63-5.83,16.49-9,1.1-6.24-1.16-8.63-7.87-7.31-3.85.76-6.61,2.95-9.24,5.8a46.82,46.82,0,0,1-9.39,8C103.5,203.64,100.26,203.93,97.37,204.77Zm40.74-9.25c5.88,3.26,11.24,6.43,16.78,9.26,6,3.07,12.16,2.54,19.51.48-12.3-3.8-12.2-3.91-20.52-12.48a16.78,16.78,0,0,0-7.14-4.11C139.57,186.6,137.43,188.68,138.11,195.52Z" transform="translate(-3.52 -91)" />
    <path d="M712.43,141.84h39v8.88H560.58V142h39.29c1-10.68,2.27-20.66,2.53-30.66.14-5.27,2.34-7.81,6.66-10,17-8.44,35-11,53.66-10.18a102.38,102.38,0,0,1,40.53,10.1c4.1,2,6.37,4.46,6.59,9.41C710.28,120.71,711.46,130.73,712.43,141.84Z" transform="translate(-3.52 -91)" />
    <path d="M599.1,156.48H712.86c2.88,6.23,3.09,13,2.66,19.68a59.75,59.75,0,0,1-8.19,26.77,9.45,9.45,0,0,1-6.48,4.9c-9.81,2.24-19.49,5.07-29.32,7.24-3.62.8-5.15,2.57-5.78,6s-1.65,6.73-2.57,10.4H649.29c-1-3.72-2.25-7.41-2.89-11.2-.54-3.15-2.19-4.3-5.1-5-10-2.37-20-4.92-29.91-7.57-1.77-.47-4-1.34-4.88-2.74C596.87,190,594.48,173.91,599.1,156.48Z" transform="translate(-3.52 -91)" />
    <path d="M662.93,653l64-6a20.69,20.69,0,0,1,.73,3.76c0,18.19.28,36.37,0,54.55-.32,18.37-14.12,32.25-31.87,32.73-17.41.47-32.77-12.85-33.45-30.33-.69-17.71-.08-35.48,0-53.22C662.26,654.11,662.58,653.72,662.93,653Z" transform="translate(-3.52 -91)" />
    <path d="M585.74,647,649.47,653a6.34,6.34,0,0,1,.65,1.87c0,17.33.38,34.67,0,52-.41,17.1-14.3,30.56-31.33,31.21-17.52.67-33-12.45-33.65-30.06-.74-19.71-.13-39.48-.09-59.22C585,648.35,585.35,648,585.74,647Z" transform="translate(-3.52 -91)" />
    <path d="M156.26,250.31v22.62c-2.88-.53-15.41-6.77-17.19-8.58s-1.26-3.45.81-4.71c.75-.45,1.5-.9,2.26-1.33Z" transform="translate(-3.52 -91)" />
    <path d="M114.54,274.2V251.11c6.32,2.13,11.4,5.9,16.82,9,1.89,1.07,2.11,3,.17,4.22C126.22,267.59,120.75,270.62,114.54,274.2Z" transform="translate(-3.52 -91)" />
    <path d="M135.56,296.5a5.13,5.13,0,0,1,5.06,5.51,5.41,5.41,0,0,1-5.48,5.23,5.5,5.5,0,0,1-5.09-5.62A5.23,5.23,0,0,1,135.56,296.5Z" transform="translate(-3.52 -91)" />
    <path d="M140.64,322.72a5.3,5.3,0,1,1-10.59.32,5.22,5.22,0,0,1,5.15-5.47A5.12,5.12,0,0,1,140.64,322.72Z" transform="translate(-3.52 -91)" />
    <path d="M135.32,278.07a5.14,5.14,0,0,1,5.32,5.28,5.3,5.3,0,1,1-10.59.07A5.22,5.22,0,0,1,135.32,278.07Z" transform="translate(-3.52 -91)" />
  </g>
</svg>
