<svg xmlns="http://www.w3.org/2000/svg" viewBox="0 0 297 702" class="det-svg det1">
  <link xmlns="http://www.w3.org/1999/xhtml" rel="stylesheet" href="../../css/index.css" type="text/css" />
  <title>det1</title>
  <g>
    <path d="M105.81,345.6H99.52c-8.49,48.93-14.1,98-18.43,147.07-14.49,4.67-28.35-4.3-29.59-19.14-.49-5.89.07-11.88.25-17.82,1.47-47.65,5.77-95,17.26-141.38,5.91-23.86,13.77-47,26.22-68.38,7-12,15.21-23.12,26.27-31.69,5.4-4.18,11.49-7.46,17.76-11.46-2.42-11.2-4.92-22.72-7.67-35.46,18.74,4.21,36.15,9.38,54.39,14,4.33,18,8.68,36,13.16,54.64,3.73-2.09,3.5-5,4.07-7.33C206.6,214.79,210,200.92,213,187c.86-4,2.31-6.06,6.51-7.08,15-3.67,29.9-7.82,44.85-11.75a34.34,34.34,0,0,1,4.45-.42c-2.6,12-5.08,23.46-7.53,34.72.42.64.58,1.22.94,1.39,17.82,8,30.4,21.73,40.53,38C316,263,324.22,286.29,330.47,310.32c8.83,33.95,13.66,68.55,16,103.5,1.26,19,1.76,38,2.74,57C350,486.17,334,498.12,319.66,493c-.54-4.63-1.23-9.51-1.66-14.42-3.69-42.68-9.14-85.13-16-127.41-.92-5.65-.93-5.65-7.1-5.1,1.12,7.47,2.38,14.9,3.32,22.36,4.23,33.74,9.29,67.41,12.33,101.26,3.69,41.21,5.73,82.56,8.3,123.86.58,9.25.21,18.56.64,27.83.19,4-1.25,6.41-5,7.31-9,2.13-17.95,5-27.1,6.06q-41.81,4.89-83.75,8.49c-7.27.64-14.72-.47-22.06-1.06-27.75-2.19-55.51-4.38-82.82-10-6-1.24-11.76-3.38-17.7-5.13C82.59,532.24,90.38,439,105.81,345.6Zm94.56-14.8a8.3,8.3,0,0,0-8.35,8c-.1,4.76,3.89,8.89,8.45,8.75,4.18-.13,8.13-4.27,8.11-8.49A8.57,8.57,0,0,0,200.37,330.8ZM192,468.23a8.43,8.43,0,0,0,8.28,8.13,8.62,8.62,0,0,0,8.26-8.22c0-4.57-4.32-8.81-8.74-8.5A8.45,8.45,0,0,0,192,468.23ZM199.9,282.8a8.58,8.58,0,0,0,8.7-7.67c.33-4.45-3.77-8.75-8.36-8.77a8.39,8.39,0,0,0-8.22,8.1A8.11,8.11,0,0,0,199.9,282.8Zm.71,112.37A8.64,8.64,0,0,0,192,403a8.51,8.51,0,0,0,7.48,8.85c4.49.43,8.89-3.53,9-8.15C208.7,399.56,204.8,395.37,200.61,395.17Z" transform="translate(-51.3 -40)" />
    <path d="M261.34,95.16H304.1v8.94c-4.86,1.43-198.5,1.81-207.43.31v-9h42.49c1-11.6,2.29-22.42,2.69-33.27.2-5.56,2.41-8.6,7.19-10.93,18.43-9,37.94-12,58.22-11A111.34,111.34,0,0,1,250,50.52c5.36,2.54,8.71,5.54,8.72,12.16,0,8.3,1.21,16.59,1.91,24.88C260.77,89.87,261,92.18,261.34,95.16Z" transform="translate(-51.3 -40)" />
    <path d="M207.9,192.42H192.64c-1.09-4.23-2.37-8.07-3-12-.54-3.37-2.19-4.76-5.4-5.52q-16.29-3.87-32.45-8.29c-2.12-.58-4.7-1.72-5.79-3.42-10.34-16.06-12.35-33.42-7.8-52.09h123.4c2.68,3.69,2.58,8.34,2.93,12.69a64.15,64.15,0,0,1-8,36.37c-2,3.79-4.65,6.1-9.06,7.07-10.44,2.29-20.72,5.25-31.14,7.63-3.29.75-4.91,2.31-5.54,5.49C210,184.27,208.94,188.14,207.9,192.42Z" transform="translate(-51.3 -40)" />
    <path d="M206.69,650l70.44-6.55a51.23,51.23,0,0,1,.56,5.13c0,19.5.21,39,0,58.48a35.41,35.41,0,0,1-37.73,35.15c-17.35-1-32-14.46-33-32.54C205.88,690,206.69,670.27,206.69,650Z" transform="translate(-51.3 -40)" />
    <path d="M123.25,643.41l69.8,6.48a46.28,46.28,0,0,1,.58,5.18c0,17.38.18,34.76,0,52.13a35.35,35.35,0,0,1-70.49,3.5,51.62,51.62,0,0,1-.39-5.69q0-27.5,0-55C122.74,648,123.05,645.88,123.25,643.41Z" transform="translate(-51.3 -40)" />
  </g>
</svg>
