<svg xmlns="http://www.w3.org/2000/svg" viewBox="0 0 637 610.58" class="det-svg det11">
  <link xmlns="http://www.w3.org/1999/xhtml" rel="stylesheet" href="../../css/index.css" type="text/css" />
  <title>det11</title>
  <g>
    <path d="M347.41,626.42c-32.34-84.84-59.39-170.13-76.51-259H686c0,96.26,2,193.52,2,289.54-4.57,1.32-373.24.74-390.36-.58-1.87-8.22-2.84-16.75-4-26Z" transform="translate(-51 -90.23)" />
    <path d="M168.19,227.28c-1.45-12.58.78-23.57,7.11-34.16,6.86,1.07,13.67,2.11,20.47,3.19,24.45,3.9,48.88,7.88,73.35,11.64,3.11.48,5.28,1.28,5.47,5.08,4.31,0,8.24.05,12.18,0,8.33-.12,16.63-.06,24.86,1.62,1.29.26,2.78-.66,4.21-.84,8.21-1.09,16.49-2,24.52.64,3.43,1.11,5,4.37,5,8.08V234c2.58.5,4.87.85,7.11,1.39,5.75,1.4,10.31,4.74,12.43,10.16,5.12,13,8.21,26.47,5.78,40.66-2.75,16-11.88,26.86-26.69,33.1-11.81,5-24.27,5.4-36.81,4.74-16.92-.89-33.3-4.73-49.54-9.24l-5.74-1.58c-3.17,7.8-1.05,15.45,0,23,7.83,56.25,21.76,111.11,38,165.43q16.19,54.09,36,107c.55,1.46,1,3,1.79,5.37l-50,3.09c.45,4,.77,7.64,1.31,11.28,1.76,12,3.65,23.88,5.4,35.83,2.27,15.49-3.75,27.85-16.33,33.71A29.39,29.39,0,0,1,226.35,676c-2.91-18.19-5.46-36.43-8.18-54.65-.11-.77-.31-1.52-.56-2.75l-72.2-2.19c-.74,5.67-1.52,11.3-2.19,16.93-1.63,13.57-3.1,27.16-4.83,40.72-1.75,13.81-13.14,24.62-26.55,25.5-14.94,1-27.84-7.91-31.25-22A33.63,33.63,0,0,1,80,666.39c1.62-15.76,3.56-31.49,5.37-47.24.38-3.34.7-6.68,1.11-10.65-11.22-3.21-22.75-5.19-33.37-10.25,1.63-40.55,7.79-80.21,16.09-119.9-1.54-.47-2.79-.88-4.06-1.25C56.35,474.6,50.81,468,51,458.83c.22-10.09,1-20.19,1.92-30.24,2.2-23.09,5.26-46.06,10.46-68.69,4.89-21.3,11.19-42.12,21.86-61.36a100.61,100.61,0,0,1,18.09-24.19C115.27,262.86,129,256,146.05,257.1c.77,0,1.55-.06,3.16-.14-4.5-10.42-8.85-20.47-13.56-31.36,21.39,4,41.78,9.08,62.88,9.06,20.93,0,41.14-5.07,62.56-9.1l-18.82,43a37.6,37.6,0,0,0,4.67,2.45c21.31,7.71,43,13.78,65.79,15a52.2,52.2,0,0,0,13.55-1.08c6.31-1.37,7.58-4.1,6.14-11H311.19c-15.27,0-30.53-.13-45.8.05-6.27.08-10.88-1.78-12.64-8.66L248,266.35l20.64-47.2c-28.77,6-56.23,13.46-84.9,10.34C178.69,228.94,173.64,228.06,168.19,227.28Zm107.63,6.12v26.52c8.86,1,29.81.71,34.07-.53v-26Zm62.72,3.49c1.46-.82,2.89-1.13,3.37-2,2-3.58,0-12.55-3.65-14.55a17.16,17.16,0,0,0-7.87-1.88c-16.62-.17-33.25-.09-49.87-.08a29.38,29.38,0,0,0-3,.07c-2.95.29-2.91,1.87-1.73,4.28h47.54C334.77,222.75,337.09,224.8,338.54,236.89Z" transform="translate(-51 -90.23)" />
    <path d="M494.49,189.47H505.3c.21,2.55.39,4.68.62,7.41l7.89.81c1.16,4.25,1.46,24.72.43,34.46-14.42.21-28.94.13-43.89,0V197.84l8.88-1.05c-1.91-4.47-6.23-4.57-9-6.73-3.13-2.42-6.56-4.47-9.6-7a85.65,85.65,0,0,1-8.12-7.82c-2.53-2.72-4.78-5.7-7.92-9.48-.69,4-1.4,7-1.68,10.08-.75,8.28-.85,16.39,1.68,24.63a130.59,130.59,0,0,1-.95,81.75,28.12,28.12,0,0,1-1.75,4.41,10.71,10.71,0,0,1-12.65,5.14,10.4,10.4,0,0,1-7.57-11.32,23.42,23.42,0,0,1,1.35-5.15c6.94-20.65,7.31-41.55,2.46-62.67-.73-3.16-1.81-5.59-5.25-7.16-5.76-2.62-7.87-8.16-8.59-14.08-1.94-16-.54-31.61,5.11-46.78,2.4-6.42,6.28-11.42,12.92-13.86,8.22-3,14.53-.22,17.5,8a81.79,81.79,0,0,0,16.7,27.82,58.89,58.89,0,0,0,22.74,15.74C490,183.63,493.23,185,494.49,189.47ZM491,197.3c3.22,0,5.95.12,8.65-.08a2.57,2.57,0,0,0,1.81-1.72,2.5,2.5,0,0,0-1.62-1.87C496.59,193.37,493,192.45,491,197.3Z" transform="translate(-51 -90.23)" />
    <path d="M142.66,183.37c.41-3.12.71-5.4,1.08-8.19l35.41,5.43c1.1-4.29,2.16-8.26,3.15-12.25,1.33-5.38,2.77-10.74,3.85-16.18.66-3.36,2.51-5,5.64-6a87.11,87.11,0,0,1,33.36-4.32c15.81,1,30.88,4.68,44.78,12.53.86.49,1.68,1.05,2.56,1.49,7,3.5,10.82,8.12,9,16.86-1.55,7.48-1.27,15.33-1.85,23.82l35,5.83c-.29,2.72-.55,5.15-.88,8.21Z" transform="translate(-51 -90.23)" />
    <path d="M568.68,165.73c-1.89,2.32-3.24,3.94-4.55,5.59a75.93,75.93,0,0,1-31.9,24,25.87,25.87,0,0,1-5.08,1.62,6.91,6.91,0,0,1-4.76-12.7,14.46,14.46,0,0,1,2.69-1.21c20.06-7.68,32.36-22.78,40.26-42.08.15-.37.23-.76.36-1.13,3.74-10.28,11.7-13.12,21.19-7.57a21.36,21.36,0,0,1,9.23,11.29,94.35,94.35,0,0,1,5.28,49.05c-.95,6-3.54,11-9.43,13.48-2.64,1.1-3.25,3.12-3.83,5.49-5.24,21.28-5,42.37,2,63.25a39.58,39.58,0,0,1,1.29,4,10.72,10.72,0,0,1-6.9,12.86c-5.42,1.94-11.3,0-13.32-5.63a143.44,143.44,0,0,1-6.55-23.38,132.62,132.62,0,0,1,4.8-65.09c2.81-8.58,1.24-17.26.34-25.91C569.67,170,569.2,168.3,568.68,165.73Z" transform="translate(-51 -90.23)" />
    <path d="M205.74,632.3c1.18,8.19,2.29,15.81,3.38,23.37-4.38,1.36-42.4,1.8-54.09.64.07-8.36,1.66-16.59,2.67-25.36Z" transform="translate(-51 -90.23)" />
    <path d="M560.77,90.23a19,19,0,0,1,19.12,19.25c0,11-8.46,19.34-19.7,19.27a19.41,19.41,0,0,1-19.3-19.25C540.91,98.59,549.62,90.14,560.77,90.23Z" transform="translate(-51 -90.23)" />
    <path d="M472.11,109.38c0,11.18-8.29,19.44-19.51,19.37a18.82,18.82,0,0,1-19.13-19.18c0-11.18,8.29-19.42,19.53-19.34C464,90.31,472.1,98.47,472.11,109.38Z" transform="translate(-51 -90.23)" />
    <path d="M680.58,256c-.1,1.73-.17,2.86-.25,4.3H594V256Z" transform="translate(-51 -90.23)" />
    <path d="M417.11,256v4.22H319a15.68,15.68,0,0,1-.43-2.19,10.67,10.67,0,0,1,.33-2Z" transform="translate(-51 -90.23)" />
    <path d="M556.24,256c-.09,1.7-.14,2.83-.22,4.29h-98.2V256Z" transform="translate(-51 -90.23)" />
  </g>
</svg>
