<svg xmlns="http://www.w3.org/2000/svg" viewBox="0 0 786.29 359.94" class="det-svg det12">
  <link xmlns="http://www.w3.org/1999/xhtml" rel="stylesheet" href="../../css/index.css" type="text/css" />
  <title>det12</title>
  <g>
    <path d="M468.47,449.89h3.8c6.66,0,13.36.43,20-.13,6.06-.52,10,1.94,13.56,6.41,7.9,9.91,13.24,21.15,17.22,33,3,9,5.5,18.14,7.93,27.3,1.57,5.94,4.45,10.75,9.87,13.76,6.87,3.81,13.78,3.67,20.34-.59s10.3-10.78,8.9-18.69a171.6,171.6,0,0,0-6.53-25.58c-3.66-10.68-8.27-21-12.48-31.51-.42-1.06-.91-2.09-1.59-3.64,1.81-.14,3.2-.27,4.59-.35,40.73-2.43,77.83,9.87,113.43,28.1,24.83,12.72,47.79,28.35,69.47,45.86a13.6,13.6,0,0,0,7.69,3c9.77.93,19.54,1.91,29.3,3,13.89,1.56,23.09,13,21.95,27.22-1,13.08-12.55,22.79-26.15,22.07a28.81,28.81,0,0,1-3.49-.25c-2.86-.55-5,.5-7.18,2.33-9.6,7.89-22.51,7.78-32.17,0-.39-.31-.75-.66-1.12-1-7.49-6.45-7.5-6.3-17.2-7.25-18.71-1.83-37.4-3.85-56.11-5.75Q621,564,589.4,560.9c-6.79-.69-13.57-1.47-20.37-2-5-.4-10-.7-14.94-.71-29.8-.06-59.61,0-89.42-.07a16,16,0,0,0-8.48,2.2c-26.61,15.49-55.33,25.17-85.54,30.64a300.14,300.14,0,0,1-56.13,4.75c-10.13-.08-20.27-.88-30.38-1.71a16,16,0,0,1,1.93-32c10.64.28,21.27,1.41,31.9,1.36,36.54-.19,71.75-7,105.17-22.18a19,19,0,0,0,8.8-7.68c11.54-18.93,9.26-43.1-6.19-59-3.26-3.36-3.82-6.66-3.28-10.73a47.42,47.42,0,0,1,5.75-17.43c8.81-15.46,21.34-26.85,38-33.12,22.7-8.56,42.81-3.39,60.39,12.81,9.19,8.47,15.91,18.78,21.43,29.87,8.49,17.08,14.24,35.14,18.2,53.75,2.4,11.22-6.51,20.66-17.85,19.32-6.57-.78-11.48-5.31-13.5-12.31-2.91-10.06-5.63-20.18-8.91-30.12a102.59,102.59,0,0,0-13.39-27.24,71.62,71.62,0,0,0-8-9.53C494.91,440.22,484,439,472.31,446c-1.4.84-2.71,1.83-4.06,2.75ZM623.73,514.4l.18-1.24c-10.75-4.44-21.65-8.35-33.44-10.4V511Z" transform="translate(-9.71 -282.6)"/>
    <path d="M167.44,548.64c.13,1.9.24,3.35.33,4.8.81,13.75-8.54,25.06-22.25,26.62-27,3.07-53.9,6-80.85,9-7.44.83-14.86,1.95-22.32,2.52-4.6.35-9.43.71-13.86-.29-12.11-2.74-19.17-13.62-18.77-25.07a24.8,24.8,0,0,1,22-24c15.69-1.94,31.42-3.51,47.13-5.25,6.94-.76,13.88-1.54,21.24-2.36a23.47,23.47,0,0,0-1.32-3.2C90,517.11,81.3,502.74,72.35,488.52c-5.8-9.2-6.41-19.11-4.5-29.35a81.71,81.71,0,0,1,3.91-12.86c7.41-20.24,16.61-39.57,29.59-56.92a2.48,2.48,0,0,0,.36-2c-1.43.78-2.9,1.5-4.28,2.35C82.09,399.2,69.23,411.41,58,425.36c-3,3.75-5.76,7.77-8.87,11.45-4.06,4.82-9.28,6.87-15.59,5.55C27,441,23,437.05,21.08,430.75a14,14,0,0,1,1.8-12.46c24.64-34.67,55-62,97.23-73.14a116.9,116.9,0,0,1,56.07-1.4c1.62-6.43,3.24-12.92,5.08-20.24L216,353.36c-3.69,16.39-7.37,32.69-11.15,49.49-4.88-3-9.28-5.3-12-10.07-4.88-8.51-10-16.9-15.24-25.2-6.78-10.75-20.17-13.12-29.86-5.48a19.77,19.77,0,0,0-5.48,24.71c2.27,4.44,5,8.63,7.58,12.91q7.1,11.76,14.23,23.49c.84,1.4,1.61,2.86,2.44,4.33l-5.72,8.38,19.64,7.16c-.93-1.82-1.42-2.95-2.05-4q-14.7-24.36-29.45-48.7c-.86-1.43-1.75-2.84-2.54-4.3-4.33-8-2-17.43,5.38-21.88a16,16,0,0,1,22.27,5.35c7.48,12,14.7,24.17,22,36.27,5.26,8.68,10.57,17.33,15.73,26.07a6.5,6.5,0,0,0,5,3.46c18.36,3.14,36.69,6.45,55,9.71,1.8.32,3.61.62,5.4,1,9.31,1.86,14.73,9.86,13,19.2-1.53,8.39-9.74,13.95-18.72,12.52-6.24-1-12.44-2.2-18.67-3.3q-15-2.66-30-5.28a20.6,20.6,0,0,0-2.74,0c17.32,22.61,26.65,48.32,34.1,75.75Z" transform="translate(-9.71 -282.6)"/>
    <path d="M435.47,508.11c.1,8.8-2.56,16.72-7.09,24.12a12.86,12.86,0,0,1-5.84,5.19,225.15,225.15,0,0,1-39.45,13.92,10,10,0,0,1-4.83-.07,44.71,44.71,0,0,1-32.66-48.65c2.9-23,21.48-39.56,44-39.74s40.86,14.79,45.05,36.8C435.22,502.44,435.22,505.3,435.47,508.11Z" transform="translate(-9.71 -282.6)"/>
    <path d="M309.31,363l-3.45,6.13L179.19,297.4c.72-1.36,1.21-2.37,1.79-3.34s1.08-1.63,1.81-2.73l26,14.67c4.38-6.39,9-12.33,12.69-18.79,2.48-4.34,5.73-4.86,9.95-4.52,17.34,1.41,32.4,8.31,45.92,18.94A69.43,69.43,0,0,1,293,319a6.28,6.28,0,0,1,.4,6.92c-3.51,7.15-6.7,14.46-10.24,22.18Z" transform="translate(-9.71 -282.6)"/>
    <path d="M277.34,357.17c-8,26.77-41.41,38.54-64.37,24.24.84-4,1.69-8.2,2.61-12.38,1.11-5,2.19-10.07,3.45-15a5.14,5.14,0,0,0-2-6c-6.61-5.31-13-10.84-19.51-16.3-1.52-1.28-3-2.6-4.61-4,1.06-5.31,4.08-9.4,7.53-14.05Z" transform="translate(-9.71 -282.6)"/>
    <path d="M236.8,551.84c1,3.66,2,6.5,2.65,9.4a24.87,24.87,0,0,1-15.78,29.18c-12.16,4.41-25.85-.79-31-12.62-3.23-7.37-5.13-15.32-7.85-23.69Z" transform="translate(-9.71 -282.6)"/>
    <path d="M276,441.11l5.85-7.12c-6.32-8.86-8.69-18.61-6-29.26a31.81,31.81,0,0,1,12.7-18.56,33.16,33.16,0,0,1,47,45.12c-9.55,14.62-25.76,18.36-45.31,10.3L286.45,445Zm31.69-52.18A24.23,24.23,0,0,0,283.4,413a24.4,24.4,0,0,0,48.79.25A24.36,24.36,0,0,0,307.65,388.93Z" transform="translate(-9.71 -282.6)"/>
    <path d="M588.72,642.54l-82.4-9.72c1-8.83,2-17.16,3-25.39C529.14,604.32,575.38,624.59,588.72,642.54Z" transform="translate(-9.71 -282.6)"/>
    <path d="M503.39,617.1c-.57,5.14-1.08,9.71-1.67,15l-46.57-5.45c.56-5,1.09-9.74,1.68-15Z" transform="translate(-9.71 -282.6)"/>
    <path d="M244,493.16l-8-6.93c2.41-2.79,4.56-5.46,6.94-7.9a4.07,4.07,0,0,1,3-.86c3.11.41,6.17,1.11,10.05,1.85C252.16,484.4,248.1,488.58,244,493.16Z" transform="translate(-9.71 -282.6)"/>
  </g>
</svg>
