<svg xmlns="http://www.w3.org/2000/svg" viewBox="0 0 370 702" class="det-svg det2">
  <link xmlns="http://www.w3.org/1999/xhtml" rel="stylesheet" href="../../css/index.css" type="text/css" />
  <title>det2</title>
  <g>
    <path d="M484.79,202.17l-7.31-33.39c4.95-.85,33.61,6,54,12.88,5.16,17.53,7.87,36,13.46,53.65l1.88.06c.69-2.37,1.48-4.72,2-7.12,3.36-14.1,6.72-28.2,10-42.33.62-2.72,1.28-4.71,4.5-5.53,15.89-4,31.72-8.32,47.59-12.47a16.1,16.1,0,0,1,3.35,0c-2.59,12-5.07,23.52-7.41,34.41,7.31,5.07,14.56,9.23,20.78,14.59,14.32,12.35,23.75,28.32,31.59,45.3,11.54,25,18.51,51.41,23.53,78.34,8,42.9,11.32,86.26,11.84,129.84.19,15.85-12.82,26.28-28,23.05a7.44,7.44,0,0,1-1.6-.93c-1-9.88-1.75-20.06-3-30.18q-7.12-55.87-14.54-111.73c-.67-5.08-.85-5.06-7.14-4.86A1910.39,1910.39,0,0,1,665,625.83c-7.25,4.51-15.07,6-22.74,7.09-20.23,2.9-40.55,5.16-60.85,7.58-5.43.65-10.91.83-16.34,1.45-21.71,2.48-43.23-.17-64.72-2.49-18.65-2-37.23-4.83-55.8-7.59-4.65-.69-9.12-2.59-13.7-3.83-3.71-1-4.51-3.46-4.37-7,1.39-35.39,2.16-70.82,4.12-106.19q3.26-59.1,8.29-118.11c2.8-32.69,6.82-65.27,10.37-97.89.68-6.27,1.66-12.51,1.49-19.26a55.85,55.85,0,0,0-4.4,5.25c-4.84,7.35-9.65,14.72-14.25,22.21-3.67,6-8,11.24-14.24,14.69-12.47,6.92-24.73,5.47-36.61-1.49-10.44-6.12-18.49-14.87-25.88-24.27-1.76-2.23-3.46-4.5-5.88-7.64-4.1,7.23-7.89,13.89-11.88,20.92l-13.28-7.51c4.69-8.56,9-16.69,13.58-24.69,1.55-2.74,1.84-4.95.13-7.85-9.19-15.62,2.1-35.39,20.42-34.74.7,0,1.4-.06,2.87-.13L372.07,215c-11.74-10.49-18.36-23.36-17.72-39.43a45.59,45.59,0,0,1,12.06-29.78A47.35,47.35,0,0,1,446,193.84a46,46,0,0,1-24.49,26.59c-11.47,5.34-23.39,5.56-35.73,1.88l-10.48,18.85c7.22,14,15.92,26.52,22.63,32.39C419.36,241,444,212.28,484.79,202.17Zm-48.6-24.55A34.45,34.45,0,0,0,402,142.84c-19.28-.2-35.78,15.49-35.35,34.56.52,22.86,18.89,35.06,35.13,34.91A34.81,34.81,0,0,0,436.19,177.62Zm101.43,289.8a8.46,8.46,0,0,0,7.63,8.74,8.37,8.37,0,1,0,.78-16.72A8.48,8.48,0,0,0,537.62,467.42Zm0-128.58a8.65,8.65,0,0,0,7.89,8.59c4.35.24,8.73-4.17,8.61-8.66a8.57,8.57,0,0,0-8.34-8.09A8.27,8.27,0,0,0,537.61,338.84Zm8.21-56.14a8.35,8.35,0,0,0,8.28-8,8.24,8.24,0,1,0-16.48,0A8.09,8.09,0,0,0,545.82,282.7Zm-8.2,120.47a8.48,8.48,0,0,0,7.79,8.57,8.69,8.69,0,0,0,8.67-7.78c.34-4.53-3.73-9-8.22-9A8.46,8.46,0,0,0,537.62,403.17Z" transform="translate(-324.28 -40)" />
    <path d="M484.78,95.26c1-11.89,2.2-23,2.75-34.07.23-4.66,2-7.29,6-9.38,18.5-9.5,38.26-12.55,58.76-11.67A111.12,111.12,0,0,1,597,51.22c4.49,2.2,6.85,5,7.11,10.21.53,10.89,1.72,21.74,2.67,33C614,96,621,95,628.05,95.19s14.16,0,21.67,0v9.46H442.21c-.11-1.7-.29-3.08-.27-4.45s.24-2.77.45-5Z" transform="translate(-324.28 -40)" />
    <path d="M553.49,192.44H538.31c-1.43-5.44-2.8-10.66-4.3-16.4-10.44-2.66-20.88-6.06-31.58-7.81-8.23-1.35-12.25-5.86-15.28-12.83-6.21-14.28-7.13-28.82-3.39-44.24H607.88c.72,3.75,1.83,7.62,2.15,11.55a65,65,0,0,1-8.15,37.73c-2,3.54-4.36,5.73-8.54,6.64-10.43,2.29-20.71,5.3-31.13,7.64-3.58.81-5.3,2.49-5.94,5.95C555.58,184.39,554.54,188,553.49,192.44Z" transform="translate(-324.28 -40)" />
    <path d="M552.28,649.69l70.39-6.54a45.3,45.3,0,0,1,.57,5.11c0,19.49.21,39,0,58.45a35.39,35.39,0,0,1-37.69,35.16c-17.32-1-32-14.45-33-32.51C551.47,689.74,552.28,670,552.28,649.69Z" transform="translate(-324.28 -40)" />
    <path d="M468.79,643.14l69.79,6.48a32.6,32.6,0,0,1,.64,4.58c0,17.61.18,35.22,0,52.83a35.32,35.32,0,0,1-69,10.2,39,39,0,0,1-1.77-11.2c-.16-19.51-.07-39-.05-58.54C468.38,646.33,468.59,645.17,468.79,643.14Z" transform="translate(-324.28 -40)" />
  </g>
</svg>
