<svg xmlns="http://www.w3.org/2000/svg" viewBox="0 0 348.35 701.9" class="det-svg det4">
  <link xmlns="http://www.w3.org/1999/xhtml" rel="stylesheet" href="../../css/index.css" type="text/css" />
  <title>de4</title>
  <g>
    <path d="M672.42,496.65c-4.28-49.08-10-97.9-18.35-146.87l-5.22-.39c-.42.86-.85,1.3-.79,1.67,3.36,23.77,7.16,47.48,10.06,71.31,3.08,25.25,5.77,50.57,7.81,75.92,2.3,28.68,3.82,57.42,5.4,86.14.73,13.3.85,26.62,1.1,39.94.12,6.23,0,7-6.26,8.45-12,2.83-24.09,5.75-36.31,7.21q-35.76,4.29-71.71,6.86c-9.18.67-18.56-.25-27.76-1.23-23.87-2.53-47.72-5.38-71.54-8.38-5.62-.71-11.15-2.37-16.65-3.88-2.67-.72-5.16-2.09-8-3.26,2-118.41,13.43-235.3,37.44-351.11-.95,1.74-2,3.42-2.82,5.23-2.94,6.76-5.51,13.7-8.75,20.3a78,78,0,0,1-8.83,14.59c-11.34,14.13-29.62,10.74-37.77,1.77a135.38,135.38,0,0,1-14.6-19.27C386,281,375.84,259,365.69,237c-2.89-6.26-5.83-12.51-8.44-18.88-1.32-3.2-2-6.67-3.41-11.78,17.07,11.63,32.25,9.78,47.63-1.28l27,55.7c14.29-27.45,31.75-49,63.75-54.42-2.47-11.39-4.86-22.42-7.37-34,1.79,0,3.4-.32,4.83.05,14.73,3.8,29.4,7.85,44.16,11.51,4,1,5.83,2.87,6.71,6.95,3,13.93,6.45,27.77,9.75,41.64.55,2.27,1.24,4.5,1.92,6.94,3.57-.79,3.29-3.55,3.79-5.63,3.39-14.09,6.84-28.18,9.9-42.35.91-4.22,2.55-6.53,7-7.6,14.54-3.54,29-7.52,43.48-11.27a51.92,51.92,0,0,1,5.47-.79c-2.64,12.25-5.12,23.75-7.66,35.5,2.87,1.51,5.37,2.77,7.82,4.13,12.54,7,22.07,17.19,30.1,28.9,15.15,22.08,24.15,46.83,31,72.45,7.36,27.63,11.78,55.8,14.58,84.24,2.55,25.81,3.84,51.67,4.5,77.61C702.57,489.93,686.69,502.09,672.42,496.65ZM553.61,399.09c-4.15-.15-8.43,3.77-8.64,7.91a8.81,8.81,0,0,0,8.46,8.8c4.13,0,8.23-4.13,8.27-8.28A8.8,8.8,0,0,0,553.61,399.09Zm8.09,73.06c.18-4.1-3.77-8.43-7.9-8.65-4.43-.24-8.82,4-8.82,8.45,0,4.12,4.1,8.24,8.26,8.28A8.85,8.85,0,0,0,561.7,472.15Zm0-128.76a8.36,8.36,0,1,0-16.72-.3,9,9,0,0,0,8.24,8.36A8.81,8.81,0,0,0,561.69,343.39Zm-8.26-56.62a8.2,8.2,0,0,0,.2-16.39c-4.68-.11-8.84,4-8.64,8.46A8.4,8.4,0,0,0,553.43,286.77Z" transform="translate(-353.84 -44.1)" />
    <path d="M614.28,99.25h42.6v9.64H449.77V99.58c6.81-.57,13.86-.17,20.87-.24s13.75,0,21.34,0c.4-2.77.89-5.24,1.1-7.73.69-8.29,1.59-16.58,1.81-24.88.16-6,2.84-9.39,8.17-11.9a113.23,113.23,0,0,1,44-10.58c20-.8,39.28,2.12,57.46,11.13,4.89,2.42,6.91,5.56,7.15,11C612.19,77,613.33,87.61,614.28,99.25Z" transform="translate(-353.84 -44.1)" />
    <path d="M491.73,115.1h123.2c3.43,8.57,3.32,17.53,2.22,26.46a64.23,64.23,0,0,1-8,23.46,11.44,11.44,0,0,1-8.14,6.07c-11.78,2.71-23.47,5.83-35.73,8.93-1.38,5.17-2.76,10.37-4.23,15.88-5,1.62-10.06,1.33-15.38.17-1.41-5.39-2.79-10.63-4.22-16.06-12.17-3.09-24.09-6.24-36.07-9.08a10.62,10.62,0,0,1-7.29-5C489.58,152,486.05,131.54,491.73,115.1Z" transform="translate(-353.84 -44.1)" />
    <path d="M546.24,653.65a51.62,51.62,0,0,1,.54,5.16c0,17.34.23,34.68,0,52a35.11,35.11,0,0,1-36.93,35.09c-17.54-.7-32.85-14.43-33.48-31.85-.8-22-.2-44.12-.2-66.89Z" transform="translate(-353.84 -44.1)" />
    <path d="M560.31,653.68l69.82-6.47c.18,2.23.44,4.08.44,5.93,0,19.27.13,38.54,0,57.82a35.33,35.33,0,0,1-69.2,9.77,39.6,39.6,0,0,1-1.58-10.53c-.15-17.61-.07-35.22,0-52.82A26.65,26.65,0,0,1,560.31,653.68Z" transform="translate(-353.84 -44.1)" />
    <path d="M357.47,161h25.17c2,5.9,3.87,11.51,5.86,17.07.29.81,1.18,1.4,2.21,2.59,3.15-1.67,6.25-3.28,9.33-5,11.7-6.33,23.55-12.39,35-19.09,13.63-7.95,28.21-9,43.95-7.29.17,1.38.34,2.89.61,5.19-3,.38-5.74.8-8.49,1.06a77,77,0,0,0-42.76,17.84c-7.49,6.2-14.39,13.13-21.73,19.53a137.28,137.28,0,0,1-13.46,10.49c-7.28,4.88-15.48,5.83-24,4.09-7.75-1.58-13-6.45-14.37-14.07C352.89,182.58,355.13,171.84,357.47,161Z" transform="translate(-353.84 -44.1)" />
    <path d="M381.89,147.85l-4.83.34c-.38-.76-.94-1.37-.95-2-.1-6.43-.2-12.85-.12-19.27.09-7.76,4-13.39,11.1-15.85,5.31-1.83,11.11-2.23,16.71-3.18,3.5-.59,7.16-.57,10.5-1.63,9.62-3,14.73-10,15.85-19.92.22-1.88.08-3.81.25-5.7,1-11.14,7.38-19.14,18.12-22.25,3.83-1.11,7.88-1.48,12.47-2.31l.87,6.14c-3.07.44-5.63.75-8.16,1.18-10.39,1.76-16.38,8.2-17.42,18.72-.11,1.18-.08,2.37-.13,3.56-.66,15-10.59,25.88-25.58,27.83-4.71.61-9.5.59-14.2,1.25-12.62,1.79-15.13,8.3-14.55,16.49C382.19,136.47,381.89,141.72,381.89,147.85Z" transform="translate(-353.84 -44.1)" />
    <path d="M401.5,56.44v5.89c-2.84.32-5.44.48-8,.93A37,37,0,0,0,386,65.1c-7,2.85-8.82,8.56-4.79,14.92a41.15,41.15,0,0,0,4.52,5.47c1.11,1.22,2.46,2.23,3.65,3.38,2.21,2.15,5.07,4.31,3.6,7.82s-5.07,2.92-8.09,3.09c-3.79.21-7.6.13-11.37.51-6.93.69-8.54,2.37-8.66,9.51-.17,10.2-.05,20.41-.05,30.62v7.38l-4.95.24c-.43-.86-.81-1.26-.81-1.67-.08-12.58-.29-25.16-.11-37.74.13-9.35,3.76-13.15,13.17-14.43,3.69-.5,7.43-.65,12.08-1-1.69-1.94-2.93-3.24-4-4.66-1.86-2.43-4-4.74-5.36-7.45-4.23-8.57-.94-17.39,7.83-21.31C388.3,57.19,394.43,56.7,401.5,56.44Z" transform="translate(-353.84 -44.1)" />
  </g>
</svg>
