<svg xmlns="http://www.w3.org/2000/svg" viewBox="0 0 410 690.3"  class="det-svg det6">
  <link xmlns="http://www.w3.org/1999/xhtml" rel="stylesheet" href="../../css/index.css" type="text/css" />
  <title>det5</title>
  <g>
    <path d="M717.58,632.76c-14.67,1-28.3,2.3-42,2.65-39.85,1-79.71,2.34-119.56,2.22-43.3-.13-86.56-2.57-129.18-10.92-14.82-2.9-29.29-7.62-43.9-11.55a32,32,0,0,1-3.94-1.72c.29-24.87,2.94-49.6,6.59-74.19s8.18-49.11,12.4-74.1c-1.08-.36-2.38-.88-3.73-1.24-12-3.2-19.07-12.41-18.25-24.92,1-14.88,2.21-29.76,4-44.57,3.44-29.15,8.08-58.11,15.81-86.48,6.71-24.62,15.19-48.53,28.81-70.32,6.92-11.08,15.07-21.11,25.28-29.33,13-10.47,27.55-16.64,44.53-16.11a18.26,18.26,0,0,0,2.88-.51c-5.42-12.49-10.75-24.73-16.65-38.31,3.4.59,5.84,1,8.28,1.42,19,3.13,38,7.06,57.15,9.17,22.84,2.52,45.32-2,67.67-6.39,6.89-1.34,13.75-2.78,21.84-4.43l-23.25,53c5.41,3.68,10.26,7.18,12.89,13.09,2.44,5.52,5.68,10.69,9.25,17.26L676.38,137C713,152,749,167.45,786,182.91L740.47,291.53c1.93,1.19,3.37,2,4.76,3,10.72,7.05,14.49,20.5,8,31.56-10.13,17.31-24.36,29.27-45.16,31.36-12.61,1.27-24.23-2.23-35.19-8.15-15.08-8.14-27.24-19.8-38.55-32.44a26.15,26.15,0,0,0-6.61-5.77c.23,2.41.3,4.85.72,7.23,12.37,71.18,30.95,140.82,53.19,209.47,10.7,33,22.58,65.64,33.91,98.45C716.18,628,716.69,629.87,717.58,632.76ZM681.75,149.2c-.81,1.44-1.36,2.23-1.73,3.11-12.6,29.95-25.12,59.94-37.85,89.83-1.4,3.28-.71,5.51,1.21,8,10,13,19.53,26.29,30.06,38.79a103.84,103.84,0,0,0,19.12,17c9.36,6.71,13,5.69,19.79-3.84,3.37-4.74,7.4-8.7,13.11-10,4.14-.91,6.1-3.15,7.63-6.83,12.67-30.45,25.49-60.84,38.23-91.26.81-1.92,1.32-4,2.08-6.32Z" transform="translate(-376 -49.67)" />
    <path d="M489.33,101.16c.51-3.73.9-6.54,1.39-10.12l43.57,6.72c1.73-6.62,3.42-12.92,5-19.25,1.19-4.74,2.73-9.45,3.29-14.27.7-5.88,4.23-8.2,9.29-9.73,23-6.93,45.87-6,68.73.23a110.75,110.75,0,0,1,35,16.46c4.51,3.18,6.16,6.57,5.45,12.26-1.39,11.11-1.79,22.34-2.64,34l43.21,7.07-1,10.2Z" transform="translate(-376 -49.67)" />
    <path d="M419.13,637.3,491,646.89c-.45,4.51-.83,9.06-1.37,13.59-1.83,15.51-3.57,31-5.63,46.52-2.6,19.59-19.3,32.94-39.35,31.31-21.39-1.74-34.18-20.53-32.94-36.43.93-11.91,2.33-23.79,3.6-35.68.78-7.28,1.7-14.55,2.61-21.81C418.26,642,418.73,639.69,419.13,637.3Z" transform="translate(-376 -49.67)" />
    <path d="M657.29,648.07c1.2,8,2.4,15.7,3.49,23.41,1.41,9.9,3.22,19.77,4,29.73,1.45,19.18-11.77,35.27-30.81,38.32-18.38,3-36.4-9.22-40.87-27.68-.74-3.07-1.14-6.24-1.59-9.38-2.52-17.35-5-34.72-7.65-53Z" transform="translate(-376 -49.67)" />
    <path d="M520.89,155.08c-1.78-15.22.8-29,8.85-42L650,132.25c9.37,23.53-4.85,57.94-30.51,71.89,8-20.21,17.1-38.62,25.39-59l-9.4,2.15c-22.89,5.23-45.84,10.09-69.36,11.53C550.92,159.74,536,158.18,520.89,155.08Z" transform="translate(-376 -49.67)" />
    <path d="M727.37,252.54c-1.32,3.22-2.22,5.45-3.49,8.55l-59.71-24.31c1.26-3.05,2.23-5.44,3.5-8.54Z" transform="translate(-376 -49.67)" />
    <path d="M685.78,186.15c1-2.6,1.84-4.81,3-7.84,19.41,7,38.1,14.89,57.42,22.54L743.72,208C738.36,208.1,702.43,194.56,685.78,186.15Z" transform="translate(-376 -49.67)" />
    <path d="M734.35,224.84c-1.24,3.21-2.16,5.63-3.32,8.62l-55.1-20.55,3-8.75Z" transform="translate(-376 -49.67)" />
    <path d="M710.53,280.1c-1.54,3.14-2.59,5.27-4.08,8.28l-24.21-10.95,3.62-8.42Z" transform="translate(-376 -49.67)" />
  </g>
</svg>
