<svg xmlns="http://www.w3.org/2000/svg" viewBox="0 0 438.03 700.47" class="det-svg det6">
  <link xmlns="http://www.w3.org/1999/xhtml" rel="stylesheet" href="../../css/index.css" type="text/css" />
  <title>det6</title>
  <g>
    <path d="M742.75,622.18c-8.8,1.14-17.09,2.28-25.39,3.29Q644.19,634.37,571,643.22c-16.76,2-33.53,3.92-50.26,6.16-5.1.68-8.76-.68-12.66-4.1Q448.42,593,388.35,541.12c-3.92-3.39-4.76-6.42-3.83-11.46,13.78-75,35.28-147.67,67.72-216.83,8.31-17.72,18.23-34.69,27.44-52a23.12,23.12,0,0,0,3.11-8.06c-2.57,1.16-5.22,2.19-7.71,3.51-16.42,8.7-29.15,21.36-39.18,36.85C426.91,307,421,322.24,416,337.9a23.92,23.92,0,0,1-35.69,13.3c-7.91-4.83-13.35-14.95-11-23.54,15.45-56.19,44.94-100.93,102.1-122.3,23.95-9,48.84-10.68,74.12-8.51,1.48.13,2.94.33,5.45.61-1.68-13.76-6.53-26.5-8.75-40.51,2.89.44,5.28.63,7.58,1.19,17.59,4.28,35.17,8.66,52.76,12.94,3.24.79,5.89,1.54,6.87,5.56,5.41,22.18,11.1,44.28,16.66,66.42a11.64,11.64,0,0,1-.19,2.8l-24.28-2.81c-.13,13.29-1.95,25.88-9.18,38.67-3-5.74-5.83-10.36-8-15.27-3-7-5.74-14.26-8.36-21.48-4.85-13.43-16-21-30.33-20.55-12.85.44-24,9.47-27.46,22.42a31.38,31.38,0,0,0,.87,18.32c9.06,27.72,22.8,52.81,42,74.81l5.1,5.83c-2.52,7.76-5.25,15.44-7.49,23.26-2.68,9.29-4.66,18.79-7.5,28-1.46,4.74.23,7.24,3.75,9.94,16.56,12.69,33,25.57,49.43,38.4q43.79,34.13,87.49,68.35a22.14,22.14,0,0,1,6.53,7.77c14.25,31.68,28.26,63.48,42.31,95.26C741.56,618.35,742,620,742.75,622.18Z" transform="translate(-359.97 -41.53)" />
    <path d="M687.43,388.75c-51.27-.52-89.8-17.54-120.61-51.72-18.89-20.95-32.21-45.15-41.19-71.81-2-6-3-12-1-18.24a23.69,23.69,0,0,1,22.4-16.58c10.69-.17,19.28,6.13,23.34,16.37,4.28,10.82,8.4,21.78,13.76,32.06a119,119,0,0,0,34.45,40.54c25.57,19.12,54.43,23.79,85.42,19.55a35.91,35.91,0,0,1,13.87.48c10.88,2.92,17.37,13,16.61,24.38-.72,11-8.25,20-19.11,21.76S693.26,388.11,687.43,388.75Z" transform="translate(-359.97 -41.53)" />
    <path d="M568.17,90.35c2.59-10.27,5.1-20.06,7.51-29.88,2.93-12,2.81-12.33,14.76-15.18,35.9-8.54,69.32-2.53,100.21,17.72,4.54,3,6.78,6.33,6.09,12.24-1.34,11.29-1.75,22.69-2.62,35.05l44.33,7.38c-.63,3.44-1.14,6.27-1.85,10.14L522.22,93.73c.63-3.6,1.17-6.6,1.81-10.21Z" transform="translate(-359.97 -41.53)" />
    <path d="M622.2,208.28c-2.16-8.23-4.12-15.62-6-23-1.25-4.8-2.55-9.6-3.61-14.44-.77-3.53-2.48-5.31-6.27-6.11-14.55-3.11-29-6.66-43.51-10.06-2.4-.57-4.77-1.23-7.7-2-3.51-16.29-.22-31.35,8-46.48,6,.82,12.06,1.52,18.1,2.48q49.64,7.91,99.25,15.93c6.66,1.07,6.66,1.11,7.33,7.87,3.5,34.92-17.21,65.05-50.58,73.38C632.6,207,627.88,207.37,622.2,208.28Z" transform="translate(-359.97 -41.53)" />
    <path d="M711.85,637.56c3.63,10.92,7,21,10.35,31.11,3,9.18,6.52,18.24,8.92,27.59,3.91,15.22-2.61,30.79-15.75,39.53a37.46,37.46,0,0,1-42-.5A34.91,34.91,0,0,1,659.78,718C652,695.45,644.56,672.85,637,650.28a22.64,22.64,0,0,1-.47-3.54Z" transform="translate(-359.97 -41.53)" />
    <path d="M487.39,638.42c-9.31,2.63-17.13,4.83-24.94,7.05-17.87,5.08-35.78,10-53.6,15.3a37.74,37.74,0,0,1-48.61-31.64,37.21,37.21,0,0,1,24.38-39.19c10.5-3.68,21.36-6.37,32.13-9.24a6.76,6.76,0,0,1,5.34,1C443.49,600.12,464.75,618.7,487.39,638.42Z" transform="translate(-359.97 -41.53)" />
    <path d="M728.53,337l-14.19-5.71c1-2.47,2-4.91,3.13-7.64-11.07-10.1-17.86-22.31-18.19-37.65a48.36,48.36,0,0,1,11-32.4,49.42,49.42,0,0,1,84.58,48.55c-9.23,24.61-31.82,35.55-62.46,29.92Zm56.24-51.94a36.27,36.27,0,1,0-72.54-.38c-.12,19.9,16.71,36.76,36.53,36.62A36.5,36.5,0,0,0,784.77,285.07Z" transform="translate(-359.97 -41.53)" />
    <path d="M697.26,394.63,682,422.38l-14.13-7.64c3.52-6.37,6.68-12.44,10.24-18.27.68-1.11,2.91-1.67,4.47-1.75C687,394.49,691.45,394.63,697.26,394.63Z" transform="translate(-359.97 -41.53)" />
  </g>
</svg>
