<svg xmlns="http://www.w3.org/2000/svg" viewBox="0 0 670.51 715.07" class="det-svg det7">
  <link xmlns="http://www.w3.org/1999/xhtml" rel="stylesheet" href="../../css/index.css" type="text/css" />
  <title>det7</title>
  <g>
    <path d="M191,207.91c-18.15,8.53-33.33,20.48-47.3,34A302.07,302.07,0,0,0,108,283.78c-7.38,10.39-18.92,13.6-30.32,9.68-16.21-5.56-22.25-25-11.71-39.38a448.29,448.29,0,0,1,31.19-38.32c27.35-29.7,59.12-53.47,97-68.21,36.21-14.07,73.39-19.06,111.83-11.15a21.17,21.17,0,0,0,3.61,0c2.55-10.24,5.09-20.42,7.83-31.41,2.79,2.24,4.88,3.81,6.85,5.5,14.54,12.46,29,25.06,43.64,37.36,3.64,3.06,5,5.74,3.79,10.77-5.34,22.21-10.11,44.57-15.13,66.86-.4,1.76-1.14,3.44-2,5.93l-20-13.51-11.84,15.27c-3.31-11.23-4.64-21.31-5.68-31.43-.46-4.49-.47-9-1-13.52-2-17.06-16.78-29.88-33.39-29-16.84.85-30.78,14.61-31,31.63-.21,20.85,3.3,41.35,8.54,61.45,3.41,13.08,7.78,26,12.29,38.71,1.75,4.95,1.86,8.71-1.25,13.23-5.4,7.83-10,16.2-15,24.4,17.29,21.83,31.15,45.08,43.42,69.33,21.89,43.28,39.14,88.42,54.2,134.45,2.39,7.32,4.61,14.7,6.83,22.08.58,1.94.84,4,1.38,6.63-9.24,1-17.9,2-26.58,2.81-31,2.91-61.94,5.71-92.9,8.64-25.14,2.37-50.28,4.75-75.39,7.4-8.43.9-15.92-.05-23.57-4.44-17.26-9.91-35.05-18.92-53.18-28.6,1.15-6.07,2.19-12,3.4-17.91,14.28-70,28.31-140.12,43.15-210,2.79-13.12,8.52-25.68,13.55-38.24a314.91,314.91,0,0,1,38-69C189.47,210.52,190.19,209.18,191,207.91Z" transform="translate(-60.74 -55)"/>
    <path d="M410.43,394.8c-.31,8.48-4.74,16.27-13.84,20.86-9.66,4.86-19.22,4-27.71-2.69A266,266,0,0,1,328,372.89c-41.6-50.31-64.19-108.28-69.52-173.16a62.87,62.87,0,0,1-.05-10.36A26.07,26.07,0,0,1,284,165.65a25.74,25.74,0,0,1,25.33,22.13c2.14,15,3,30.2,6.3,44.9,12.4,55.42,39.92,102,83.71,138.57C406.35,377.08,410.55,383.91,410.43,394.8Z" transform="translate(-60.74 -55)"/>
    <path d="M409.78,90.5c10.38-8,20.46-15.28,30-23.2,4.27-3.54,8.11-4.08,13-2,38.77,16.38,64.5,44.66,77.65,84.57,1.93,5.87,1,10.31-3.7,14.84-8.54,8.32-16.39,17.34-25.15,26.75l32.18,35.8-8.39,7.4-156.35-172L377.21,55Z" transform="translate(-60.74 -55)"/>
    <path d="M210.76,588c-6.77,10.74-13.18,21.73-20.39,32.17A314.52,314.52,0,0,1,129.15,686c-24,19.43-58.79,7.26-65-22.68-3-14.32.68-27.45,11.66-37.06,17.29-15.13,33.53-31.09,47.14-49.64.28-.38.89-.52,2-1.15,7.34,3.87,15.13,7.79,22.72,12.06a22.16,22.16,0,0,0,14.33,3c15.8-1.9,31.69-3,47.55-4.39Z" transform="translate(-60.74 -55)"/>
    <path d="M379,147.78l-15.29-13.26c5.47-15.38,15.13-27.14,29.44-36.58l95.42,104.91c-12.26,15.76-27.79,25-46.67,27.43-28,3.64-51.09-6-68.67-28.42-3.56-4.54-4.66-9-3.19-14.69C373.36,174.33,376,161.33,379,147.78Z" transform="translate(-60.74 -55)"/>
    <path d="M336.37,573.94c2.18,14.2,4.46,27.52,6.21,40.91,1.65,12.65,2.7,25.37,4.09,38,2.51,22.84-12.89,42.73-35.15,45.31-22.06,2.55-41.41-12.62-44.39-35.17-2.69-20.28-4.91-40.63-7.51-60.92-.83-6.52-2.21-13-3.52-20.5Z" transform="translate(-60.74 -55)"/>
    <path d="M450.49,377.33,418,389.85l-6.06-15.91,31.72-12.7c-.63-35.63,14.27-58.08,42.37-63,28.82-5.05,50.85,10.87,59.29,32.27a52.79,52.79,0,0,1-20.77,64.24,51.58,51.58,0,0,1-40.48,6.82C469.63,398.21,458.92,389.57,450.49,377.33ZM535,350.51a38.83,38.83,0,0,0-77.65-.83,38.83,38.83,0,1,0,77.65.83Z" transform="translate(-60.74 -55)"/>
    <path d="M633.68,735c5.45-.84,10.9-1.8,16.38-2.48,17.68-2.21,35.46-3.37,53.24-2A62.9,62.9,0,0,1,722.51,735c10.16,4.26,11.6,14,3.56,21.76-9.64,9.34-21.85,13.23-34.88,13.31-12.18.07-24.36-1.32-36.54-2.18-6.84-.47-13.67-1.17-21-1.8Z" transform="translate(-60.74 -55)"/>
    <path d="M478.74,685.08V654.42c5.8-.52,11.28-1.11,16.78-1.5,13.24-.93,26.48-2,39.74-2.54,10.31-.39,20,2.64,28.85,7.83a36.89,36.89,0,0,1,5.85,4.12c9.82,8.65,8.11,19.71-4.14,24.08a69.26,69.26,0,0,1-18.66,3.68c-21.84,1.39-43.52-.65-65.08-4.13C481.07,685.8,480.09,685.44,478.74,685.08Z" transform="translate(-60.74 -55)"/>
    <path d="M466.06,655.51v28.43c-.88.48-1.71,1.3-2.6,1.38-11.12.89-22.27,1.2-33.14-1.6a30.14,30.14,0,0,1-11.23-5.5c-5.72-4.64-5.09-12.6.8-17.05a22.59,22.59,0,0,1,4.84-2.67C434.07,654.53,454.45,653,466.06,655.51Z" transform="translate(-60.74 -55)"/>
    <path d="M620.85,735.38v29.21a10.85,10.85,0,0,1-2.81,1.12,96,96,0,0,1-35.53-2.62c-8.34-2.3-12.37-6.77-12.35-12.64,0-6,4-10.49,12.08-13C594.67,733.66,607.36,734.76,620.85,735.38Z" transform="translate(-60.74 -55)"/>
    <path d="M357.74,413.25l-10.29,4.31c-1.19-2.72-2.36-5.26-3.41-7.85-1-2.43-1.86-4.91-2.78-7.36C345.8,400.81,347.91,402.21,357.74,413.25Z" transform="translate(-60.74 -55)"/>
  </g>
</svg>
