<svg xmlns="http://www.w3.org/2000/svg" viewBox="0 0 566.75 714.97" class="det-svg det8">
  <link xmlns="http://www.w3.org/1999/xhtml" rel="stylesheet" href="../../css/index.css" type="text/css" />
  <title>det8</title>
  <g>
    <path d="M403.43,292.79l2.84,4c2.88-2.86,5.39-5.29,7.82-7.79,7.4-7.6,14.85-15.17,22.11-22.9,2.37-2.52,4.69-3.66,8.19-2.61,17.78,5.34,35.6,10.56,54.48,16.14-5,5.52-9.48,10.42-14.36,15.79a51.43,51.43,0,0,0,5.08,3.51c9.85,5.26,20,9.72,31.07,11.83,13.84,2.63,21.37-1.05,26.23-14.18,2.67-7.21,4.12-14.93,5.46-22.54,1-5.79,1-11.76,1.46-18.29-4.4-.71-8.68-1.38-12.95-2.09s-8.58-1.45-13.06-2.22c-1-7.62-1-14.28,2.76-21.24,4-7.38,6.18-15.76,9.39-24.32,8.86-1.4,18.24-3.43,27.73-4.11,4.06-.29,8.37,2.1,12.49,3.5,3.38,1.14,5.5.85,5.32-4.13L372.43,118.91c1.43-3.64,2.61-6.62,4-10.13l43.68,16.66c5.64-11.65,11.23-22.69,16.32-34,2-4.39,4.86-6.35,9.39-6.65,41.14-2.72,76.3,10.27,105.31,39.75,4.06,4.13,5.13,8.14,3.23,13.81-3.77,11.24-6.79,22.72-10.36,34.9l43.21,16.84c-.71,2.82-1.31,5.21-2.22,8.8l45.66-6.49c1.69,5.57,2.14,63.17.53,74.3l-26.95-3.45c-1.64,11.43-2.73,22.25-4.89,32.86a116.42,116.42,0,0,1-7,22.15c-13.52,31.76-42.41,47.59-76.48,42.4-20.52-3.13-39.28-10.95-57-21.41a19.09,19.09,0,0,1-2.35-2.18c4.06-4.25,8-8.44,12.27-12.89L465.39,320c-1,.34-2,.37-2.36.85-5.19,6.44-10.77,12.63-15.34,19.49-15.25,22.88-27.44,47.44-39.42,72.79,1.76,2.38,3.47,4.92,5.41,7.27q35.51,43.2,71,86.39a29.39,29.39,0,0,1,5.62,10c10.55,36.26,20.86,72.58,31.21,108.89.48,1.7.8,3.44,1.37,6-42.32,10.66-85,16.24-128.19,18.4-70,3.52-139-2.32-207.4-24,2.37-2.56,4.28-4.48,6-6.54C202.26,609,211.78,599,219.89,588c20.2-27.41,27.2-58.17,21.31-91.82-1.6-9.17-2.5-18.46-4-27.64-2.28-13.55-.72-26.84,2.35-40,10.17-43.82,19-88,34.46-130.43a18.1,18.1,0,0,0,.3-3.39c-3.06,3.56-5.47,6.19-7.69,9-22.18,27.78-38.06,59.07-50.94,92-2.17,5.54-4,11.19-6.26,16.72C204,425.76,190,432.15,177,427.25a24.76,24.76,0,0,1-14.74-31.79c18.1-51.46,42.17-99.62,79.8-139.92,17.86-19.13,38.16-35,63.27-43.69,19-6.57,38-7.39,56.89.26a30.83,30.83,0,0,0,3.66,1.1c.23.07.51-.07,1.15-.19l3.87-9.77a62.43,62.43,0,0,1,4.79,4c11.37,11.69,22.53,23.59,34.12,35.06,3.38,3.36,3.49,6.24,2.09,10.34-3.95,11.49-7.54,23.11-11.24,34.68-.91,2.84-2,5.87,3,5.65ZM561,213.53c-.81,4.43.64,5.55,3.64,5.13,4.61-.65,9.22-1.27,13.82-1.94,11.26-1.63,22.51-3.23,33.75-4.95,4.62-.7,4.6-.82,3-6.33ZM353.92,364.19a9.33,9.33,0,0,0,8.82,9.08c4.84.07,9.45-4.76,9.19-9.63a9.52,9.52,0,0,0-9.35-8.6A9.16,9.16,0,0,0,353.92,364.19Zm26.41-49.92a9.36,9.36,0,0,0,8.62,9.28c4.78.21,9.53-4.57,9.39-9.43a9.44,9.44,0,0,0-9.14-8.79A9.14,9.14,0,0,0,380.33,314.27ZM355.05,428.44a9.3,9.3,0,0,0,9.14-8.68,9.16,9.16,0,0,0-9.45-9.07,8.79,8.79,0,0,0-8.58,9A9,9,0,0,0,355.05,428.44Zm16.59,59.12a9.07,9.07,0,0,0,8.85-8.89,9,9,0,1,0-17.9.2A9.08,9.08,0,0,0,371.64,487.56Zm179-266.9c.58-4.86-1.36-5.7-4.9-5s-5.15,2-2.72,5.72c1.22,0,2.48.09,3.71,0S549.18,220.94,550.63,220.66Z" transform="translate(-160.78 -32)" />
    <path d="M649.66,32h76c1.83,5.8,2.69,695,1,713.6-5.43,1.47-65.79,1.93-76.94.52Z" transform="translate(-160.78 -32)" />
    <path d="M416.64,142.15c17.74,6.85,34.84,13.46,51.95,20q28.59,11,57.18,22c7,2.71,6.81,2.75,7.09,9.92,1.21,31.16-20.8,63.18-57.38,69.86a24.28,24.28,0,0,1-9.81-.52c-6.26-1.53-12.43-3.53-18.55-5.56-3.93-1.31-7.55-2-10.72,2.74l-19-11.44c2.23-5,.61-8.3-3-11.17-2.81-2.25-4.93-5.39-7.78-7.56-8.7-6.64-12.06-15.82-13.23-26.18C390.66,180,398.5,159.62,416.64,142.15Zm59.77,100.37c-6-18.67-30.28-32-53.75-29.51v6.91c9.54,2.34,18.45,3.88,26.9,6.77,8.71,3,15.65,8.77,18.81,17.9,2.35-.36,3.88-.5,5.36-.87A15.67,15.67,0,0,0,476.41,242.52Z" transform="translate(-160.78 -32)" />
    <path d="M355.54,661.06l-19.15,23.52c-12.08,14.84-23.93,29.87-36.27,44.48a38.91,38.91,0,0,1-61.73-2.18c-9.3-12.82-10.15-30.64-1.07-43.69C244,673.66,251.74,665,259,655.82c1.65-2.09,3.6-2.46,6.14-2.21,22.61,2.22,45.22,4.42,67.85,6.43C339.86,660.66,346.82,660.69,355.54,661.06Z" transform="translate(-160.78 -32)" />
    <path d="M396,660.32l76.61-8.17c.23,2.11.54,4.09.63,6.07.71,14.71,1.63,29.41,2,44.13.46,18.45-10.42,33.36-27.6,38.59-23.16,7.06-47.73-8.72-50-32.76-1.42-15.15-1.54-30.43-2.21-45.66A8.44,8.44,0,0,1,396,660.32Z" transform="translate(-160.78 -32)" />
    <path d="M403.66,293c3.67-12.33,7.35-24.66,11.2-37.59l16.59,9.79c-3.35,3.61-6.28,7.06-9.51,10.19-6.07,5.89-12.33,11.61-18.51,17.4Z" transform="translate(-160.78 -32)" />
  </g>
</svg>
