<svg xmlns="http://www.w3.org/2000/svg" viewBox="0 0 545.67 609.63" class="det-svg det9">
  <link xmlns="http://www.w3.org/1999/xhtml" rel="stylesheet" href="../../css/index.css" type="text/css" />
  <title>det9</title>
  <g>
    <path d="M427.67,573.15H508c.18,3,.42,5.14.42,7.27q0,71.77,0,143.55a36,36,0,0,1-.08,4.41c-.77,6.17-4.95,10.15-11.19,10.69-1.71.15-3.44.06-5.15.06H342.58c-1.71,0-3.44.08-5.15-.07-6.24-.54-10.38-4.54-11.06-10.75a55.09,55.09,0,0,1-.08-5.89V611.22c-3.56-.18-6.66-.34-9.76-.48-19.92-.93-39.58-3.39-58.41-10.36-7.85-2.91-15.31-6.58-21.29-12.74a21.65,21.65,0,0,1-6.58-15.79c.09-48.34-.18-96.68.12-145,.26-41.76,34.45-80.72,76.11-87,18.57-2.8,37.19-3,55.41,2.53a92,92,0,0,1,65.74,88c.19,44.41,0,88.82,0,133.24Z" transform="translate(-230.22 -132)"/>
    <path d="M245.1,369.17A75,75,0,0,1,253.94,332a123.56,123.56,0,0,1,52.46-53.09c9.24-5,19.05-7.72,29.66-7.17,2.38.12,4.78,0,8.53,0-5.28-12.16-10.1-23.28-15.44-35.59,3.23.48,5.5.79,7.75,1.17,18.86,3.15,37.62,7.08,56.58,9.27,23.41,2.71,46.43-1.92,69.33-6.38,6.69-1.31,13.35-2.72,21.65-4.41-6,13.65-11.37,26-16.86,38.58,2.33,1.67,4.36,3,6.25,4.5,8.57,6.82,12.76,16.19,14.09,26.66,1.2,9.46,1.23,19.06,1.86,28.6.84,12.71,1.35,25.46,2.81,38.1.65,5.73,3,11.34,5,16.83s6,9.16,11.8,10c8.46,1.19,17,2,25.5,2.66,3.4.28,6.86-.34,10.29-.29a23.58,23.58,0,0,1,23.51,22.7c.69,11.95-8.57,23.31-20.93,24.41-19.42,1.74-38.83,1.42-57.32-5.73-7.44-2.87-14.31-7.23-21.74-11.07v61.95h8.95c28.47,0,56.94-.1,85.41,0,17.54.09,31.11,10,35.89,26.16a47,47,0,0,1,1.7,13c.11,53.51-.09,107,.15,160.51.09,20.81-13.06,34.59-28.34,38.13C548.8,737,527.17,720,526.63,695.68c0-1.72,0-3.44,0-5.15V568.05c-31-.7-61.74.1-93.29-.46v-9.23c0-42.21.12-84.43,0-126.64-.16-42-25.38-79.72-65-92.65-40.08-13.1-78.51-9.27-111.83,19.68C252.85,361.94,249.34,365.29,245.1,369.17Z" transform="translate(-230.22 -132)"/>
    <path d="M733,741.63H713.82c-.8-21.85-.25-43.58-.35-65.29-.1-22.09,0-44.18,0-66.27V478.47H482V460.91H775.9v17.35H733Z" transform="translate(-230.22 -132)"/>
    <path d="M337.43,183.58c.81-4,1.38-6.81,2-10.08l43.16,6.71c.74-2.32,1.58-4.52,2.14-6.79,2.19-8.79,4.73-17.53,6.28-26.44,1-6.06,4.35-8.68,9.78-10.24a115.24,115.24,0,0,1,40-4.49c20.59,1.42,40.27,6.28,57.78,17.5,14.76,9.46,11.84,6.84,10.85,21.51-.58,8.56-1.3,17.11-1.93,25.66a23.15,23.15,0,0,0,.3,3.06c7,1.2,14.1,2.46,21.25,3.66s14.39,2.33,22,3.56c-.56,3.54-1,6.35-1.59,10.1Z" transform="translate(-230.22 -132)"/>
    <path d="M500,215c4.6,24.38-1.47,44.9-18.31,62.54a22.54,22.54,0,0,1-2.88-1.61c-1.35-1-2.61-2.18-4.35-3.66,6.28-14.38,12.53-28.66,19.43-44.46-4.13.9-7,1.52-9.92,2.18-22.92,5.25-45.93,10-69.48,11.52-15,1-29.78-1-45.06-3.58a62.31,62.31,0,0,1,8.86-42.29Z" transform="translate(-230.22 -132)"/>
    <path d="M673,334.83H514.83c-.5,9.91-.18,19.62-.23,29.31s0,19.59,0,29.37c-7.2,0-8-.42-8-5.64-.09-19.4,0-38.79.06-58.18a15.93,15.93,0,0,1,.56-2.69H681.74V435.28H572.86c.37-2.37.72-4.63,1.18-7.61h98.33C674.23,421.92,674.66,344.57,673,334.83Z" transform="translate(-230.22 -132)"/>
    <path d="M691.13,441.35v7.74c-5,1.63-117.67,2.23-129.9.59,1.7-1.65,3.26-2.76,4.28-4.25,2.55-3.72,6-4.2,10.22-4.16,16.93.18,33.87.08,50.8.08h64.6Z" transform="translate(-230.22 -132)"/>
  </g>
</svg>
