<svg xmlns="http://www.w3.org/2000/svg" xmlns:xlink="http://www.w3.org/1999/xlink" viewBox="0 0 702 424">
  <defs>
    <linearGradient id="a"
                    data-name="gradient 12"
                    x1="36.99"
                    y1="384.85"
                    x2="738.93"
                    y2="384.85"
                    gradientUnits="userSpaceOnUse">
      <stop offset="0" stop-color="#00b4d5" />
      <stop offset="0" stop-color="#85cee9" />
      <stop offset="0.78" stop-color="#006ab0" />
    </linearGradient>
    <linearGradient id="b"
                    x1="37.16"
                    y1="545.05"
                    x2="99.63"
                    y2="545.05"
                    xlink:href="#a" />
    <linearGradient id="c"
                    x1="37.24"
                    y1="226.01"
                    x2="99.62"
                    y2="226.01"
                    xlink:href="#a" />
  </defs>
  <title>arrow-item</title>
  <g>
    <path d="M37,514.22V255.43a4.62,4.62,0,0,1,.44.85c3.62,14.12,12.43,23.86,25.34,30.18,8.69,4.25,18,6.55,27.44,8.08,16.33,2.64,32.81,3.28,49.31,3.3q138.81.12,277.6.12,48.69,0,97.37,0h2.25C513,282,509.21,266.2,505.36,250L738.93,384.85,505.37,519.7c3.82-16.13,7.56-31.89,11.34-47.85-.76,0-1.4-.11-2.05-.11q-118,0-236.1,0-72.56,0-145.11.2a274.35,274.35,0,0,0-43.22,3.2c-10.35,1.68-20.44,4.25-29.75,9.29-11.81,6.38-19.67,15.87-23,29a2,2,0,0,1-.14.41A5,5,0,0,1,37,514.22Z" transform="translate(-36.99 -174.03)" style="fill: url(#a)" />
    <path d="M99.61,545.2v47.89c0,2.49.38,2.82-2.66,2.42a114.89,114.89,0,0,1-28.06-7C60.06,585,52.18,580,46.23,572.41a42.11,42.11,0,0,1-9-24c-1.09-19.06,6.89-33.38,23.4-42.89,9-5.16,18.76-7.93,28.85-9.78,2.8-.51,5.65-.76,8.45-1.27,1.39-.25,1.67.25,1.67,1.5,0,8.61,0,17.22,0,25.83Z" transform="translate(-36.99 -174.03)" style="fill: url(#b)" />
    <path d="M99.61,225.93V272.5c0,2.78,0,2.87-2.68,2.53-12.29-1.61-24.25-4.41-35.27-10.36-11.4-6.16-19.28-15.16-22.95-27.82-4.84-16.66,2.68-35.75,16.83-45.6a75.23,75.23,0,0,1,26.34-11.33c5.35-1.25,10.82-2,16.23-3,1.34-.24,1.51.52,1.51,1.6q0,13,0,26Z" transform="translate(-36.99 -174.03)" style="fill: url(#c)" />
    <path d="M130.88,598c-2.83,0-5.58.1-8.31,0-3.24-.16-6.46-.56-9.69-.78-1-.07-1.42-.45-1.35-1.42,0-.29,0-.58,0-.87V495.25a3.45,3.45,0,0,1,.06-1.29c.19-.4.61-1,1-1,6.06-.5,12.12-.93,18.32-1.38Z" transform="translate(-36.99 -174.03)" style="fill: #006ab0" />
    <path d="M130.91,174V277.75a12.61,12.61,0,0,1-1.33.06c-5.45-.33-10.9-.71-16.35-1-1.34-.07-1.72-.66-1.71-1.91,0-5.66,0-11.32,0-17v-79.8c0-2.53,0-2.63,2.47-2.84C119.58,174.81,125.16,174.45,130.91,174Z" transform="translate(-36.99 -174.03)" style="fill: #006ab0" />
  </g>
</svg>
