<svg xmlns="http://www.w3.org/2000/svg" viewBox="0 0 393.5 393.5">
  <title>arrow-up</title>
  <g>
    <path d="M3.25,199.83c0,108.46,88.12,196.92,196.92,196.92s196.58-88.12,196.58-196.92S308.63,3.25,200.17,3.25,3.25,91.37,3.25,199.83Zm366.05,0C369.3,293,293.38,369,200.17,369S31,293,31,199.83,107,30.7,200.17,30.7,369.3,106.62,369.3,199.83Z" transform="translate(-3.25 -3.25)"/>
    <path d="M101.88,218.47a13.58,13.58,0,0,0-4.07,9.83,14.16,14.16,0,0,0,4.07,9.83,13.92,13.92,0,0,0,19.66,0l79.65-79.65,79.65,79.65a13.9,13.9,0,0,0,19.65-19.66L211,129a13.93,13.93,0,0,0-19.66,0Z" transform="translate(-3.25 -3.25)"/>
  </g>
</svg>
