<svg xmlns="http://www.w3.org/2000/svg" viewBox="0 0 584 236" class="arrow-serv">
  <link xmlns="http://www.w3.org/1999/xhtml" rel="stylesheet" href="../../css/index.css" type="text/css" />>
  <title>arrow-serv</title>
  <path d="M6.85,265h244l.35-.62c-3.23-2.8-6.48-5.58-9.68-8.42-2.57-2.29-5-4.71-7.63-6.94-4.11-3.53-8.35-6.92-12.47-10.44-2.34-2-4.48-4.21-6.82-6.21-2-1.71-4.22-3.16-6.21-4.88-2.9-2.52-5.65-5.22-8.53-7.77-2.22-2-4.57-3.77-6.8-5.71-4.35-3.8-8.62-7.71-13-11.46s-8.74-7.13-13-10.79c-2.16-1.83-4.06-4-6.2-5.82s-4.66-3.74-7.55-6c1.28-.11,2-.23,2.66-.23q51.09,0,102.18,0c3.08,0,4.63,2.18,6.54,3.77,7.4,6.14,14.67,12.44,21.95,18.72,4.53,3.92,9,8,13.49,11.87,5.84,5,11.75,10,17.6,15,4.14,3.56,8.22,7.19,12.37,10.76,6,5.2,12.13,10.34,18.15,15.55,4.53,3.92,9,8,13.5,11.87,5.83,5,11.75,10,17.59,15,4.22,3.62,8.38,7.29,12.56,10.95l5.14,4.52c-3.46,3.05-6.74,6-10.06,8.85s-6.48,5.47-9.71,8.23q-9.28,7.94-18.53,15.92c-4.4,3.8-8.71,7.7-13.12,11.5-5.78,5-11.63,9.85-17.41,14.81-4.38,3.77-8.66,7.64-13,11.41-6,5.15-12,10.23-18,15.38-4.34,3.74-8.6,7.57-12.94,11.31-5.84,5-11.73,10-17.59,15-2.16,1.85-4.29,3.73-6.43,5.59H153.82c1.57-1.65,3-3.44,4.73-4.93,6.13-5.37,12.35-10.64,18.52-15.95,2.9-2.49,5.74-5,8.67-7.49,4.56-3.82,9.24-7.5,13.74-11.38,4.3-3.71,8.39-7.67,12.66-11.41,4.5-3.93,9.13-7.71,13.65-11.61,3.22-2.77,6.31-5.7,9.56-8.43,2.8-2.36,5.85-4.42,8.62-6.82,2.48-2.16,4.72-4.6,7.47-7.31H6.85Z" transform="translate(-6.85 -179.58)" />
  <path d="M349.26,415.62c1.94-2,3.76-4.19,5.86-6.05,4.6-4.08,9.34-8,14-12,6-5.12,12-10.23,18-15.38,4.34-3.74,8.6-7.57,12.94-11.31,5.84-5,11.75-10,17.59-15,4.34-3.74,8.61-7.56,12.94-11.3,6-5.21,12.12-10.36,18.15-15.57,4.34-3.75,8.6-7.57,12.94-11.31,5.85-5,11.75-10,17.59-15,1.83-1.58,3.57-3.28,5.52-5.08-3.12-2.79-6.18-5.57-9.3-8.27-3.27-2.84-6.6-5.6-9.9-8.41-5.93-5.05-11.88-10.09-17.79-15.18-4.27-3.68-8.48-7.44-12.75-11.13-6.1-5.26-12.24-10.48-18.34-15.74-4.27-3.69-8.47-7.45-12.75-11.13-5.91-5.09-11.87-10.11-17.78-15.19-4.28-3.68-8.48-7.45-12.75-11.13-6.1-5.27-12.24-10.48-18.34-15.75-2-1.74-3.95-3.58-6.42-5.83,1.37-.11,2.09-.22,2.8-.22q50.7,0,101.41.06a6.65,6.65,0,0,1,3.94,1.44c7.64,6.41,15.18,12.93,22.7,19.47,5.84,5.06,11.58,10.23,17.43,15.27,6.89,5.94,13.87,11.76,20.77,17.69,4.48,3.84,8.85,7.81,13.32,11.67,5.91,5.09,11.87,10.11,17.78,15.2,4.34,3.74,8.6,7.57,12.94,11.3,5.84,5,11.75,10,17.58,15,4.12,3.55,8.15,7.21,12.28,10.86-4.11,3.65-8.15,7.31-12.26,10.86-4.39,3.79-8.87,7.48-13.28,11.24q-9.11,7.75-18.17,15.55c-4.33,3.74-8.6,7.57-12.93,11.32-6,5.2-12.12,10.35-18.16,15.56-4.27,3.68-8.47,7.45-12.75,11.13-5.91,5.08-11.87,10.1-17.78,15.19-4.34,3.74-8.61,7.55-12.93,11.32q-9.09,7.92-18.21,15.83Z" transform="translate(-6.85 -179.58)" />
</svg>
