<!-- <svg xmlns="http://www.w3.org/2000/svg" viewBox="0 0 494 561" fill="#11a8fd"> -->
<svg xmlns="http://www.w3.org/2000/svg" viewBox="0 0 494 561" fill="#f4b664">
  <title>bag-money</title>
  <path d="M352,234.61c11,12.13,23.44,34.33,33.26,36.44,10.49,2.25,19.13-1.58,26-9.46a23.36,23.36,0,0,0,5.52-13.89c.55-7.33-1.38-14.18-4.34-20.68-2.3-5.06-5.43-9.75-8.1-14.65-.28-.52-.25-1.77.08-2a47.92,47.92,0,0,0,12.54-12,5.67,5.67,0,0,1,.67-.53c3.55,2.09,7.32,4,10.75,6.4,8.56,6,17.1,12.08,25.41,18.43,10.6,8.1,19.88,17.66,28.77,27.55a230.1,230.1,0,0,1,19.6,25.42,212,212,0,0,1,16.47,28.14c3.94,8.38,7.69,16.87,11.07,25.48,2.74,7,5,14.14,7.11,21.31,1.46,4.92,2.4,10,3.52,15,.78,3.51,1.6,7,2.17,10.58.75,4.62,1.32,9.28,1.88,13.93s1,9.32,1.52,14c.12,1.21.11,2.43.11,3.65,0,8.6.17,17.21-.08,25.81-.15,5-.93,10-1.51,15-.5,4.25-.84,8.56-1.75,12.72-1.41,6.39-3,12.76-5,19a110.06,110.06,0,0,1-12.11,27c-3.79,5.91-8,11.56-12.35,17.11-7,9-15.78,16.14-25.11,22.56a154.88,154.88,0,0,1-24.67,13.68,230.54,230.54,0,0,1-34.48,12q-8.81,2.35-17.77,4.1c-5.45,1.07-11,1.76-16.47,2.58-5.3.8-10.59,1.6-15.89,2.33-2.66.37-5.33.67-8,.86-4.9.35-9.81.56-14.71.89-7.45.49-14.89,1.06-22.34,1.52-2.36.15-4.74.09-7.11.09-18.56,0-37.13.09-55.69,0-7.82-.06-15.64-.44-23.46-.86q-10.35-.57-20.68-1.61c-6-.61-12-1.54-17.93-2.36s-11.84-1.45-17.69-2.53c-6.69-1.24-13.36-2.67-19.94-4.4-7.42-1.95-14.8-4.11-22.07-6.58a164.32,164.32,0,0,1-26-11.42,147.8,147.8,0,0,1-22.78-15,124,124,0,0,1-35.28-46.19,129.37,129.37,0,0,1-8.63-26.46c-1.06-5.29-2.3-10.56-3.12-15.9a110.57,110.57,0,0,1-1.28-13.83c-.27-10.95-.45-21.91-.31-32.87.06-4.79.91-9.59,1.49-14.37.63-5.19,1.19-10.39,2.08-15.52,1-6,2.19-12,3.7-17.84,1.73-6.71,3.74-13.37,6-19.95,2.09-6.2,4.47-12.31,6.95-18.37a204.18,204.18,0,0,1,15.69-31c5.07-8.13,10.32-16.2,16.13-23.8s12.2-14.69,18.67-21.71A194.64,194.64,0,0,1,154.88,214c7.58-5.25,15.39-10.17,23.09-15.24,1.6-1.05,2.58-.91,3.89.84a46.62,46.62,0,0,0,18,14.42,50,50,0,0,0,5.31,1.76c.61.2,1.2.48,2.06.83-5.31,5.31-10.34,10.28-15.3,15.32-4.65,4.74-7.72,10.3-8.12,17.05-.65,10.91,3.57,19.37,13,25.06a26.1,26.1,0,0,0,32.12-4.38c7.09-7.24,14.21-14.45,21.49-21.49,7.89-7.62,16-15,24-22.54,2.45-2.3,4.87-4.65,7.44-6.81a5.5,5.5,0,0,1,3.18-1.31q23.69-.12,47.36,0c.88,0,2.62.1,2.62.78m30.46,127.27c3.45-5.29,9.77-9.54,7.22-11-2-1.16-3.84-2.47-5.82-3.59a104.47,104.47,0,0,0-22.45-9.65,87.69,87.69,0,0,0-17.9-3.4c-1.79-.14-2.54-.67-2.47-2.55.13-3.3,0-6.6,0-10H309.38c0,3.57,0,6.95,0,10.32,0,1.52-.28,2.16-3.71,1.63-9.77,1.55-19.18,4-27.58,9.31-14.18,9-20.9,22.11-21.49,38.53a46.86,46.86,0,0,0,2.29,15.43,35.72,35.72,0,0,0,12.83,18.23c10.47,8,22.82,11.51,35.34,14.54,1.76.43,2.37,1.08,2.35,2.93-.08,11.18,0,22.35,0,33.53,0,3.32,0,6.64,0,10,0,1.51-.4,2.12-3.2.63a57.94,57.94,0,0,1-23.55-8.93c-5.24-3.33-10.27-7-15.58-10.65-2.95,3.51-2.25,4.57-7,10.71-4.87,6.29-8.26,7.76-9.86,9.36.57.55.89.9,1.25,1.2a111.31,111.31,0,0,0,23.74,15.43,91.52,91.52,0,0,0,22,7.46q4.83.91,9.7,1.62c1.73.25,2.72.75,2.6,2.86-.21,3.58-.06,7.18-.06,10.77v4.13h14.69c0-4.89.13-9.68-.05-14.46-.08-2,.76-2.78,2.54-2.9a75.39,75.39,0,0,0,18.29-3.58,52.35,52.35,0,0,0,16.74-8.76c8.78-7.06,14.41-16,16.23-27.38a52.64,52.64,0,0,0-1.14-23.11,36,36,0,0,0-11.05-17.39,58.52,58.52,0,0,0-16-9.82,129.23,129.23,0,0,0-23.14-7.28c-1.74-.38-2.53-1.11-2.52-3.13.11-13.61.06-27.23.05-40.85,0-2.21.46-2.62,2.66-2.16,2.48.51,5,1,7.41,1.69a79.31,79.31,0,0,1,23.05,10.91c1.09.76,1.8.87,2.58-.36" transform="translate(-51.73 -23.58)" />
  <path d="M381.93,134.58c-1.45-.08-2.64-.2-3.83-.2q-79.26,0-158.53,0a60.89,60.89,0,0,0-9.4,1c-1.17.18-1.65.08-2.15-1-5.4-11.94-10.88-23.85-16.31-35.78-4-8.85-8-17.72-12-26.57a14,14,0,0,1-.72-8.45,78.26,78.26,0,0,1,2.8-11.44,43.5,43.5,0,0,1,30.41-27.21,66.09,66.09,0,0,1,9.76-1.08,40,40,0,0,1,22.82,5.29,42.41,42.41,0,0,1,12.58,10.5c.24.31.41.69.81,1.36,11-13.82,25.22-19,41.88-17,11.55,1.41,21,7.24,28.54,16.69l3.09-3.37c4.77-5.18,10.59-8.6,17.12-11.2,6.9-2.75,14-2.79,21.07-2.18,7.71.66,14.71,3.88,20.89,8.65a44.12,44.12,0,0,1,13.34,16.6,34.55,34.55,0,0,1,3.68,14c0,2.58.32,5.24-.22,7.71-.61,2.83-2,5.49-3.08,8.2-2.05,5.06-4.17,10.09-6.21,15.15q-7.31,18.12-14.57,36.24C383.1,131.93,382.47,133.32,381.93,134.58Z" transform="translate(-51.73 -23.58)" />
  <path d="M248.64,203.36h-2.15c-10,0-19.92.07-29.87,0a25.28,25.28,0,0,1-17.77-7.3,27.1,27.1,0,0,1-8.28-13.91c-2.31-10.55,0-19.86,7.9-27.46a25,25,0,0,1,15.85-7.42c1.87-.12,3.74-.38,5.62-.38q79.76,0,159.53,0a28.83,28.83,0,0,1,26.81,18.9c4.07,11.79,0,25.37-9.74,32.26-4.8,3.41-10.18,5.58-16.28,5.39-3.27-.1-6.54,0-9.28,0,4.22,4.48,8.65,9,12.85,13.66,6.48,7.25,11.82,15.26,14.67,24.67,1.12,3.7,2.26,7.56-.06,11.29a9,9,0,0,1-8.33,4.41,8.62,8.62,0,0,1-7.93-5.28c-1-2.08-1.28-4.46-2-6.66-2.17-6.56-6.35-11.85-10.85-16.92-8-9-17.5-16.29-27.29-23.23a10.44,10.44,0,0,0-6.48-2c-18.22.1-36.45.13-54.67,0a9.72,9.72,0,0,0-7.35,2.85c-5.67,5.38-11.51,10.6-17.22,16s-11.28,10.63-16.84,16c-7.7,7.5-15.33,15.07-23,22.62-3.29,3.25-8,3.86-11.57,1.31-4.28-3-4.88-6.91-3.46-11.38a9.9,9.9,0,0,1,2.6-3.53c6.32-6.41,12.65-12.8,19.08-19.09,5.78-5.66,11.67-11.2,17.55-16.76,2.67-2.52,5.42-5,8.14-7.44Z" transform="translate(-51.73 -23.58)" />
  <path d="M324.06,440V420.32c0-2.11.57-2.49,2.56-1.68,4.33,1.74,8.79,3.23,12.95,5.3a17.39,17.39,0,0,1,10.09,15.11c.71,9.05-3.64,15.5-11.24,19-3.83,1.74-8.08,2.51-12.12,3.78-1.81.57-2.26-.16-2.25-1.84,0-6.64,0-13.28,0-19.91Z" transform="translate(-51.73 -23.58)" />
  <path d="M309.16,385c-6.07-2-11.75-3.79-16.58-7.45-4.24-3.2-6.74-7.37-6.77-12.81,0-3.22-.19-6.41,1.27-9.49,2.71-5.76,7.52-8.9,13.22-10.93a55.23,55.23,0,0,1,6.39-1.59c2.19-.49,2.69-.07,2.69,2.13q0,18.9,0,37.79C309.37,383.36,309.25,384.06,309.16,385Z" transform="translate(-51.73 -23.58)" />
</svg>
