<svg xmlns="http://www.w3.org/2000/svg" viewBox="0 0 476 502">
  <title>calendar</title>
  <path d="M482.51,87.36a35.4,35.4,0,0,0-25.69-10.64H420.28V49.82a42.78,42.78,0,0,0-13.42-31.65A44.42,44.42,0,0,0,374.59,5H356.32a44.41,44.41,0,0,0-32.26,13.17,42.75,42.75,0,0,0-13.42,31.65v26.9H201V49.82a42.76,42.76,0,0,0-13.43-31.65A44.38,44.38,0,0,0,155.32,5H137.05a44.4,44.4,0,0,0-32.26,13.17A42.75,42.75,0,0,0,91.37,49.82v26.9H54.82A35.46,35.46,0,0,0,29.13,87.36Q18.27,98,18.28,112.58V471.15q0,14.55,10.85,25.21A35.46,35.46,0,0,0,54.82,507h402a35.48,35.48,0,0,0,25.7-10.64q10.85-10.65,10.85-25.21V112.57Q493.36,98,482.51,87.36ZM137.05,471.14H54.82V390.46h82.23Zm0-98.6H54.82V282.9h82.23Zm0-107.58H54.82V184.29h82.23ZM130.63,136.8a8.51,8.51,0,0,1-2.71-6.3V49.83a8.55,8.55,0,0,1,2.71-6.31,8.86,8.86,0,0,1,6.42-2.66h18.27a8.86,8.86,0,0,1,6.42,2.66,8.56,8.56,0,0,1,2.72,6.31V130.5a8.52,8.52,0,0,1-2.72,6.3,8.81,8.81,0,0,1-6.42,2.66H137.05A8.8,8.8,0,0,1,130.63,136.8ZM246.68,471.14H155.32V390.46h91.36v80.68Zm0-98.6H155.32V282.9h91.36v89.64Zm0-107.58H155.32V184.29h91.36V265ZM356.32,471.14H265V390.46h91.36Zm0-98.6H265V282.9h91.36Zm0-107.58H265V184.29h91.36ZM349.9,136.8a8.51,8.51,0,0,1-2.71-6.3V49.83a8.55,8.55,0,0,1,2.71-6.31,8.86,8.86,0,0,1,6.42-2.66h18.27A8.89,8.89,0,0,1,381,43.52a8.55,8.55,0,0,1,2.71,6.31V130.5a8.55,8.55,0,0,1-2.71,6.3,8.85,8.85,0,0,1-6.43,2.66H356.32A8.79,8.79,0,0,1,349.9,136.8ZM456.81,471.14H374.58V390.46h82.23Zm0-98.6H374.58V282.9h82.23Zm0-107.58H374.58V184.29h82.23Z" transform="translate(-18.28 -5)"/>
</svg>
