<svg xmlns="http://www.w3.org/2000/svg" viewBox="0 0 490 336">
  <title>card</title>
  <path d="M496.58,92.29v49.07H5.88V92.29A16.35,16.35,0,0,1,22.23,75.93h458a16.36,16.36,0,0,1,16.36,16.36Z" transform="translate(-5.88 -75.93)" style="fill: #f4b664" />
  <rect y="71.48" width="490.7" height="71.64" style="fill: #191919" />
  <path d="M5.88,226.62v169A16.35,16.35,0,0,0,22.23,412h458a16.36,16.36,0,0,0,16.36-16.36v-169Zm17.48,27.27H118.1v18.65H23.36Zm163.39,61H22.59V296.25H186.75Zm52.72-42.37H144.72V253.89h94.75Zm128.3,0H273V253.89h94.75Zm114.26,0H387.28V253.89H482Z" transform="translate(-5.88 -75.93)" style="fill: #f4b664" />
</svg>
