<svg xmlns="http://www.w3.org/2000/svg" viewBox="0 0 369 506">
  <title>checkin</title>
  <path d="M445.33,188.32C445.33,86.59,362.74,4,261,4S76.7,86.59,76.7,188.32c0,83.46,58.25,158.23,138.24,179.1l15.65,41.73c-43.47,2.61-116.51,13-116.51,49.55,0,49.56,132.16,51.3,147.81,51.3s147.8-1.74,147.8-51.3c0-37.38-73.9-46.94-117.37-49.55l14.78-40.86C387.08,347.42,445.33,272.65,445.33,188.32ZM193.2,277l13-74.77-54.77-53,75.64-11.3L261,69.21l33.9,68.68,75.64,11.3-54.77,53,13,74.77L261,241.35ZM377.52,458.7c-8.7,8.7-51.3,21.74-117.37,21.74-65.21,0-107.81-13-117.37-21.74,7.82-7.82,43.47-19.12,97.37-20.86l9.56,25.21a10.49,10.49,0,0,0,10.44,7h0a11.3,11.3,0,0,0,10.43-7l8.69-25.21C334.92,439.58,369.69,450.88,377.52,458.7Z" transform="translate(-76.7 -4)" />
</svg>
