<svg xmlns="http://www.w3.org/2000/svg" viewBox="0 0 366 592" fill="#f4b664">
  <title>indevelop</title>
  <path d="M108,360.67a14.77,14.77,0,0,1,3.34-1.17c5.56-.6,11.13-1.07,16.71-1.56,1.92-.17,3.86-.18,5.78-.41a2,2,0,0,0,1.37-1c1.1-2.57,1.93-5.26,3.13-7.77,2.72-5.72,6.77-10,13.23-11.43a30.53,30.53,0,0,1,3-.45,10.35,10.35,0,0,0,7-3.63c.53-.63,1.07-1.23,1.61-1.84a7.65,7.65,0,0,1,6.13-2.91,10.26,10.26,0,0,0,8-3.48c1.14-1.17,2.28-2.34,3.34-3.57,1.36-1.59,2.61-3.24,2.85-5.45a5.85,5.85,0,0,1,.64-1.87c4.48-9.12,8.89-18.28,13.52-27.32,1.59-3.1,3.91-5.83,5.63-8.89,6.32-11.28,14.71-21,23.61-30.2a143.56,143.56,0,0,1,30.67-24.27c1.49-.87,3.07-1.58,4.84-2.48-1.07-.53-1.93-1-2.82-1.4A86.06,86.06,0,0,1,240,207.11a45.92,45.92,0,0,1-10.55-12.34c-3.45-6-6.78-12.07-9-18.64-1.62-4.78.78-8.51,5.82-8.77,12-.6,22.88-4.85,33.52-9.92,2.07-1,4-2.17,6.11-3.13a1.92,1.92,0,0,0,1.21-2c.26-6.56.53-13.12.91-19.67.5-8.48,2.92-16.48,6.17-24.27.44-1.06.7-2.19,1-3.29a22,22,0,0,1-3-1,48.18,48.18,0,0,1-6.46-3.36,53.14,53.14,0,0,1-11.63-10.93,17.93,17.93,0,0,1-4.35-10c-.37-4.87-.29-9.66,1.69-14.23A13.28,13.28,0,0,1,256,59.87a7.41,7.41,0,0,0,3.34-4.36A5.6,5.6,0,0,1,261.4,53,26.56,26.56,0,0,1,276,47.31c7.55-.55,15.13-.67,22.7-1.05a3.8,3.8,0,0,0,2.22-.92c3.09-2.88,6-5.91,9.14-8.76a26.83,26.83,0,0,1,3.57-2.23,4.15,4.15,0,0,0,1-1.05,30.54,30.54,0,0,1,2.68-4,208,208,0,0,1,25-21.66A16.28,16.28,0,0,1,349,4.79h8.24c1.3.21,2.6.39,3.89.62,8.24,1.41,16.11,3.83,23.12,8.56a9.81,9.81,0,0,1,4.45,5.6,3.64,3.64,0,0,0,1.74,2A33.53,33.53,0,0,0,396.16,24c2.61.78,5.47.88,7.93,2,5.81,2.54,11.44,5.48,17.15,8.26a5.76,5.76,0,0,1,3.2,4c1.35,5.32,2.86,10.6,4.09,15.94,1.89,8.27,3.75,16.59,4.09,25.1.38,9.91.46,19.83.68,29.75,0,1.52-.46,3.42.27,4.45s2.66,1.23,4.11,1.66a39.49,39.49,0,0,1,17.53,10.63c3,3.11,3.53,6.65,2.58,10.57-1,4.16-4.25,6.31-7.8,8a64.43,64.43,0,0,1-15.1,4.66c-3.66.77-7.34,1.47-11.07,2.21,0,4.18,0,8.25,0,12.32a2.09,2.09,0,0,0,.76,1.33c1.84,1.45,3.72,2.85,5.6,4.24a179,179,0,0,1,29.66,27.38,11.14,11.14,0,0,1,3,8.79c-.42,4-1.07,4.89-5.08,5.11-8.63.5-17.27.84-25.91,1.24l-1.78.08a1.56,1.56,0,0,0,.15.44c1.65,1.72,3.3,3.46,5,5.17a176.9,176.9,0,0,1,26.62,34.06c5.31,9,9.65,18.35,11.25,28.78.42,2.7.73,5.43,1.09,8.14v9.47c-.31,2.36-.56,4.72-.94,7.07-1.53,9.49-4.55,18.18-12.31,24.64-4.35,3.62-8.68,7.21-14.37,8.28-11.65,2.18-23.25,2.12-34.66-1.63-2-.64-3.95-1.2-6.05-1.84a14.25,14.25,0,0,0,0,2.2q.73,4.2,1.57,8.39a84.68,84.68,0,0,0,6,18.5,91.12,91.12,0,0,0,4.62,9.41A164.31,164.31,0,0,0,433,392.9a21.09,21.09,0,0,1,3.49,6c1.32,3.51.26,6.46-2.64,8.82-.78.64-1.57,1.27-2.38,1.92L432,411c3.92,9.27,7.89,18.51,11.74,27.8q8.43,20.36,16.71,40.75a71.89,71.89,0,0,1,3.22,9.18c1.31,5.19-.36,8.63-5.3,10.74a98.53,98.53,0,0,0-15.57,9,2.31,2.31,0,0,0-1.18,2.34q.54,15.1,1,30.21c.15,5.7.24,11.38-2.45,16.72-.59,1.16-.3,2.87-.09,4.28.3,1.95,1.15,3.82,1.33,5.76.72,8.15-.37,15.85-6,22.3-3.08,3.49-6.41,6.56-11.38,7-.85.07-1.69.26-2.54.39h-7.94a55.73,55.73,0,0,1-6.2-1.41c-7.74-2.7-14-7.57-19.3-13.7-3.57-4.08-5.93-8.59-6.35-14a15.18,15.18,0,0,0-5.07-10.43,8.51,8.51,0,0,1-2.39-3.47c-2.55-8.08-4.95-16.21-7.36-24.34a1.55,1.55,0,0,0-1.58-1.29c-3.25-.29-6.5-.52-9.72-1-6.23-.91-12.44-2-18.66-3a5,5,0,0,1-4.36-3.87c-1.8-5.88-3.64-11.74-5.48-17.6q-3.36-10.6-6.76-21.18a13.46,13.46,0,0,0-1.07-1.92,22.1,22.1,0,0,0-1,2.39c-.55,1.91-1.11,3.81-1.51,5.75-3.38,16.11-6.71,32.24-10.12,48.35-.67,3.17-1.58,6.3-2.52,9.41-.36,1.19-.9,2.54-2.38,2.73s-2,1.19-2.11,2.5c-.07.81-.11,1.63-.13,2.44-.09,5.32-2.76,8.9-7.52,11a37.12,37.12,0,0,1-14.69,3,11.76,11.76,0,0,1-4.65-.48,6.36,6.36,0,0,0-4.11-.28c-1.38.3-2.78.61-4.14,1-6.92,2-13.74,4.38-21.1,4.48-9.67.13-19.34.32-28.94-1.1a22.29,22.29,0,0,1-9.34-3.08c-4.58-3-5.58-10.42-1.62-13.68a67.7,67.7,0,0,1,22.35-12.52c2.31-.75,4.56-1.69,6.83-2.59a4.43,4.43,0,0,0,2.94-4.52,32.41,32.41,0,0,1,.46-5q2.58-15.64,5.26-31.28a2.08,2.08,0,0,0-.8-2.23c-3.58-3-7.21-6-10.6-9.21-3-2.83-5.68-5.95-8.45-9a4.53,4.53,0,0,1-.93-4.83c.72-2,1.4-4,2.09-6.05.25-.73.44-1.48.77-2.59l-3.73.91c-22.32,5.37-44.63,10.8-67,16.05-7.06,1.66-14.19,3.15-21.37,4.16-7,1-9.81-.89-11.44-7.72-2.27-9.48-4.28-19-5.78-28.67-1.13-7.22-1.34-14.58-1.86-21.89q-1.8-25.35-3.5-50.71c-.16-2.38-.35-4.75-.53-7.13Zm205.32-40.53L313,320c-2.54,2.69-5.12,5.34-7.61,8.09-5.44,6-10.2,12.54-13.36,20.11a13.9,13.9,0,0,0-.85,9.09c1.89,7.12,3.65,14.27,5.75,21.33Q313.15,433.3,329.56,488c2.95,9.88,5.84,19.78,8.77,29.66.2.68.19,1.49,1.3,1.6,4.6.45,9.19,1.15,13.8,1.48,11.85.84,23.7.37,35.56,0a72.93,72.93,0,0,0,34.27-9.14c7.44-4.18,14.65-8.77,22-13.09,3.27-1.92,6.67-3.61,10-5.47a2.13,2.13,0,0,0,.93-1.4,6.27,6.27,0,0,0-.2-2.55c-1-3.05-1.86-6.14-3.08-9.08q-13.34-32.17-26.81-64.3c-.75-1.81-1.54-3.61-2.31-5.42-4.1,2-8,4-12,5.75-7.05,3.15-14.33,5.52-22.12,5.92-3.75.2-7.43-.18-10.72-2.26-4.08-2.57-6.59-6.42-8.54-10.69-3.73-8.18-4.44-16.95-4.93-25.75,0-.07.11-.15,0,0,5.33-.3,10.53-.35,15.67-.92A80.13,80.13,0,0,0,408.13,375c1.1-.55,1.58-1.05,1-2.28-.45-1-.7-2-1.08-3-5.06-13.56-9.26-27.34-10.62-41.84a3,3,0,0,0-1.27-1.86c-4.47-3.1-9.23-5.82-13.45-9.23-6.21-5-12-10.49-18.06-15.74a2.53,2.53,0,0,0-1.68-.7c-6,.79-11.88,1.69-17.83,2.48a1.74,1.74,0,0,0-1.68,1.53c-1.38,5.15-2.69,10.33-4.29,15.41a126.59,126.59,0,0,1-4.54,12.1,7.46,7.46,0,0,1-6.25,4.58,32.94,32.94,0,0,1-7.75,0c-4.39-.59-8.35-5.83-8-10.23C312.75,324.16,313.05,322.15,313.28,320.14ZM160.92,362.39l-.48.05c-.48,1.42-.92,2.86-1.45,4.25-1.29,3.36-2.39,6.82-4,10a6.5,6.5,0,0,1-7.18,3.78c-3.07-.56-6.74-4.27-7.2-7.38-.17-1.12-.55-1.91-1.78-1.77-5,.6-10,1.14-15,1.92-1.89.3-2.28,1.35-2,3.29,1.36,8.69,2.87,17.36,4,26.08,1.43,10.84,2.62,21.71,3.79,32.59a345.35,345.35,0,0,1,2.5,36.23c0,1.92.17,3.86.33,5.78.1,1.14.72,1.54,1.9,1.27,13.07-3,26.19-5.82,39.21-9,26.64-6.55,53.23-13.31,79.84-20,4.58-1.15,9.15-2.36,13.71-3.56,1.54-.4,2.58-1.24,2.35-3a8.6,8.6,0,0,1,2.73-7.45,10.54,10.54,0,0,0,3.15-6.62,64,64,0,0,0,.23-8.53q-.59-9.14-1.58-18.23a6.42,6.42,0,0,0-4.24-5.71c-2.81-1-3.82-3.09-4.24-5.78-1.21-7.84-2.43-15.67-3.72-23.5a120.46,120.46,0,0,0-6.13-22.62c-1.3-3.46-2.68-4-6.13-2.72-2.42.93-4.76,2.06-7.1,3.16-8.58,4-17.36,7.47-26.73,9.2-3.2.59-6.42,1.08-9.62,1.66a5.45,5.45,0,0,0-3.82,2.89,20,20,0,0,1-4.5,5.08,6.1,6.1,0,0,1-8-.24,28,28,0,0,1-3.38-3.88c-.68-.84-1.25-1.75-1.86-2.63-.28,2.12-.19,4.1-.3,6.08-.23,4.14-1.16,8.07-4.14,11.19s-7.08,3.62-10.66.91a21.32,21.32,0,0,1-7.15-9.69C162,364.41,161.4,363.41,160.92,362.39Zm99.92-92,.85-.18a8,8,0,0,1,1.13,2.24c.49,3.58.87,7.17,1.22,10.76.78,8.05,1.2,16.15,2.34,24.14a403.79,403.79,0,0,1,3.79,46.84q.4,15.42.95,30.83c.13,3.43.6,6.73,3.11,9.49a9.79,9.79,0,0,1,2,4.38,61.33,61.33,0,0,1,1.5,9.78c.41,8.38.44,16.79.85,25.18.12,2.44-.36,4.25-2.23,5.87a11.61,11.61,0,0,0-4.28,10.43c.11,1.06-.41,1.36-1.33,1.59q-18.08,4.68-36.13,9.43a2.56,2.56,0,0,0-1.59.94c-2.23,4.5-4.36,9-6.66,13.85,4.06,3.33,7.92,6.91,12.19,9.9,11.4,8,24.27,12.66,37.7,15.93a27.05,27.05,0,0,0,4.21.62,3.26,3.26,0,0,0,3.33-2,15.49,15.49,0,0,0,1-2.54c1.1-3.65,2.05-7.34,3.25-10.95q10-30,20.06-60a4.84,4.84,0,0,0,.17-2.76c-2.73-9-5.61-18-8.36-27.08-4.59-15.12-9.43-30.17-12.52-45.7-1.78-8.9-1.77-17.73,1.58-26.28,2.49-6.38,5.29-12.65,7.95-19,.9-2.15,1.85-4.29,2.7-6.46a3.15,3.15,0,0,0-.6-3.39c-3.52-4.29-7-8.61-10.42-13-7.68-9.82-15.41-19.6-22.88-29.57-2.89-3.86-2.71-3.35.25-6.7,5.56-6.29,11.4-12.33,17.12-18.47l1.14-1.26c-5.42-3.35-10.71-3.73-16.49-1a119.07,119.07,0,0,0-33.59,24c-14,13.93-25.1,29.9-34.23,47.31-2.9,5.53-5.52,11.22-8.08,16.92-1.44,3.19-1,4.32,2,6a11.65,11.65,0,0,1,4.39,4.34A56.39,56.39,0,0,1,204.76,340c.33,1.24.69,2.48,1,3.71,17.76-5.89,33.87-14.27,47.3-27.34,7.32,8.27,11.32,17.8,13.85,28.06a64,64,0,0,0,.05-9.18c-1.65-14.51-3.55-29-5.19-43.49-.67-5.91-.95-11.86-1.33-17.8A20.34,20.34,0,0,1,260.84,270.38Zm104.64,28.4c6.71,5.41,13.12,10.83,19.8,15.9A93.77,93.77,0,0,0,413.93,330c9,2.82,18.23,4.07,27.4,2.11,10.33-2.21,17.89-8.71,22.24-18.34,5.21-11.54,5.35-23.63,2.19-35.69-2.67-10.17-7.82-19.28-13.34-28.14-8.37-13.43-19.11-24.93-30-36.3a2,2,0,0,0-1.44-.4,8.26,8.26,0,0,0-1.73.55c-8.34,2.77-16.79,5.25-24.58,9.43a56.51,56.51,0,0,0-7.14,4.62c-1.65,1.24-1.71,1.91-.6,3.64q7.69,12,15.51,23.94a14.06,14.06,0,0,0,7.42,5.58,32,32,0,0,1,5.46,2.66,8.53,8.53,0,0,1,2.23,2.25,1.62,1.62,0,0,1,0,1.41c-.1.2-.85.26-1.22.14-1.59-.52-3.15-1.14-4.73-1.71-9.89-3.61-20-6.13-30.63-6.09-1.38,0-1.71.43-1.72,1.72,0,3.36,0,6.74-.39,10.06-1,9-4,17.2-10.3,23.94C367.62,296.38,366.69,297.45,365.48,298.78ZM226.68,173.56c1.94,4.08,3.55,7.64,5.31,11.12a56.69,56.69,0,0,0,15.69,19c8.18,6.44,17.52,10.62,27.29,14,3.07,1,6.15,2.12,9.2,3.21,2.12.76,3,2.32,3.14,4.57a11.79,11.79,0,0,1-2.37,7.87c-2.46,3.3-5.08,6.49-7.77,9.6s-5.76,6.29-8.75,9.53c11.43,14.38,22.41,29,34.68,43.06,1.38-1.82,2.56-3.33,3.7-4.86a13.51,13.51,0,0,0,3.06-9.65c-.57-5.56-1.09-11.13-1.7-16.69-.26-2.41-.53-4.9.63-7,1.76-3.25,1.51-6.43.55-9.75-3.26-11.41-6.16-22.89-5.74-34.91a2.41,2.41,0,0,0-1.07-1.61c-2.63-1.84-5.45-3.41-8-5.38-11.65-9.08-19.1-21.06-23.73-34.93-1-3-1.87-6.1-2.82-9.21-6.71,3-13.21,6-19.79,8.79S234.25,173,226.68,173.56Zm21.74,324.7a4.94,4.94,0,0,0-.22.68q-3.21,17.78-6.41,35.56a3.06,3.06,0,0,0,1.6,3.48,33.67,33.67,0,0,0,4.5,2.24c9.23,3.55,18.87,4.8,28.7,5a71.08,71.08,0,0,0,19.8-2.21,2.4,2.4,0,0,0,2-2.1c.39-2.1,1-4.16,1.4-6.25q4.13-19.77,8.22-39.56c2.4-11.57,6.13-22.74,10.13-33.84a3.82,3.82,0,0,0,.21-2.18c-2.38-8.09-4.82-16.16-7.26-24.23-.15-.5-.39-1-.75-1.85-.77,2-1.41,3.61-2,5.23C300.22,461,293,484,286.08,507.09c-.66,2.22-.66,2.16-3,1.94a76.48,76.48,0,0,1-18-4.38C259.49,502.7,254.05,500.44,248.42,498.26ZM266,57.27c.43.14.75.28,1.08.36,2.71.7,5.46,1.24,8.11,2.09,7.9,2.53,14.75,7,21.53,11.64,11.37,7.69,22.67,15.51,34,23.28a9,9,0,0,1,2.15,1.69c1,1.28,2.07,1.19,3.35.78a77.64,77.64,0,0,1,16.9-3.89c6.55-.59,13.16-1.21,19.63.08,10,2,18.86,6.5,27,12.57a19.38,19.38,0,0,0,6.09,3.32c4.34,1.22,8.82,1.93,13.25,2.81,1.16.23,2.34.31,3.51.46l.22-.38c-.89-1.09-1.72-2.23-2.66-3.26A115.28,115.28,0,0,0,400.8,92.11C382.06,79,361.53,69.57,340,62.21c-17.18-5.88-34.77-9.16-53-8.84A61.39,61.39,0,0,0,266,57.27ZM329.91,100c-4.55-3.19-8.9-6.28-13.29-9.31-2.76-1.9-5.58-3.72-8.4-5.54a5.47,5.47,0,0,0-5.65-.37c-1.42.68-3,1.06-4.37,1.79a12.28,12.28,0,0,0-3.89,2.73A109.62,109.62,0,0,0,287.45,99c-8.33,13.32-13.32,27.66-13.4,43.57-.05,10.18.57,20.2,4.07,29.9,7.74,21.45,22.14,36.15,43.83,43.47a49.72,49.72,0,0,0,9,2c2.29.32,3.43-1.58,2.45-3.72a5.44,5.44,0,0,0-1.47-1.9c-1.1-.89-2.34-1.6-3.5-2.43-3.66-2.64-7.53-5.05-10.93-8a67.25,67.25,0,0,1-16.91-22c-2.17-4.57-5.13-8.54-9.61-11.18-2.06-1.21-2.28-1.2-3.61.81-.93,1.4-1.55,1.49-2.2-.05a88.68,88.68,0,0,1-3.3-9.13,3.36,3.36,0,0,1,.69-2.67,69.76,69.76,0,0,1,5.14-5.18c.35-.33,1-.35,1.51-.51a6.53,6.53,0,0,1,.15,1.69c-.43,2.27-.11,3.05,1.84,4.07,3.34,1.75,4.3,1.21,4.54-2.59a73.84,73.84,0,0,1,.46-7.61c3.12-17.85,11.92-32.23,26.64-42.89C325.08,103.11,327.41,101.65,329.91,100Zm96.52-7.87.34-.16c0-.34,0-.69,0-1A248.68,248.68,0,0,0,421,50.18c-1.88-8.5-2.86-9.66-10.24-13.33l-.69-.32a111,111,0,0,0-36.86-10.11A56.6,56.6,0,0,1,366,25.17a3.26,3.26,0,0,1-2.57-2.9c-.18-1.13.23-1.8,1.39-1.88a28.65,28.65,0,0,1,3.21,0c3.86.19,7.72.43,11.58.64.46,0,.92,0,1.39,0l.1-.44c-.63-.47-1.24-1-1.92-1.4A79.49,79.49,0,0,0,361,11.72c-5.36-1.6-10.36-1-14.74,2.41-6.67,5.17-13.15,10.57-19.68,15.92A21.58,21.58,0,0,0,324,32.82a9.55,9.55,0,0,0-.87,1.68c.89.21,1.51.42,2.15.51,2.82.38,5.64.75,8.47,1.08,10.56,1.25,20.48,4.67,30.11,9,17.13,7.73,32.59,18.1,47.1,30,5.49,4.49,10.62,9.34,14.34,15.5A15.39,15.39,0,0,0,426.43,92.11ZM325,271.16l-.55.49a6.15,6.15,0,0,1-1.74-1.19c-1.4-2-2.75-4-4-6.11-1.12-1.93-2-4-3.11-5.94-.77-1.36-1.43-1.34-2.33,0a6.14,6.14,0,0,0-.71,1.34c-1.95,5.21-1.66,10.1,2.21,14.39,1.8,2,3.83,3.81,5.6,5.84a75.71,75.71,0,0,1,4.74,6.12c.29.41,0,1.2,0,1.82a10.86,10.86,0,0,1-1.8-.38,3.59,3.59,0,0,1-1.05-.87c-2.7-2.7-5.38-5.41-8.08-8.11a12.61,12.61,0,0,0-1.2-1l-.43.15c-.06,1.91-.26,3.82-.16,5.72a9.6,9.6,0,0,0,5.39,8.3,24,24,0,0,0,3.18,1.47,49,49,0,0,0,14.91,2.92c8.18.39,16.27,0,24.14-2.61a16.13,16.13,0,0,0,9.13-7.2,51.3,51.3,0,0,0,5.55-12.51c2.7-9.76,2.62-19-4.9-27-3.59-3.79-7.23-7.46-12.06-9.67-1.87-.85-2.54-.68-2.95,1.34a14.06,14.06,0,0,0-.3,5.72c.86,3.68-.65,6-3.56,7.76a49.7,49.7,0,0,1-5,2.84,12.17,12.17,0,0,1-7.31.95c-4.81-.88-8.24-4.51-9.19-10-.42-2.39-.38-4.86-.56-7.29-.16-2-.58-2.42-2.65-2.47-.87,0-1.74,0-2.6,0-4.38.2-7,2.64-7.38,7a26.55,26.55,0,0,0,1.44,12.33c1.61,4.15,3.78,8.08,5.69,12.12C324,268.69,324.5,269.93,325,271.16Zm48.15,256.72c.12.49.18.78.27,1.06,2.32,6.84,4.87,13.6,6.87,20.52,1.28,4.44,3.94,6.63,8.3,7.18.3,0,.6.11.9.16a102.53,102.53,0,0,0,25.42.83,49.91,49.91,0,0,0,19.33-5.07,2.21,2.21,0,0,0,1.47-2.2c-.05-11-.06-22-.11-33,0-1.18-.18-2.37-.3-3.85-2.87,1.21-5.42,2.31-8,3.36-6.2,2.52-12.3,5.38-18.65,7.45-7.35,2.39-15.15,2.3-22.81,2.8C381.72,527.42,377.56,527.63,373.19,527.88ZM356.71,214.42c10.92-.32,19.3-1.06,27.06-5,19.83-10.06,31.6-26,33.78-48.19,1.79-18.28-3.9-34.4-16.53-47.8-9.82-10.43-22-16.65-36.29-17.84-17.51-1.45-32.85,4.13-45.71,16C307.75,122,301.53,135,301,150.38a62.23,62.23,0,0,0,9.62,36C321.77,204.2,338,213.7,356.71,214.42Zm10.16,22.87c1.19,1.39,2.45,2.85,3.69,4.33a35.39,35.39,0,0,1,6.26,9.87c1.11,2.85,1.93,3.3,5,3.51,4,.28,8,.73,12,1.12,1.53.15,3.05.33,4.88.53-.4-.79-.59-1.25-.85-1.68-1.65-2.74-3.33-5.47-5-8.22-3.69-6.2-7.41-12.39-11-18.63-1.12-1.94-.86-3.24.78-4.76a22.51,22.51,0,0,1,3.77-2.83,117.64,117.64,0,0,1,43.08-14.95c6.67-1,13.46-1.12,20.2-1.66,2-.17,4.07-.41,6.11-.61l.1-.52a22.74,22.74,0,0,0-1.93-2.5c-5.15-5.14-10.16-10.43-15.58-15.28-4.88-4.36-10.16-8.28-15.37-12.27-1.89-1.44-2.42-1.16-3.38,1-.35.79-.68,1.58-1,2.37-7.09,15.84-17.84,28.17-34,35.36a30,30,0,0,0-5.26,3.05,4.09,4.09,0,0,0-1.63,2.57,20.42,20.42,0,0,1-3.47,9.66C372,230.28,369.43,233.66,366.87,237.29Zm0,149.77c.15,1.56.31,3,.44,4.46a41.24,41.24,0,0,0,6.43,19c3.81,5.9,8.91,8.44,16.15,7.57,14.11-1.7,26.42-7.75,38.36-14.86,1.8-1.07,1.83-1.33.56-3.11-3.92-5.45-7.86-10.88-11.89-16.25a60.77,60.77,0,0,0-4.68-5.22,2.68,2.68,0,0,0-3.17-.68,151.55,151.55,0,0,1-31.62,7.75C374,386.21,370.51,386.6,366.87,387.06ZM323.78,40.38c-1,0-2.42,0-3.78.18-4.19.44-8.09,1.54-11,5-1.19,1.43-1.11,2,.71,2.53,2.14.63,4.31,1.17,6.49,1.65A235.4,235.4,0,0,1,365,65.9c19.54,9,37.52,20.34,52.67,35.85,1.91,2,3.95,3.81,6,5.59,1.83,1.55,2.76,1.16,3.12-1.16a12.77,12.77,0,0,0-1.37-8.41,55.94,55.94,0,0,0-9.8-12.42C397.27,67,375.36,54.27,350.92,45.76,342.25,42.75,333.37,40.58,323.78,40.38ZM182,341.63l.68,0a34.1,34.1,0,0,1,1,3.52,24,24,0,0,0,3.83,10c3.4,4.92,6.37,5.06,10.28.5,6.9-8,6-21.19-1.87-28.34-2.79-2.53-6.05-3-9.22-.92a21.49,21.49,0,0,0-4.17,3.75c-1.18,1.31-2.06,2.89-3.13,4.31s-1.56,1.44-3.1.4a5.8,5.8,0,0,0-3.15-1.14,6,6,0,0,0-5.8,4.07c-.81,2.18-2,4.27-2.55,6.5-1.46,5.58-1.06,11.3-1.1,17,0,4,2,6.45,5.14,8.35,4.76,2.9,9.7.78,10.82-4.68a41.23,41.23,0,0,0,.66-5.44c.35-4.82.59-9.65.95-14.46A24,24,0,0,1,182,341.63ZM293.4,551.16c-2.55.22-4.72.36-6.89.59a60.27,60.27,0,0,1-20.19-.75c-6.92-1.61-13.74-3.62-20.56-5.61a14.51,14.51,0,0,0-9,.06,91.93,91.93,0,0,0-28.37,14.47c-1.32,1-1.21,1.61.26,2.34a25,25,0,0,0,4.51,1.8,80.61,80.61,0,0,0,33.3,1.39,93.83,93.83,0,0,0,21.92-6.82c2.62-1.11,4.74-1.79,6.64,1.2a3.69,3.69,0,0,0,4,1.6,91.3,91.3,0,0,0,9.08-2.58,7.17,7.17,0,0,0,3.26-2.74A26.28,26.28,0,0,0,293.4,551.16Zm95,12.29a15.63,15.63,0,0,0,3.41,12.18,40.7,40.7,0,0,0,21.4,14.9,17.61,17.61,0,0,0,7,.76c5.79-.79,9.68-4.51,12.29-9.51,2.89-5.55,4-11.3.8-17.19-1.3-2.37-2-2.66-4.7-2.22a46,46,0,0,1-6.49.8c-9.47.16-18.93.2-28.39.28C392,563.47,390.26,563.45,388.44,563.45ZM126.67,478.32l.66.08a12.53,12.53,0,0,0,1.45-2.55,14.23,14.23,0,0,0,.83-4.47c-.25-7.82-.39-15.66-1.06-23.45-.93-10.84-2.15-21.66-3.5-32.46-1.43-11.45-3.14-22.86-4.77-34.28-.54-3.83-1.19-7.63-1.82-11.44-.24-1.45.16-2.3,1.73-2.57,2.1-.36,4.17-.9,6.26-1.32,2.33-.46,4.66-.87,7-1.31-5.83-.24-11.62-.2-17.41-.27-1.54,0-1.9.57-1.81,2,.38,6.14.61,12.3,1,18.44,1.4,21,2.54,41.94,5.58,62.75,1.35,9.3,3.2,18.52,4.86,27.77A24.75,24.75,0,0,0,126.67,478.32Zm228-260.8c-5.07-1-9.85-2-14.63-2.93a1.38,1.38,0,0,0-1.73,1.07,38.74,38.74,0,0,0-1.24,3.92c-1.65,7-2.64,14.16-5.15,21a7.16,7.16,0,0,0,3.1,8.35c5,3,14.51-1.07,15.24-7.13.57-4.78,1.79-9.48,2.67-14.23C353.56,224.26,354.09,221,354.68,217.52Zm-31.52,82.9c.06-.07,0,0,0,0q-3.82,13.79-7.62,27.58a1.08,1.08,0,0,0,.21.92c2.29,1.92,4.52,3.95,7,5.64,1.89,1.31,4,1,6-.14,2.36-1.35,3.47-3.61,4.14-6,2.28-8.06,4.37-16.16,6.54-24.24.26-1-.1-1.47-1.06-1.55-2-.17-4.07-.18-6.07-.49C329.28,301.68,326.27,301,323.16,300.42ZM276.87,97.81c-.44-1.1-.75-1.78-1-2.48a22.5,22.5,0,0,1-1.13-3.61c-.75-4.73.4-9.15,2.31-13.46a21,21,0,0,0,2.05-5.84c.52-4.5-1.29-7.45-5.52-7.93a45.3,45.3,0,0,0-8.06-.3c-4.52.3-7.19,3.43-9.39,7a4.06,4.06,0,0,0-.46,2.65c.51,2.67.86,5.47,2,7.9,3.52,7.73,10.06,12.29,17.48,15.8A9.12,9.12,0,0,0,276.87,97.81Zm149.69,21.84c-1.64,5.43-3.43,10.81-4.83,16.3-.51,2-.16,4.2,0,6.31.07,1.2,1,1.71,2.17,1.6a16,16,0,0,0,2-.21c4.69-1.12,9.43-2.08,14-3.47a49.6,49.6,0,0,0,9.37-3.91c3.89-2.1,4-3.73.52-6.58A45.49,45.49,0,0,0,426.56,119.65ZM217.46,346.83l.19.48a14.34,14.34,0,0,0,1.45-.3c3.27-1.09,6.64-2,9.79-3.36,7.22-3.13,14.33-6.5,21.48-9.77,2.1-1,2.42-1,3.45,1.11a127,127,0,0,1,5.6,12.65c3.57,9.95,4.89,20.42,6.79,30.76.54,3,1.18,5.92,1.77,8.88l.42-.06c0-2.52.05-5.05,0-7.57-.32-13.57-1.77-27-5.57-40.06-1.69-5.84-3.87-11.46-8.34-16.25C243.68,333.55,230.54,340.14,217.46,346.83Zm72.31-8.19.7.38c.62-.89,1.23-1.78,1.86-2.66,2.54-3.54,4.85-7.28,7.69-10.58,4.1-4.78,8.63-9.2,12.89-13.85,2.86-3.14,5.49-6.47,5.93-10.93a4.25,4.25,0,0,0-.36-2.49,25.6,25.6,0,0,0-6.62-6.63C301.87,306.37,293.93,321.63,289.77,338.64ZM140.86,366.91a25.52,25.52,0,0,0,1.23,4.62,5.1,5.1,0,0,0,8.51,1.25,17.86,17.86,0,0,0,2.45-3.66,57.11,57.11,0,0,0,5.61-17.31,27.48,27.48,0,0,0,.52-4.68c0-2.63-2.07-4.46-4.31-3.87-3.69,1-6.94,2.72-8.9,6.16A41.45,41.45,0,0,0,140.86,366.91ZM312.23,248.79h.47c.18-1,.41-1.91.54-2.88.43-3.07.7-6.16,1.26-9.21.71-3.84,3.21-6.1,6.95-7.05.32-.08.63-.22.94-.33l.21-.41c-6.75-2.46-11.32-7.6-16-13C305.87,227.64,309,238.23,312.23,248.79Zm43.82-19.35a6.55,6.55,0,0,0,1.12,1.39c1.1.71,2.28,1.31,3.42,2a2.11,2.11,0,0,0,3-.46,70.7,70.7,0,0,0,9.77-14.12,9.33,9.33,0,0,0,.39-2.84,10.08,10.08,0,0,0-2.9.33,33.37,33.37,0,0,0-12.34,9C357.41,226,356.89,227.77,356.05,229.44ZM301.85,80.7A104.59,104.59,0,0,0,283.34,69a4.67,4.67,0,0,0,.1,2.4,56.22,56.22,0,0,0,3.84,8.06C289.94,83.63,297.87,84.28,301.85,80.7ZM281.76,98.79c2.66-4,5.22-7.73,7.7-11.55a1.53,1.53,0,0,0-.31-1.39c-1.16-1.13-2.4-2.19-3.67-3.21-3.07-2.44-4.33-2-5.56,1.72a7.8,7.8,0,0,0-.29,1C278.71,90,279.61,94.31,281.76,98.79Zm138.5,19-9.2-1.07-.29.54,6.34,10.34ZM297.08,168.06c-.37-1.13-.75-2.16-1.05-3.22-1.14-4-4.33-3.94-7.47-3.23-.84.19-1.22.93-.59,1.62a17.08,17.08,0,0,0,8.43,5.07C296.52,168.33,296.68,168.21,297.08,168.06Zm32.75,55.73A9,9,0,0,0,332,222.5c.59-.57.43-1.58-.47-1.63a16.36,16.36,0,0,0-4.74.4c-1,.26-1,1.3.06,1.72A24.16,24.16,0,0,0,329.83,223.79Z" transform="translate(-107.96 -4.79)" />
  <path d="M331.31,355c0,3.08-.48,6-3.21,8a2.63,2.63,0,0,1-3.44.11c-3.51-2.3-4.57-5.84-5-9.66a19.27,19.27,0,0,1,.27-5.14,5,5,0,0,1,4.14-4.13c2.3-.35,4,.52,5.27,2.77A16.48,16.48,0,0,1,331.31,355Z" transform="translate(-107.96 -4.79)" />
  <path d="M304.85,355.72c-.65,1.93-.94,4.1-2,5.76-1.79,2.74-3.95,3.19-6.4.8-3.75-3.66-4.91-11.31-2.26-15.85,1.68-2.87,4.67-3.24,6.95-.73,2.53,2.78,3.23,6.24,3.34,9.87Z" transform="translate(-107.96 -4.79)" />
  <path d="M303.22,113.86c-.36,3.73-.43,6.93-3.06,9.27-2.2,2-4.15,1.62-5.55-1-2.06-3.87-.46-11.18,3-13.83,1.73-1.31,3.69-.93,4.49,1.1A28.52,28.52,0,0,1,303.22,113.86Z" transform="translate(-107.96 -4.79)" />
  <path d="M296.16,93.88a8.54,8.54,0,0,1,1.49-1.3c3.19-1.53,6.36-3.11,9.62-4.47,1.74-.73,2.38-.29,2.57,1.56.54,5.1.06,5.15-4.26,5.2-2.23,0-4.46-.13-6.68-.3A19.19,19.19,0,0,1,296.16,93.88Z" transform="translate(-107.96 -4.79)" />
  <path d="M305.61,156.54c-.42-21,9.29-36.35,26.93-47a59.39,59.39,0,0,1,27-8.21c11.44-.74,21.73,2.67,30.91,9.33,12,8.71,19.83,20.27,22.76,34.93,1.95,9.78.15,19.08-3.72,28.13-7.49,17.51-21.11,27.7-39.05,32.61-10.89,3-21.71,3.18-32.18-1.83A64.13,64.13,0,0,1,316,187.32a74.67,74.67,0,0,1-6.54-9.9c-2.77-4.77-3.7-10.08-3.86-15.54C305.57,160.11,305.61,158.32,305.61,156.54Zm69.91,42.86-.29-.68a22,22,0,0,1,2-1.27,49,49,0,0,0,11.09-7.77c9.58-8.79,15.22-19.53,15.66-32.64.49-14.44-5.18-26.34-15.75-35.95a43.68,43.68,0,0,0-28.7-11.86,42.73,42.73,0,0,0-25.22,7.32c-2,1.3-4.09,2.46-6.18,3.62a8.11,8.11,0,0,1-1.88.49l-.39-.61c.73-.6,1.43-1.25,2.2-1.79,1.66-1.17,3.31-2.37,5.05-3.41,5.83-3.52,11.86-6.67,18.81-7,5.73-.29,11.49-.24,17.24-.14,3,0,6,.51,8.94.79a25.19,25.19,0,0,0-6.46-2.52c-6.59-1.26-13.27-1.08-19.94-.77a20.64,20.64,0,0,0-5.7.91c-10.32,3.54-19.23,9.21-26,17.88-7.88,10-10.79,21.48-9.48,34.07,1.5,14.39,7.53,26.49,18.62,35.89,8.26,7,17.93,10.42,28.69,10.93,8.46.41,16.51-.59,24.17-4.81a52,52,0,0,0,24.55-28.81c.32-.88.5-1.81.74-2.72l-.4-.12c-.35.55-.73,1.08-1,1.65-1.55,2.86-3,5.77-4.64,8.58A48,48,0,0,1,379.91,198,32.24,32.24,0,0,1,375.52,199.4Z" transform="translate(-107.96 -4.79)" />
  <path d="M364.54,129.5c-1.45,1.71-3,3.3-4.27,5-7.18,9.35-.16,18.08,6.83,19.53a12.74,12.74,0,0,0,15.18-9.22c.24-.88.48-1.76.72-2.67a26,26,0,0,1-.3,30.46c-8.62,12.08-23.93,16.6-35.41,10.39C333,175.26,327.07,160.89,332.82,147,339.05,131.87,351.94,128,364.54,129.5Z" transform="translate(-107.96 -4.79)" />
</svg>
