<svg xmlns="http://www.w3.org/2000/svg" viewBox="0 0 382.45 428.69">
  <title>individual</title>
  <path d="M195.05,152c.7-4.9,1.38-9.61,2.09-14.51,65.48,9.61,130.66,8.73,196.37.26a97.61,97.61,0,0,1,1.23,10c.09,3.32,1.43,4.37,4.68,4.9,16.25,2.64,32.53,5.2,48.6,8.69a65.16,65.16,0,0,1,19.25,7.95c10.88,6.52,10.56,16.19-1,21.44a161.94,161.94,0,0,1-30.2,10.05c-34.33,8-69.35,11.08-104.45,13a775.25,775.25,0,0,1-150.49-7.06c-16.35-2.33-32.33-7.49-48.35-11.85-4.21-1.14-8.24-3.67-11.81-6.3-7.13-5.25-7.36-12.1-.27-17.3,4.62-3.38,9.94-6.57,15.41-7.87,16.48-3.92,33.18-6.91,49.81-10.18C188.81,152.6,191.79,152.41,195.05,152Z" transform="translate(-102.57 -42.06)" style="fill: none; stroke: #228bf2;stroke-miterlimit: 10;stroke-width: 8px" />
  <g>
    <path d="M339.94,274.88c.93.17,1.65.25,2.35.44,6.71,1.8,9.93,6.17,8.77,11.88-1.31,6.46-6.66,10.16-12.92,8.87-5-1-8.28-4.72-11.18-9.09a110.85,110.85,0,0,0-7.95-11.3c-3.88-4.51-8.82-7-14.44-5.27-3.33,1-6.37,3.19-9.76,4.95-12.3-8.6-19.86-6.82-28.76,7.07a86.48,86.48,0,0,1-5.58,8.34c-3.63,4.42-6.48,5.05-11.89,3.71-4.3-1.07-7.81-5.79-8-10.57s4.1-9.26,6.26-10.45c1.42-.79,4.76-3.07,6.55-3.6-10.24-4.18-20.68,3.65-18.87,15.42,1.58,10.26,13.26,24.15,23,25,9.32.78,13.4-1.42,21.82-5.88,17.81-9.45,13.91-9.33,31.83.11,8.29,4.36,13.38,6.5,22.54,5.78,11.76-.92,22.12-17.13,21-29.09C353.85,271.41,347.25,270.32,339.94,274.88Z" transform="translate(-102.57 -42.06)" style="fill: none;stroke: #228bf2;stroke-miterlimit: 10;stroke-width: 2px" />
    <path d="M399,213.51c-69.24,15.23-138.54,14.54-208.37,2.12.27,13.88,1.72,27.73,9.91,39.19,2.54,3.56,6.43,6.92,10.24,8.06,4.2,1.25,5.38,3.53,6.48,7.65,9.2,34.3,26.69,61,56.14,76.23,14.45,7.46,29.24,7.36,43.7-.09,22.7-11.69,38.94-30.84,49.26-56.33,3.42-8.43,5.94-17.32,8.91-26.12C391.13,261.43,403.66,234.67,399,213.51Zm-65.28,96.75c-9.16.72-14.25-1.42-22.54-5.78-17.92-9.44-14-9.56-31.83-.11-8.42,4.46-12.5,6.66-21.82,5.88-9.77-.82-21.45-14.71-23-25-1.81-11.77,8.63-19.6,18.87-15.42-1.76.6-6.52,2-7.73,3.26-4,4.2-3.61,8.45-3.41,10.83a11.37,11.37,0,0,0,6.33,9c4.81,2.38,8.57,1.83,11.89-2.14a80.73,80.73,0,0,0,5.58-8.34c8.9-13.89,16.46-15.67,28.76-7.07,3.39-1.76,6.43-3.93,9.76-4.95,5.62-1.72,10.56.76,14.44,5.27A110.85,110.85,0,0,1,327,287c2.9,4.37,6.19,8.06,11.18,9.09,6.26,1.29,11.61-2.41,12.92-8.87,1.16-5.71-2.06-10.08-8.77-11.88-.7-.19-1.42-.27-2.35-.44,7.31-4.56,13.91-3.47,14.81,6.29C355.86,293.13,345.5,309.34,333.74,310.26Z" transform="translate(-102.57 -42.06)" style="fill: none;stroke: #228bf2;stroke-miterlimit: 10;stroke-width: 8px" />
  </g>
  <path d="M200.41,118.92c1.34-16.4,1.73-31.94,4.09-47.18,2.47-16,13.06-25.06,29.27-25.49,13.56-.36,27.39-.09,40.69,2.23,15.29,2.67,29.93,1.62,45-.58a206.18,206.18,0,0,1,37.76-1.63c16.06.64,26.1,10.43,29.21,26.41a24.51,24.51,0,0,1,.32,3c1.07,14.1,2.13,28.19,3.26,43.21A725.69,725.69,0,0,1,200.41,118.92Z" transform="translate(-102.57 -42.06)" style="fill: none;stroke: #228bf2;stroke-miterlimit: 10;stroke-width: 8px" />
  <path d="M242.67,410.21v44.61a268,268,0,0,0-57.86-44.47A362.27,362.27,0,0,0,117.22,380l33.17-15.73-40.92-41.59c11.64-5.2,22.31-11.31,33.78-14.78,20-6.06,40.55-10.49,60.86-15.64,3.28-.83,5,.12,6.36,3.46A93.56,93.56,0,0,0,236,331c4.75,4.11,5.88,8.36,4.75,14.43-1.84-.53-3.65-1.07-5.47-1.58-6.94-1.93-13.12,1.57-13.3,8.61-.41,16.15-.48,32.33.12,48.47.31,8.55,6.61,12.25,15.12,10.32C238.8,410.93,240.4,410.66,242.67,410.21Z" transform="translate(-102.57 -42.06)" style="fill: none;stroke: #228bf2;stroke-miterlimit: 10;stroke-width: 8px" />
  <path d="M347.79,410.08c2.2.48,3.49.75,4.77,1,10,2.25,15.74-1.85,16.35-12.27.39-6.81.14-13.66.15-20.5,0-7-.35-14,.09-21,.6-9.69-5.78-17.67-16.79-12.51a17.85,17.85,0,0,1-2.68.76c-.73-5.51-.53-9.77,4.2-13.84A99.21,99.21,0,0,0,380.81,295c.55-1.31,2.88-2.94,4.12-2.74,31.84,5.21,63.05,12.53,91.44,28.76,1,.58,2,1.25,2.93,1.91a1.87,1.87,0,0,1,.44.57l-40,40.46,33.47,16c-47.33,16.62-90.05,39.32-125.38,75Z" transform="translate(-102.57 -42.06)" style="fill: none;stroke: #228bf2;stroke-miterlimit: 10;stroke-width: 8px" />
  <path d="M272.23,363.44v32.41c-8.63,2.16-17.76,4.44-26.89,6.7-3.22.8-6.48,1.49-9.68,2.37-4.46,1.21-6.69-.74-7.18-5a59.9,59.9,0,0,1-.27-7q0-17.94,0-35.9c0-7.22,1.4-8.16,8.36-5.79Z" transform="translate(-102.57 -42.06)" style="fill: none;stroke: #228bf2;stroke-miterlimit: 10;stroke-width: 8px" />
  <path d="M318.34,395.8V363.31c11.87-3.9,24.52-8.32,37.36-12.15,4.53-1.35,6.93,1,6.92,5.92q0,20.48-.33,40.93c-.09,5.72-2.83,8.13-8.34,6.84C342,402.07,330.16,398.83,318.34,395.8Z" transform="translate(-102.57 -42.06)" style="fill: none;stroke: #228bf2;stroke-miterlimit: 10;stroke-width: 8px" />
  <path d="M276.57,379.88c.2-2.66.35-5.32.61-8,.67-7,1.8-9.36,8.64-10,7.45-.66,15.09.36,22.59,1.18,3,.33,4.68,2.79,4.65,6.17-.07,7.79,0,15.57,0,23.36,0,4.43-2.78,7.17-6.63,7.46a156.8,156.8,0,0,1-22.21.07c-4.18-.29-6.63-3.43-6.94-7.85-.29-4.15-.65-8.29-1-12.43Z" transform="translate(-102.57 -42.06)" style="fill: none;stroke: #228bf2;stroke-miterlimit: 10;stroke-width: 8px" />
  <path d="M306.78,456A10.77,10.77,0,1,1,296,445.24,10.81,10.81,0,0,1,306.78,456Z" transform="translate(-102.57 -42.06)" style="fill: none;stroke: #228bf2;stroke-miterlimit: 10;stroke-width: 8px" />
  <path d="M306.77,424a10.77,10.77,0,0,1-21.54.44,10.77,10.77,0,1,1,21.54-.44Z" transform="translate(-102.57 -42.06)" style="fill: none;stroke: #228bf2;stroke-miterlimit: 10;stroke-width: 8px" />
</svg>
