<svg xmlns="http://www.w3.org/2000/svg" viewBox="0 0 773.89 290.82">
  <title>logo</title>
  <g>
    <path d="M729.19,321.16h-2.47a3.72,3.72,0,0,1-.33-.77,1.71,1.71,0,0,1,0-.84c1.62-6.76-1.33-11.93-5.39-17.28-15-19.76-29.54-39.82-44.31-59.76a5.4,5.4,0,0,0-2.24-1.94l48,80.59,10.06,15.56s-39-15.56-45-15.56c1.27-6.09,2.52-12,3.83-18.34l-18.63-2.54c-2.6-.35-5.21-.56-7.77-1.12a3.46,3.46,0,0,1-2.23-2c-3.38-12.67-6.63-25.46-9.92-38.19-.07-.27-.08-.57-.15-.85-1-4-1-4.08-5.1-3.29-12.94,2.54-25.87,5.16-38.81,7.74a3.67,3.67,0,0,1-2.15-.11c1.92-1,3.81-1.93,5.74-2.84,11.57-5.39,23.17-10.72,34.67-16.23a5.81,5.81,0,0,0,2.91-3.38,19.06,19.06,0,0,1,6.78-10.51c7-6,13.67-12.31,20.44-18.46.3.16.57.22.59.31,1.21,8,5.45,14.37,10.68,20.43,4.34,5,8.32,10.23,12.47,15.34a28.86,28.86,0,0,0,13.71,9.61c3.23,1,6.38,2.29,9.56,3.48,1.65.61,2.74.2,3.47-1.42,1.35-2.82,3-5.53,4.19-8.4a8.42,8.42,0,0,0,.43-4.13c-.07-.6-1.31-1.64-1.82-1.54-5.79,1.1-8.6-3.38-12.47-5.85l-.16-1c2.48-.74,4.93-1.63,7.45-2.19,1.49-.33,3.12,0,4.65-.23.76-.11,2-.84,2-1.26a4,4,0,0,0-1.35-2.19c-4-4.07-9.55-3-14.58-4.47,4.1-.49,8.18-1.09,12.29-1.42,2.17-.16,3-.79,3-3.07a14.33,14.33,0,0,1,1.24-5.39c1.34-3.38.94-4.92-2.43-6.24-2.6-1-5.35-1.63-8-2.53a10.36,10.36,0,0,1-2.86-1.62c-.15-.13.28-1.54.63-1.62a6.34,6.34,0,0,1,3.53-.2c1.53.65,2.78,1.89,4.49,3.11V183.46l-.87-.84a9.48,9.48,0,0,1-.87,2c-2.61,3.61-5.21,7.27-8.08,10.75a8.36,8.36,0,0,0-2.12,6.26,10.86,10.86,0,0,1-3.48,8.91c-3.21,3.38-6.08,7.05-9.67,11.23,1.17-9.53,5.21-17.23,8.8-25.35l-12.57-4.9c-5.32-2.07-10.67-4.07-16-6.22-1.73-.72-3.15-.85-4.26.84-2,3.08-4.52,3-7.65,1.6s-6.64-2.44-10.3-3.75c4,8,10,13.46,15.64,14.22l.31,2.41a5.45,5.45,0,0,1-6.43-1.55c-7.61-8.37-15.25-16.74-18.24-27.93a4.25,4.25,0,0,0-3.86-3.52c-11.77-2-22.59-6.76-33.57-11.1a23.46,23.46,0,0,1-5.91-3.55,5,5,0,0,1-1.85-3.74c.09-.78,2-1.82,3.29-2a547.3,547.3,0,0,1,80.65-6.82c33.83-.4,67.65-.72,101.47-1.28,17.19-.29,34.37-1.15,51.56-1.54A76.27,76.27,0,0,1,856,138.71c1.19.17,2.24,1.23,3.35,1.88-.71,1.15-1.17,2.61-2.19,3.38a47.87,47.87,0,0,1-6.84,4.29c-13,6.76-26.21,12.79-40.46,16.57a4.48,4.48,0,0,0-2.61,2.82c-2.86,12.07-10.43,21.4-18.53,30.42-2.8,3.11-3.63,3.22-7.16,2.54v-2.67c4.5.66,6.89-2.19,9.19-5,6.32-7.78,13.12-15.29,15.57-25.36.1-.45.21-.91.46-2-3.08.72-5.87,1.24-8.56,2.09-.58.19-.92,1.52-1.13,2.38-2.16,9.07-6.95,16.49-15,22.91.23-3.53.41-6.43.6-9.36-5,.57-5.6,1.37-6.6,5.59-1.61,6.8-3.55,13.52-5.34,20.28q-3.48,13.16-6.95,26.32a6.72,6.72,0,0,0-.12,2.89c7.1-8.34,15.56-15.82,16.72-28.1l14,12.67c1.92,1.74,3.71,3.65,5.77,5.21,4.19,3.19,7.19,7,8.21,12.21a4.71,4.71,0,0,0,2.52,2.72c11.86,5.64,23.79,11.16,35.7,16.71a18.72,18.72,0,0,1,4.74,2.86l-12.92-2.54c-9.79-2-19.6-3.85-29.35-6-2.83-.61-2.81,1.23-3.22,2.78-3.3,12.64-6.68,25.25-9.77,37.95-.72,2.95-2,4.12-5.08,4.45-8,.85-15.94,2.05-24.26,3.15,1.31,6.26,2.6,12.22,3.84,18.32-7.49,0-50.6,22.77-50.6,22.77l13.48-22.77,47.52-79.8-.53-.33c-2.19,2.85-4.43,5.67-6.55,8.56-14.2,19.27-28.35,38.59-42.63,57.81a9.21,9.21,0,0,0-2,7A57.48,57.48,0,0,1,729.19,321.16Zm-50.14-100c0,4.35,0,8.4,3.32,12.25,13.29,15.29,26.17,30.91,39.2,46.41,2.38,2.83,4.78,5.64,7.42,8.75,1.16-1.34,2.08-2.39,3-3.47,14.53-17.21,29-34.5,43.65-51.61,3.12-3.63,3.4-7.53,3.48-12.42-1.63,2.87-2.61,5.27-4.19,7.26-5.93,7.56-12.22,14.88-18,22.52-6,7.9-14.92,11.11-23.93,12.86-10.08,2-19.39-2.43-27.19-8.41-4.7-3.6-8.26-8.7-12-13.4C688.61,235.29,682.21,229.38,679.05,221.18Z" transform="translate(-85.43 -53)"/>
    <path d="M789.49,128.21c-41.26-5.92-82.16-6.11-123.53,1.1.63-5.22,1.16-10.34,1.93-15.42.1-.67,1.3-1.29,2.11-1.74,13.3-7.42,27.76-10.58,43-10.86,4.45-.07,8.89,0,13.48,0V96.11c-19.86,1.46-39.89,1.27-57.44,12.67l-.74-.46c1.74-7.61,3.3-15.21,5.21-22.78,2-8,5.22-15.61,10.51-22.25,6.57-8.24,15.11-11.5,25.66-9.89,5.48.84,10.93,2.05,16.43,2.31,4.4.21,8.85-.73,13.29-1.25,3.27-.38,6.52-1.11,9.8-1.31A25.17,25.17,0,0,1,771,62.34c5.92,6.93,9.14,15.1,11.5,23.66a234.12,234.12,0,0,1,7,39.91A17.07,17.07,0,0,1,789.49,128.21ZM681.23,77c-1.6,4.37-3,8.68-2.22,13.3.67,4,2.74,5.8,6.74,5.46a71,71,0,0,0,10.43-2c4.41-1.09,8.69-3,13.14-3.52A13.84,13.84,0,0,0,721,82.14a52.19,52.19,0,0,0,2.85-6.51,48.94,48.94,0,0,0,2.61-19.23c-1.74-.17-3.16-.34-4.6-.44-6.39-.45-12.78-1.28-19.17-1.2-8,.1-16.73,7.55-18.41,15.58,4.49-7.24,10.83-11.21,18.34-13.62,3-1,4-.2,3.83,2.83-.52,9.4-10.72,19.38-20.44,20C683.94,79.69,682.1,79.39,681.23,77Z" transform="translate(-85.43 -53)"/>
    <path d="M711.79,227.27l-9.22,9.09c.22-4.94,1.95-8.19,5.75-9.52C709.36,226.51,710.76,227.13,711.79,227.27Z" transform="translate(-85.43 -53)"/>
  </g>
  <g>
    <path d="M98.46,262.94q0,3.17.17,9.53c.11,4.25.17,7.42.17,9.54,0,.35-.08.58-.25.67s-.28.05-.74.1a42.19,42.19,0,0,1-4.9.22,36.83,36.83,0,0,1-5.25-.22c-.54-.1-.81-.38-.81-.83,0,.29.08-1.29.25-4.72q.51-10.89.51-14.29,0-2.88-.2-8.62c-.13-3.83-.2-6.71-.2-8.62,0-.4.22-.59.65-.59.58,0,1.46,0,2.64.08s2,.08,2.63.08,1.45,0,2.58-.08,2-.08,2.58-.08.82.19.82.59c0,1.91-.11,4.79-.32,8.62S98.46,261,98.46,262.94Z" transform="translate(-85.43 -53)"/>
    <path d="M142,245.94q0,3.06-.26,9.2c-.17,4.09-.26,7.17-.27,9.22v17.7c0,.48-.27.72-.82.72s-1.13,0-2,.06-1.6.05-2,.05a19.22,19.22,0,0,1-2.2-.11,17.94,17.94,0,0,0-2.2-.1c-.49,0-.74-.3-1.21-.89q-2-2.61-9.14-11.55-1.93-2.49-5.92-7.36a1.21,1.21,0,0,0-.42-.32.73.73,0,0,0-.23.59q0,3.12.19,9.35t.18,9.35c0,.62-.25.93-.76.93h-9.76a.71.71,0,0,1-.81-.61.81.81,0,0,1,0-.22c0-1.93.09-4.85.29-8.75s.3-6.83.3-8.78-.09-5.14-.27-9.24-.27-7.17-.27-9.21c0-.4.37-.6,1.1-.6,1.09,0,2.44-.07,4-.21a18.89,18.89,0,0,0,2.23-.35,14,14,0,0,1,2.23-.24c.22,0,.57.3,1,.91l10.53,13.73q1.41,1.85,4.26,5.42c.47.56.87.83,1.21.83s.37-.69.37-2.09q0-2.82-.33-8.49c-.21-3.78-.32-6.61-.32-8.51,0-.66.2-1,.59-1,1.13,0,2.83,0,5.1-.13s4-.13,5.11-.13C141.78,245.11,142,245.38,142,245.94Z" transform="translate(-85.43 -53)"/>
    <path d="M180.13,276.72a2,2,0,0,1-.59,1.12q-5.19,5.88-13.79,5.88-8.79,0-14.26-5.72a19.29,19.29,0,0,1-5.33-14,19.77,19.77,0,0,1,5.21-13.86,18,18,0,0,1,13.85-6q9.14,0,14.32,5.34a1.67,1.67,0,0,1,.57,1.05,16.56,16.56,0,0,1-2,3.79,21.72,21.72,0,0,1-2.47,3.68.77.77,0,0,1-.56.21,7.38,7.38,0,0,1-1.41-1.07,15.83,15.83,0,0,0-3-2,10.62,10.62,0,0,0-4.63-1.07,8.2,8.2,0,0,0-6.62,2.95,10.22,10.22,0,0,0-2.29,6.77,10.36,10.36,0,0,0,2.29,6.85,8.18,8.18,0,0,0,6.62,3,11,11,0,0,0,4.65-1,14.84,14.84,0,0,0,2.94-1.88,6.74,6.74,0,0,1,1.38-1,.81.81,0,0,1,.56.29q.45.48,2.46,3.36A19.08,19.08,0,0,1,180.13,276.72Z" transform="translate(-85.43 -53)"/>
    <path d="M222.35,264a19.18,19.18,0,0,1-5.61,14,21,21,0,0,1-29,0,20.25,20.25,0,0,1,0-28,20.83,20.83,0,0,1,28.9,0A19.2,19.2,0,0,1,222.35,264Zm-10.69-.06a9.8,9.8,0,0,0-2.57-6.85,9.18,9.18,0,0,0-13-.52c-.22.2-.42.41-.62.63a9.86,9.86,0,0,0-2.68,6.8,9.74,9.74,0,0,0,2.51,6.84,9,9,0,0,0,6.91,2.88,8.84,8.84,0,0,0,6.77-3A9.65,9.65,0,0,0,211.66,263.93Z" transform="translate(-85.43 -53)"/>
    <path d="M260.16,282.51c0,.12-.19.21-.56.26a48.45,48.45,0,0,1-5.39.17,49,49,0,0,1-5-.17,2.4,2.4,0,0,1-.7-.13c-.12-.05-.25-.23-.4-.54-.28-.69-.69-1.73-1.24-3.11-.73-1.79-1.87-4.43-3.44-7.92a2.52,2.52,0,0,0-2.34-1.16h-2.9c-.29,0-.43.46-.43,1.37q0,1.83.36,5.46c.23,2.41.35,4.23.35,5.45,0,.3-.09.48-.25.53l-.79.06c-1.11.07-2.84.11-5.19.11a37.38,37.38,0,0,1-4.85-.17c-.55-.1-.82-.38-.82-.83q0-3,.3-8.91t.29-9q0-11.35-.53-17.72v-.38c0-.3.27-.51.89-.62s3.48-.21,8.61-.32c3.48-.07,6.25-.1,8.32-.11a18.31,18.31,0,0,1,10.49,2.77,10.22,10.22,0,0,1,4.59,9,14,14,0,0,1-1.18,6.26,12.9,12.9,0,0,1-4.37,4.53c-.43.29-.65.56-.65.81s1.15,2.41,3.44,6.74Q260.16,281.82,260.16,282.51Zm-11.84-24.09c0-2.19-.75-3.71-2.26-4.54a11.69,11.69,0,0,0-5.47-1q-2.67,0-2.85.78a44,44,0,0,0-.17,5.26v3.63q0,.13.9.27a27.25,27.25,0,0,0,3.61.24c4.16,0,6.24-1.52,6.24-4.63Z" transform="translate(-85.43 -53)"/>
    <path d="M297.13,259.51q0,6.51-3.58,10.53-3.84,4.27-10.58,4.27-1.12,0-3.39-.12c-1.52-.08-2.65-.12-3.4-.12s-1.21.33-1.21,1c0,.83.08,2.05.25,3.68s.25,2.85.25,3.65c0,.42-.19.62-.59.62q-1.72,0-5.16-.09c-2.29-.06-4-.1-5.16-.1-.54,0-.82-.26-.82-.77,0-2,0-5,.1-9s.1-7,.1-9q0-8.43-.76-17.72V246c0-.34.25-.54.85-.62,1.46-.17,4.7-.26,9.7-.26,2.95,0,5.77,0,8.48.1a16,16,0,0,1,10.78,4A13.42,13.42,0,0,1,297.13,259.51Zm-11.25.43q0-6.25-6.4-6.25-4.51,0-4.74.48a41.41,41.41,0,0,0-.2,6.2c0,.56,0,1.38.07,2.46s.07,1.9.07,2.46c0,.36,1.7.53,5.08.53q6.12,0,6.12-5.92Z" transform="translate(-85.43 -53)"/>
    <path d="M340.16,264a19.18,19.18,0,0,1-5.61,14,21,21,0,0,1-29,0,20.25,20.25,0,0,1,0-28,20.83,20.83,0,0,1,28.9,0A19.2,19.2,0,0,1,340.16,264Zm-10.7-.06a9.84,9.84,0,0,0-2.56-6.85,8.83,8.83,0,0,0-6.86-2.95,8.7,8.7,0,0,0-6.73,3.06,9.86,9.86,0,0,0-2.68,6.8,9.74,9.74,0,0,0,2.51,6.84,9.41,9.41,0,0,0,13.67-.12A9.65,9.65,0,0,0,329.46,263.93Z" transform="translate(-85.43 -53)"/>
    <path d="M378,282.51c0,.12-.18.21-.56.26a48.45,48.45,0,0,1-5.39.17,49,49,0,0,1-5-.17,2.4,2.4,0,0,1-.7-.13,1.18,1.18,0,0,1-.39-.54c-.29-.69-.7-1.73-1.25-3.11-.73-1.79-1.87-4.43-3.44-7.92-.33-.7-1.11-1.09-2.34-1.16H356c-.28,0-.42.46-.42,1.37,0,1.22.11,3,.35,5.46s.35,4.23.35,5.45c0,.3-.08.48-.25.53l-.79.06c-1.11.07-2.84.11-5.19.11a37.38,37.38,0,0,1-4.85-.17c-.55-.1-.82-.38-.82-.83q0-3,.3-8.91c.2-4,.29-7,.29-9q0-11.35-.53-17.72v-.38c0-.3.28-.51.89-.62s3.48-.21,8.61-.32c3.48-.07,6.25-.1,8.32-.11a18.31,18.31,0,0,1,10.49,2.77,10.19,10.19,0,0,1,4.6,9,14,14,0,0,1-1.19,6.26,12.9,12.9,0,0,1-4.37,4.53c-.43.29-.65.56-.65.81s1.15,2.41,3.44,6.74C376.83,279.56,378,282.05,378,282.51Zm-11.84-24.09c0-2.19-.75-3.71-2.25-4.54a11.73,11.73,0,0,0-5.48-1c-1.78,0-2.73.26-2.84.78a44,44,0,0,0-.17,5.26v3.63c0,.09.3.18.91.27a27.25,27.25,0,0,0,3.61.24c4.15,0,6.22-1.52,6.22-4.63Z" transform="translate(-85.43 -53)"/>
    <path d="M418.35,282.11c0,.33-.23.55-.7.67a31.77,31.77,0,0,1-5.25.22,35.86,35.86,0,0,1-5.18-.22,1.48,1.48,0,0,1-1.22-1.2c-.64-2.58-1.13-4-1.49-4.14a63.57,63.57,0,0,0-7.56-.19c-3.19,0-4.9.08-5.1.24a7.14,7.14,0,0,0-1.07,2.88c-.36,1.48-.79,2.29-1.3,2.41a47.6,47.6,0,0,1-6.43.22c-2.88,0-4.31-.26-4.31-.78s2.12-6.19,6.37-17.16q6.9-17.81,7.5-19.58c.22-.68.49-1,.79-1,.51,0,1.29.05,2.35.14s1.86.13,2.39.13,1.25,0,2.24-.09,1.72-.1,2.21-.1.69.3,1,.89q1.38,2.82,8.06,19.34T418.35,282.11Zm-20-24.46c-.39.79-1.05,2.5-2,5.13a26.33,26.33,0,0,0-1.52,4.91c0,.32.56.5,1.69.54h2.87c1.33,0,1.93-.14,2.06-.43a.78.78,0,0,0,.06-.37,25,25,0,0,0-1.3-4.89,34.35,34.35,0,0,0-1.85-4.89Z" transform="translate(-85.43 -53)"/>
    <path d="M448.7,253.32c0,.36-.21.54-.62.54q-1.08,0-8.49-.4c-.12,4.53-.17,7.69-.17,9.48q0,3.17.27,9.53c.17,4.25.26,7.42.26,9.54,0,.34-.08.55-.25.64a3,3,0,0,1-.79.13,39.75,39.75,0,0,1-5,.22,37.92,37.92,0,0,1-5.11-.22c-.52-.09-.79-.36-.79-.83q0-3.17.29-9.51c.18-4.22.28-7.39.28-9.5,0-1.4-.08-4.51-.23-9.35q-5.64.54-9,.54-.45,0-.45-.27a14.52,14.52,0,0,1,.39-2.07q.45-1.87.51-2.28c.06-.84.12-1.68.2-2.52.13-1.35.35-2,.67-2h.4a119.33,119.33,0,0,0,13.5.56q2.55,0,9.37-.51l3.69-.27a1.78,1.78,0,0,1,.65.07c.06,0,.09.22.11.52,0,.49,0,1.16-.05,2s-.06,1.62-.06,2a16.7,16.7,0,0,0,.18,2A16.14,16.14,0,0,1,448.7,253.32Z" transform="translate(-85.43 -53)"/>
    <path d="M463.16,262.94q0,3.17.17,9.53c.11,4.25.17,7.42.17,9.54,0,.35-.08.58-.25.67s-.29.05-.74.1a42.19,42.19,0,0,1-4.9.22,36.83,36.83,0,0,1-5.25-.22c-.54-.1-.82-.38-.82-.83,0,.29.09-1.29.26-4.72q.51-10.89.51-14.29,0-2.88-.2-8.62c-.13-3.83-.2-6.71-.2-8.62,0-.4.22-.59.65-.59s1.46,0,2.64.08,2.05.08,2.63.08,1.44,0,2.58-.08,2-.08,2.58-.08.82.19.82.59c0,1.91-.11,4.79-.32,8.62S463.16,261,463.16,262.94Z" transform="translate(-85.43 -53)"/>
    <path d="M508.08,264a19.18,19.18,0,0,1-5.61,14,21,21,0,0,1-29,0,20.25,20.25,0,0,1,0-28,20.83,20.83,0,0,1,28.9,0A19.2,19.2,0,0,1,508.08,264Zm-10.69-.06a9.84,9.84,0,0,0-2.56-6.85,8.88,8.88,0,0,0-6.85-2.95,8.72,8.72,0,0,0-6.74,3.06,9.86,9.86,0,0,0-2.68,6.8,9.74,9.74,0,0,0,2.51,6.84,9.41,9.41,0,0,0,13.67-.12A9.65,9.65,0,0,0,497.39,263.93Z" transform="translate(-85.43 -53)"/>
    <path d="M550,245.94q0,3.06-.27,9.2c-.18,4.09-.27,7.17-.26,9.22v17.7c0,.48-.28.72-.82.72s-1.13,0-2,.06-1.59.05-2,.05a19.13,19.13,0,0,1-2.2-.11,17.94,17.94,0,0,0-2.2-.1c-.49,0-.74-.3-1.21-.89q-2-2.61-9.14-11.55l-5.92-7.36a1.46,1.46,0,0,0-.42-.32.73.73,0,0,0-.23.59q0,3.12.19,9.35t.18,9.35c0,.62-.26.93-.76.93h-9.76a.72.72,0,0,1-.82-.62.74.74,0,0,1,0-.21q0-2.9.3-8.75c.2-3.91.3-6.83.3-8.78s-.09-5.14-.27-9.24-.27-7.17-.27-9.21c0-.4.37-.6,1.1-.6,1.09,0,2.43-.07,4-.21a18.89,18.89,0,0,0,2.23-.35,14,14,0,0,1,2.23-.24c.22,0,.57.3,1,.91l10.52,13.73q1.41,1.85,4.26,5.42c.47.56.87.83,1.21.83s.36-.69.36-2.09c0-1.88-.1-4.71-.32-8.49s-.32-6.61-.32-8.51c0-.66.19-1,.59-1,1.13,0,2.83,0,5.1-.13s4-.13,5.11-.13C549.83,245.11,550,245.38,550,245.94Z" transform="translate(-85.43 -53)"/>
  </g>
  <g>
    <path d="M92.93,91h13v44.18L150.13,91h16.43L128,129.5l39.09,58.34h-15.3L119,138.56l-13,13v36.25h-13Z" transform="translate(-85.43 -53)"/>
    <path d="M171.09,187.84l38.52-98h11.33l38.51,98H245.86L234,158.38H196.58l-11.89,29.46Zm44.18-79.3-14.73,39.08H230Z" transform="translate(-85.43 -53)"/>
    <path d="M273,90.41h47.58q11.33,0,18.69,7.37t7.37,20.39q0,13-7.37,20.39-4,4-11.32,5.1l22.09,43.61H335.92l-20.39-41.92H286.07v41.92H273Zm13,10.77v33.41h33.42a13.14,13.14,0,0,0,9.63-4q4-4,4-12.46,0-7.94-4.53-12.46a14.7,14.7,0,0,0-10.76-4.53Z" transform="translate(-85.43 -53)"/>
    <path d="M362,91h17.56l26.05,75.33L431.64,91H449.2v96.86h-13v-74.2l-26.05,74.2h-9.07L375,113.64v74.2H362Z" transform="translate(-85.43 -53)"/>
    <path d="M461.09,187.84l38.52-98h11.33l38.51,98H535.86L524,158.38H486.58l-11.89,29.46Zm44.18-79.3-14.73,39.08H520Z" transform="translate(-85.43 -53)"/>
  </g>
  <rect y="152.5" width="470" height="12"/>
</svg>
