<svg xmlns="http://www.w3.org/2000/svg" viewBox="0 0 253 291">
  <title>logo-hat</title>
  <g>
    <path d="M144.79,272.75h-2.47A4.4,4.4,0,0,1,142,272a2,2,0,0,1,0-.84c1.63-6.76-1.33-11.93-5.38-17.28-15-19.76-29.54-39.82-44.31-59.76a5.47,5.47,0,0,0-2.24-1.94l48,80.59,10.06,15.56s-39-15.56-45-15.56c1.27-6.09,2.52-12,3.83-18.34l-18.63-2.54c-2.6-.35-5.21-.56-7.77-1.12a3.44,3.44,0,0,1-2.23-2c-3.39-12.67-6.64-25.46-9.92-38.19-.07-.27-.08-.57-.15-.85-1-4-1-4.08-5.1-3.29-12.94,2.54-25.87,5.16-38.81,7.74a3.67,3.67,0,0,1-2.15-.11c1.92-.95,3.81-1.93,5.74-2.84C39.47,205.83,51.06,200.5,62.57,195a5.81,5.81,0,0,0,2.91-3.38,19.09,19.09,0,0,1,6.77-10.51c7-6,13.68-12.31,20.45-18.46.3.16.57.22.59.31,1.21,8,5.45,14.37,10.68,20.43,4.34,5,8.32,10.23,12.47,15.34a28.86,28.86,0,0,0,13.71,9.61c3.22,1,6.38,2.29,9.56,3.48,1.65.61,2.74.2,3.47-1.42,1.35-2.82,3-5.53,4.19-8.4a8.42,8.42,0,0,0,.43-4.13c-.07-.6-1.31-1.64-1.82-1.54-5.79,1.1-8.6-3.38-12.48-5.85l-.15-1c2.48-.74,4.93-1.63,7.45-2.19,1.49-.33,3.12,0,4.65-.23.76-.11,2-.84,2-1.26a4,4,0,0,0-1.35-2.19c-4-4.07-9.55-3-14.58-4.47,4.1-.49,8.18-1.09,12.29-1.42,2.17-.16,3-.79,3-3.07a14.33,14.33,0,0,1,1.24-5.39c1.34-3.38.94-4.92-2.43-6.24-2.61-1-5.35-1.63-8-2.53a10.36,10.36,0,0,1-2.86-1.62c-.16-.13.28-1.54.63-1.62a6.34,6.34,0,0,1,3.53-.2c1.53.65,2.78,1.89,4.49,3.11V135.05l-.87-.84a9.48,9.48,0,0,1-.87,2c-2.61,3.61-5.21,7.27-8.08,10.75a8.36,8.36,0,0,0-2.12,6.26,10.86,10.86,0,0,1-3.48,8.91c-3.21,3.38-6.08,7-9.68,11.23,1.18-9.53,5.22-17.23,8.81-25.35l-12.57-4.9c-5.32-2.07-10.67-4.07-16-6.22-1.73-.72-3.15-.85-4.26.84-2,3.08-4.52,3-7.65,1.6s-6.64-2.44-10.3-3.75c4,8,10,13.46,15.64,14.22l.31,2.41a5.45,5.45,0,0,1-6.43-1.55c-7.61-8.37-15.25-16.74-18.25-27.93a4.23,4.23,0,0,0-3.85-3.52c-11.77-2-22.59-6.76-33.57-11.1a23.28,23.28,0,0,1-5.91-3.55,5,5,0,0,1-1.85-3.74c.08-.78,2.05-1.82,3.29-2A547.3,547.3,0,0,1,106.37,92c33.82-.4,67.65-.72,101.47-1.28,17.18-.29,34.37-1.15,51.55-1.54a76.39,76.39,0,0,1,12.17,1.12c1.19.17,2.24,1.23,3.35,1.88-.71,1.15-1.17,2.61-2.19,3.38a47.87,47.87,0,0,1-6.84,4.29c-13,6.76-26.22,12.79-40.46,16.57a4.48,4.48,0,0,0-2.61,2.82c-2.86,12.07-10.43,21.4-18.53,30.42-2.8,3.11-3.63,3.22-7.16,2.54v-2.67c4.5.66,6.89-2.19,9.19-5,6.32-7.78,13.12-15.29,15.57-25.36.1-.45.21-.91.46-2-3.08.72-5.87,1.24-8.56,2.09-.58.19-.92,1.52-1.13,2.38-2.16,9.07-7,16.49-15,22.91.23-3.53.41-6.43.59-9.36-4.95.57-5.59,1.37-6.59,5.59-1.62,6.8-3.55,13.52-5.34,20.28q-3.48,13.16-7,26.32a6.72,6.72,0,0,0-.12,2.89c7.1-8.34,15.56-15.82,16.72-28.1l14,12.67c1.92,1.74,3.71,3.65,5.77,5.21,4.19,3.19,7.19,7,8.21,12.21a4.71,4.71,0,0,0,2.52,2.72c11.86,5.64,23.79,11.16,35.7,16.71a18.72,18.72,0,0,1,4.74,2.86L253.93,212c-9.79-2-19.6-3.85-29.35-6-2.83-.61-2.81,1.23-3.22,2.78-3.3,12.64-6.68,25.25-9.78,37.95-.71,2.95-2,4.12-5.07,4.45-8,.85-15.94,2.05-24.27,3.15,1.32,6.26,2.61,12.22,3.85,18.32-7.49,0-50.6,22.77-50.6,22.77L149,272.64l47.51-79.8-.53-.33c-2.19,2.85-4.42,5.67-6.54,8.56-14.2,19.27-28.35,38.59-42.63,57.81a9.17,9.17,0,0,0-2,7.05A57.48,57.48,0,0,1,144.79,272.75Zm-50.14-100c0,4.35,0,8.4,3.32,12.25,13.28,15.29,26.17,30.91,39.2,46.41,2.38,2.83,4.78,5.64,7.42,8.75,1.16-1.34,2.08-2.39,3-3.47,14.53-17.21,29-34.5,43.65-51.61,3.12-3.63,3.4-7.53,3.47-12.42-1.62,2.87-2.6,5.27-4.18,7.26-5.93,7.56-12.22,14.88-18,22.52-6,7.9-14.93,11.11-23.93,12.86-10.08,2-19.39-2.43-27.19-8.41-4.7-3.6-8.26-8.7-12-13.4C104.21,186.88,97.81,181,94.65,172.77Z" transform="translate(-22.16 -4.59)" />
    <path d="M205.09,79.8c-41.26-5.92-82.16-6.11-123.53,1.1.62-5.22,1.16-10.34,1.93-15.42.1-.67,1.3-1.29,2.11-1.74,13.3-7.42,27.76-10.58,43-10.86,4.45-.07,8.89,0,13.48,0V47.7C122.18,49.16,102.16,49,84.61,60.37l-.74-.46c1.74-7.61,3.3-15.21,5.21-22.78,2-8,5.22-15.61,10.51-22.25C106.16,6.64,114.7,3.38,125.25,5c5.47.84,10.93,2.05,16.43,2.31,4.4.21,8.85-.73,13.28-1.25,3.28-.38,6.53-1.11,9.81-1.31a25.17,25.17,0,0,1,21.83,9.19c5.92,6.93,9.14,15.1,11.5,23.66a234.12,234.12,0,0,1,7,39.91A17.07,17.07,0,0,1,205.09,79.8ZM96.82,28.61c-1.59,4.37-3,8.68-2.21,13.3.67,4,2.74,5.8,6.74,5.46a71,71,0,0,0,10.43-2c4.41-1.09,8.68-3,13.14-3.52a13.84,13.84,0,0,0,11.67-8.14,52.19,52.19,0,0,0,2.85-6.51A49,49,0,0,0,142.05,8c-1.74-.17-3.16-.34-4.6-.44-6.39-.45-12.78-1.28-19.17-1.2-8,.1-16.73,7.55-18.42,15.58,4.5-7.24,10.84-11.21,18.35-13.62,3-1,4-.2,3.83,2.83-.52,9.4-10.72,19.38-20.44,20C99.54,31.28,97.7,31,96.82,28.61Z" transform="translate(-22.16 -4.59)" />
    <path d="M127.39,178.86,118.17,188c.22-4.94,2-8.19,5.75-9.52C125,178.1,126.35,178.72,127.39,178.86Z" transform="translate(-22.16 -4.59)" />
  </g>
</svg>
