<svg xmlns="http://www.w3.org/2000/svg" viewBox="0 0 432.9 563.67" style="fill: #006ab0">
  <title>organization</title>
  <path d="M299,586.9c-1.78-.55-36.59-.5-38.37-.56-37.65-1.25-75.16-4.11-112.29-10.77C128,571.91,108,567,88.8,559.16c-3.34-1.37-6.2-3-7.46-6.64v-6.76c.76-6.13,1.24-12.31,2.33-18.38,4.21-23.42,11.48-45.69,25.81-65.1,12.34-16.71,28.39-29.12,46.47-39,20.25-11,41.79-19.07,63.42-26.89,1.48-.53,3-1,4.73-1.62,1.28,5.25,2.48,10.33,3.75,15.4,9,35.93,20,71.23,36.24,104.61,8.08,16.61,17.36,32.64,26.16,48.89a38.73,38.73,0,0,0,4.11,6c2.36,2.86,5,2.89,7.34,0a66.73,66.73,0,0,0,4.87-7.23c27.9-46.15,47.67-95.64,60.57-147.93,1.59-6.47,3.17-12.93,4.77-19.46.28,0,.57-.18.78-.11,24.24,8.62,48.42,17.41,70.84,30.23,21.13,12.09,39.11,27.64,51,49.28,10.43,19,16.4,39.43,19.07,60.89.13,1,.41,2,.62,3v15.78c-2.32,1.64-4.44,3.8-7,4.8-7.59,3-15.26,5.85-23.09,8.1-37,10.65-75.07,14.82-113.33,17.46-13.39.93-26.81,1.44-40.22,2.14,0,.07-30.62.11-30.63.17" transform="translate(-81.34 -23.23)" />
  <path d="M306.8,23.23c4.76.37,9.51.75,14.26,1.09A295.44,295.44,0,0,1,401,41c.79.29,1.55.62,2.59,1-8.84,37.78-12.13,76.1-11.64,115H204.14c.43-38.71-2.77-77-11.73-115.2,6.29-2,12.47-4.22,18.74-6.07a300.66,300.66,0,0,1,74.58-12c1.39,0,2.78-.32,4.16-.49Zm1.92,121.17V36H287.45V144.4Zm-46.29-.06A962.22,962.22,0,0,0,259.11,38.1L236.24,42a775.93,775.93,0,0,1,3.37,102.38ZM337,38.06a965.84,965.84,0,0,0-3.29,106.27h22.7c0-1.84,0-3.51,0-5.18.17-18.66.05-37.34.62-56,.4-12.93,1.76-25.83,2.6-38.75,0-.83-.62-2.37-1.17-2.48C351.46,40.54,344.45,39.37,337,38.06Z" transform="translate(-81.34 -23.23)" />
  <path d="M193.56,294.36c-.34-8,1.18-15.32,7.07-21.23a6.25,6.25,0,0,1,6.21-2A480.79,480.79,0,0,0,318.76,278,475.84,475.84,0,0,0,386,269.35a8.63,8.63,0,0,1,5.53.92c6.7,3.86,10.12,10.1,10.73,17.56,1.16,14.14-.84,27.74-8.48,40.07a51.51,51.51,0,0,1-20.68,18.62,6.58,6.58,0,0,0-3.47,4c-10.34,28.41-29.39,47.66-59.19,55-18.24,4.5-34.81-.78-50-10.67-16.56-10.76-27.78-25.81-34.17-44.5a5.86,5.86,0,0,0-2.3-3.19c-20.28-10.4-29.39-27.56-30.39-49.72C193.52,296.42,193.56,295.39,193.56,294.36Z" transform="translate(-81.34 -23.23)" />
  <path d="M204.29,171.84H391.74c2.46,21.46,4.9,42.75,7.37,64.32a553.14,553.14,0,0,1-202.13-.1C199.42,214.63,201.83,193.42,204.29,171.84Zm109.09,56.94c-.82-5.22-1.42-9.86-2.31-14.44a4.26,4.26,0,0,1,1.43-4.43c3.41-3.19,6.69-6.52,10.52-10.28-5.15-.83-9.55-1.68-14-2.19a5.13,5.13,0,0,1-4.63-3.29c-1.88-4.11-4.07-8.07-6.38-12.55-2.29,4.48-4.44,8.32-6.23,12.32a5.28,5.28,0,0,1-4.77,3.52c-4.44.5-8.83,1.37-13.24,2.08l-.45.81a100.4,100.4,0,0,0,7.66,7c3.8,2.83,4.76,6.14,3.48,10.65-.94,3.33-1.12,6.86-1.71,10.82,4.85-2.48,9-4.74,13.37-6.73a5.07,5.07,0,0,1,3.79,0C304.26,224,308.46,226.28,313.38,228.78Zm-84.54-.06c-.5-5.41-.86-10.23-1.42-15a5.87,5.87,0,0,1,2-5.69c3.41-3,6.57-6.38,10.25-10-3.55-.83-6.49-1.91-9.51-2.15-5.35-.42-8.34-3-9.65-8.18-.84-3.35-2.52-6.49-3.83-9.73l-.93,0a45.86,45.86,0,0,0-1.49,5.81c-1.12,8.93-2.08,17.88-3.17,26.82-.44,3.65-1,7.29-1.71,11.91,3.66-3.46,6.4-2.4,9.31-.28C221.76,224.48,225.1,226.36,228.84,228.72ZM380.29,178l-1,.15c-1.66,4.16-3.48,8.27-4.94,12.5-.92,2.67-2.35,4.07-5.23,4.53-4.1.64-8.12,1.78-12.69,2.82,3.69,3.68,6.82,7.05,10.23,10.1a5.86,5.86,0,0,1,2,5.68c-.57,4.79-.94,9.6-1.45,15,3.66-2.31,6.92-4.15,9.92-6.34s5.59-3.32,8.77-.77c.06,0,.3-.14.62-.29-.15-1.05-.31-2.15-.45-3.25-1.41-11.35-2.77-22.71-4.25-34.05A52,52,0,0,0,380.29,178Z" transform="translate(-81.34 -23.23)" />
  <path d="M305,266.24c-51,.29-98.39-4.89-144.92-17-3.35-.88-6.7-1.79-10-2.78-3.69-1.1-5.4-4-4.45-7.23s3.91-4.68,7.67-3.76c12.21,3,24.36,6.27,36.66,8.82a520.37,520.37,0,0,0,92.81,10.28c54.22,1.36,107.61-4.22,159.93-18.95,3.92-1.11,7,.38,7.89,3.67s-.83,6.17-4.76,7.3a496.15,496.15,0,0,1-78.33,15.62A550.68,550.68,0,0,1,305,266.24Z" transform="translate(-81.34 -23.23)" />
  <path d="M288.45,435.8c5.28-5.09,11.86-6.75,19.23,0L338,418.15a17.27,17.27,0,0,1,2-1.11c1.84-.78,2.9-.08,3.13,1.86a18.5,18.5,0,0,1,0,2v45.07c0,4.14-1.07,4.77-4.65,2.7q-15.35-8.88-30.64-17.78c-9.16,5.77-11.92,5.77-19.47-.07l-29.13,16.92c-1,.56-1.92,1.2-2.93,1.67-1.89.87-3.09.3-3.41-1.82a2.81,2.81,0,0,1,0-.29c0-16,0-31.92,0-47.88,0-2.77,1.51-3.34,4.22-1.77C267.54,423.64,277.92,429.68,288.45,435.8Z" transform="translate(-81.34 -23.23)" />
</svg>
