<svg xmlns="http://www.w3.org/2000/svg" viewBox="0 0 670 670">
  <title>theme</title>
  <path d="M401.34,239.08c88.49-.09,161.5,72.66,161.58,161C563,490,490.81,562.87,401.65,562.93c-89.72.06-162.55-72.31-162.57-161.52A162,162,0,0,1,401.34,239.08Zm-.4,24.88a136.94,136.94,0,0,0-137,137.1c0,75,61.26,136.55,135.61,137.09,76.81.56,138.14-62,138.56-136.24C538.55,326,476.48,263.56,400.94,264Z" transform="translate(-64.75 -64.51)" style="fill: #dcdcdc" />
  <path d="M216.2,365.84c-1.06,13.38-2,25.76-3,38.52-5.85,0-11.95-.35-18,.06-20.7,1.41-39.73,8.66-58.29,17.35-5.7,2.67-11.22,5.71-16.91,8.4-1.49.7-3.59,1.4-5,.88-12.22-4.56-24.34-9.37-36.47-14.17A16.74,16.74,0,0,1,75.6,415c-14.54-9.82-14.48-20.74.23-30.22,13.13-8.45,27.79-13.15,42.74-17,21.44-5.56,43.15-9.42,65.41-8.67A89.53,89.53,0,0,1,216.2,365.84Zm-20.71,12.61c-38-2.94-73.81,4.8-108.2,21.54a164.23,164.23,0,0,0,24,10.73c2,.71,4.8.16,6.87-.7,5.5-2.28,10.74-5.2,16.2-7.6,17.94-7.92,36.3-14.65,56-16.19C195.62,385.83,196.83,384.12,195.49,378.45Z" transform="translate(-64.75 -64.51)" style="fill: #dcdcdc" />
  <path d="M365.9,585.79l38.44,3c-2.7,33.74,10.27,63.24,25.38,92.1,1.5,2.86,2,5.3,1,8.36-4.15,13-8.22,25.93-15.95,37.34a39.17,39.17,0,0,1-5.12,6.08c-6.26,6.11-13.82,6.7-19.13-.06a103.91,103.91,0,0,1-14.5-24.06c-9.11-22-13.73-45.22-16.17-68.93-1.82-17.6-1-34.79,5-51.56C365.23,587.18,365.67,586.31,365.9,585.79Zm12.59,20.76c-3,37.87,4.67,73.72,21.45,108.12,3.71-6.27,6.28-12.66,9.16-18.91,2.53-5.47,2.78-10.43-.78-15.75-2.56-3.81-4.14-8.29-6-12.54-7.8-17.82-14.42-36-16.09-55.59C385.83,607.2,384.88,604.89,378.49,606.55Z" transform="translate(-64.75 -64.51)" style="fill: #dcdcdc" />
  <path d="M397.61,213.07c2.67-30.49-7.67-57.91-21.45-84.07-4.87-9.25-6.11-17.19-1.72-26.37,4.27-8.95,8.19-18.07,12.61-26.94,1.29-2.59,3.57-4.81,5.73-6.83,6-5.62,13.29-6,18.43.23a93.84,93.84,0,0,1,13.63,21.7c9.83,22.67,14.62,46.68,17.26,71.2,1.83,17.09.88,33.79-4.22,50.24-1.1,3.54-2.41,4.62-6.62,4C420.3,214.65,409.19,214.09,397.61,213.07Zm5.72-125.55-2.66-.42c-3.42,9-6.91,18-10.16,27.08-.34.94.66,2.45,1.2,3.61,2.61,5.55,5.41,11,7.89,16.62,7.94,18,14.43,36.34,16.3,56.05.57,6,.62,6.19,7.69,4.8C426.47,157.54,418.74,121.8,403.33,87.52Z" transform="translate(-64.75 -64.51)" style="fill: #dcdcdc" />
  <path d="M588.83,397.54a107.17,107.17,0,0,0,47.85-6.05c14.89-5.47,29.28-12.35,43.7-19,3.41-1.57,6.33-2.33,9.77-.89,11.59,4.82,23.78,8.56,34.65,14.66,17.07,9.61,16.67,21.54-.1,31.87-15.46,9.52-32.72,14.38-50.18,18.36-18.48,4.2-37.18,7.2-56.25,6.44a96.14,96.14,0,0,1-32.52-6.72C586.79,423.14,587.8,410.48,588.83,397.54Zm17.74,25.85c37.86,3.29,73.67-4.65,108.08-21.25-6.1-3.73-12.29-6.35-18.39-9.14-5.74-2.64-11.07-3-16.67.82-3.65,2.5-8,4-12.07,5.82-17.82,7.8-36,14.48-55.56,16.13C606.94,416.19,604.84,417.38,606.57,423.39Z" transform="translate(-64.75 -64.51)" style="fill: #dcdcdc" />
  <path d="M562,303.94c30.54-14.14,49.35-40,66.72-67.26,2.06-3.22,4.32-5.18,8-5.69,12-1.61,23.89-3.47,35.88-4.85,3.22-.37,6.65.32,9.87,1,10,2.18,13.67,8.61,10.79,18.53-3.13,10.81-9.94,19.48-17.07,27.8-18,21-38.31,39.46-62.5,52.93-10,5.56-21.49,8.37-32.34,12.34a8.14,8.14,0,0,1-3,.05Zm111.57-57.63-.91-2.07c-7,.86-13.91,1.95-20.89,2.52-5.75.47-9.27,3.16-12.63,7.94a362.32,362.32,0,0,1-25.88,33.45c-7.78,8.73-17.11,16.07-26.22,24.46l2.68,5.38C624.53,301.46,651.57,276.82,673.57,246.31Z" transform="translate(-64.75 -64.51)" style="fill: #dcdcdc" />
  <path d="M463.07,578.49l34.3-16.16c4.82,7.29,9.41,15.19,14.93,22.37,12.43,16.2,28.42,28.69,45.66,39.1,9.52,5.74,14,12.67,15.43,23.27,1.49,11.39,3.85,22.64,1.65,34.16s-9.18,16.22-19.79,11.45A119.62,119.62,0,0,1,528.4,675.9c-21.3-17.63-39.53-38.27-53-62.48-5.4-9.71-8.16-20.9-12-31.45A11.84,11.84,0,0,1,463.07,578.49Zm21.06,11.31c16.31,34.8,41.11,61.7,72.62,83.29.15-7.41-.92-14.35-1.49-21.34-.47-5.76-3.21-9.27-8-12.62-11.4-8-22.7-16.28-33.07-25.53-8.85-7.9-16.34-17.31-24.81-26.45a7.36,7.36,0,0,0-1.41.51C487,588.16,486,588.76,484.13,589.8Z" transform="translate(-64.75 -64.51)" style="fill: #dcdcdc" />
  <path d="M338.89,223.51l-34.26,16.16c-4.87-7.35-9.47-15.26-15-22.45C277.18,201,261.19,188.58,244,178.15c-9.31-5.63-13.93-12.34-15.28-22.81-1.48-11.38-3.91-22.61-1.8-34.15s9.4-16.67,20-11.84a122.31,122.31,0,0,1,27.2,17.15c21.1,17.59,39.22,38.1,52.59,62.18,5.39,9.72,8.15,20.91,12,31.46A10.13,10.13,0,0,1,338.89,223.51ZM318,212.18c-16.78-34.79-41.18-62-73-83.11a172.51,172.51,0,0,0,3,26.41,7.85,7.85,0,0,0,3.09,4.59c22.81,15.39,44.78,31.67,60.28,55.12a14.46,14.46,0,0,0,2.12-.59C314.66,214,315.79,213.38,318,212.18Z" transform="translate(-64.75 -64.51)" style="fill: #dcdcdc" />
  <path d="M523.86,258.65,492,236.46a115.41,115.41,0,0,0,16.95-36.64A227.58,227.58,0,0,0,516,146.09c.07-4.5,1-7.93,4.69-10.76,9-6.82,17.65-14.08,26.74-20.76,3-2.2,6.77-3.48,10.37-4.63,10.52-3.36,17.43,1.24,19.25,12.17,2.21,13.29-.19,26.2-3.09,39-5.83,25.68-14.25,50.45-28.19,73A90.45,90.45,0,0,1,523.86,258.65Zm-1-23.84c21.94-32,33.23-66.76,35.68-105a204.88,204.88,0,0,0-22.47,16.65c-.94.79-1.26,2.63-1.4,4-.81,7.93-1.26,15.91-2.22,23.82-2.36,19.49-6.46,38.54-15.57,56.44Z" transform="translate(-64.75 -64.51)" style="fill: #dcdcdc" />
  <path d="M239.84,498.11c-30.37,14.07-49.19,40-66.6,67.25-2.06,3.23-4.35,5.16-8.08,5.66-12,1.61-23.94,3.39-35.93,4.87a25,25,0,0,1-7.42-.69c-13.27-2.41-17.77-10-11.8-22.26a120.43,120.43,0,0,1,15.67-24.13c17.62-21.1,38-39.41,62-52.87,10-5.59,21.45-8.53,32.28-12.58,2.73-1,4.27-.15,5.55,2.89C230,476.79,234.86,487.13,239.84,498.11Zm-111.4,57.66.94,2c6.82-.84,13.63-2,20.48-2.42,6.27-.38,9.91-3.44,13.29-8.6,11-16.85,23.24-32.84,38.72-46,4.28-3.63,8.83-6.93,13.5-10.57L212.26,484C177.45,500.6,150.34,525.16,128.44,555.77Z" transform="translate(-64.75 -64.51)" style="fill: #dcdcdc" />
  <path d="M278.12,543.33l31.94,22.22c-9.26,13.25-15.91,28-18.63,43.92-2.68,15.68-3.88,31.62-5.38,47.48-.34,3.68-.85,6.63-4,9-9.22,7.06-18.13,14.54-27.46,21.46-3,2.2-6.78,3.47-10.37,4.62-10.5,3.35-17.4-1.27-19.23-12.21-2.23-13.29.2-26.2,3.09-39,5.81-25.7,14.27-50.46,28.2-73A91.61,91.61,0,0,1,278.12,543.33Zm.94,23.87c-21.83,31.89-33.15,66.69-35.77,104.85,6.19-3.44,11.33-7.82,17-11.42,6.06-3.87,7.22-9.31,7.94-16,1.63-15.15,3.63-30.31,6.71-45.22,2-9.74,6.19-19,9.47-28.77C283.11,569.85,281.61,568.87,279.06,567.2Z" transform="translate(-64.75 -64.51)" style="fill: #dcdcdc" />
  <path d="M258.68,278.17,237.22,309c-10.92-4.84-21.55-11-33-14.25-13.59-3.88-27.85-5.55-41.9-7.67-6.71-1-13.6-.78-20.39-1.25a5.71,5.71,0,0,1-3.55-1.35c-10.49-11.13-21-22.26-27.26-36.56a26.18,26.18,0,0,1-2.06-8.11c-.65-7.61,2-11.32,9.29-13.75,9.29-3.08,18.81-2.29,28.14-.77,29.33,4.78,57.3,13.82,83.3,28.37A95.05,95.05,0,0,1,258.68,278.17Zm-23.91,1C203,257.05,168.13,246,129.91,243.32a144.3,144.3,0,0,0,14.5,20.2,12.28,12.28,0,0,0,6.94,3.82c16.23,2.43,32.66,3.79,48.74,6.93,10.57,2.07,20.67,6.53,31.24,10Z" transform="translate(-64.75 -64.51)" style="fill: #dcdcdc" />
  <path d="M543.42,523.68l21.23-30.45c11.88,5,23.39,11.16,35.66,14.69,12.79,3.69,26.28,5.1,39.54,7,6.56.95,13.27.76,19.91,1.24a6.46,6.46,0,0,1,4,1.49c10.13,10.8,20.47,21.49,26.56,35.29a35.09,35.09,0,0,1,2.74,10.5c.57,5.79-2.47,9.66-7.93,11.81-9.72,3.83-19.72,3.05-29.57,1.45-29.35-4.79-57.32-13.86-83.39-28.36C560.6,541.93,549.12,531.87,543.42,523.68Zm127.93,36,1.23-2c-4.1-5.38-8.55-10.53-12.19-16.19-3.81-5.93-9.13-7-15.58-7.64-13.84-1.37-27.75-2.92-41.34-5.78-11.06-2.33-21.69-6.66-32.91-10.24l-3.26,5.07C598.91,544.94,633.83,556,671.35,559.68Z" transform="translate(-64.75 -64.51)" style="fill: #dcdcdc" />
</svg>
