<svg xmlns="http://www.w3.org/2000/svg" viewBox="0 0 425.49 512" style="fill: #f4b664">
  <title>wallet</title>
  <path d="M282.84,205.77a30.35,30.35,0,0,1-5.53,3.48h17.9c7.11-8.3,7.24-17.61,2-24.23-5.39-6.82-12.31-8.1-23.85-4.15-8.36,2.68-12.27,3.19-14.25.69-1.68-2.12-1.76-5.5,3.15-9.4a32.16,32.16,0,0,1,12.95-6.07l-4.58-10.28a34.7,34.7,0,0,0-13,6.19L255,158.68a4.17,4.17,0,0,0-2.87-1.58A4.27,4.27,0,0,0,249,158l-.73.59a4.27,4.27,0,0,0-.7,6l3,3.85c-6.84,8-7.4,17-2.12,23.61,5.82,7.35,14.35,6.76,24.62,3.07,7.09-2.55,11-2.65,13.24.22C288.8,198.35,287.17,202.35,282.84,205.77Z" transform="translate(-43.26 0)" />
  <path d="M141.66,209.25,316.09,71.09l20.59-16.32A7.67,7.67,0,0,1,347.44,56l16.28,20.55,56,70.77a7.46,7.46,0,0,1,1.4,2.94,7.68,7.68,0,0,1-2,7.23,8.42,8.42,0,0,1-.61.59l0,0L398,174.4l-44,34.85h17.27l54-42.73a18.46,18.46,0,0,0,3-25.85l-72.33-91.3a18.45,18.45,0,0,0-25.84-3L124.37,209.25Z" transform="translate(-43.26 0)" />
  <path d="M346.54,209.25l48.8-38.65A33.89,33.89,0,0,1,400,129.85h0L359.92,79.19a33.87,33.87,0,0,1-40.73-4.69L149.06,209.25h82.19c-12.56-22.38-9.81-49,7.81-63,19.94-15.79,51.34-9.37,70.12,14.35,11.86,15,15.84,33.21,12.18,48.62Z" transform="translate(-43.26 0)" />
  <path d="M466.93,336.89a6.2,6.2,0,0,0-4.37-1.81h-86.4a30.86,30.86,0,0,0,0,61.72h86.4a6.2,6.2,0,0,0,4.37-1.81,6.12,6.12,0,0,0,1.81-4.37V341.25A6.13,6.13,0,0,0,466.93,336.89Zm-90.77,44.6a15.56,15.56,0,1,1,15.56-15.55A15.55,15.55,0,0,1,376.16,381.49Z" transform="translate(-43.26 0)" />
  <path d="M347.07,395a41.14,41.14,0,0,1,29.09-70.23h80.9V250.74a30.85,30.85,0,0,0-30.86-30.86H74.8a10.28,10.28,0,0,1-10.28-10.29v-.68A10.29,10.29,0,0,1,74.8,198.62H85.36l9.11-21.25H74.12a30.85,30.85,0,0,0-30.86,30.85V481.14A30.86,30.86,0,0,0,74.12,512H426.2a30.86,30.86,0,0,0,30.87-30.86V407.08H376.16A40.89,40.89,0,0,1,347.07,395Zm86.33-83.61a3.08,3.08,0,1,1-6.16,0V297a3.08,3.08,0,0,1,6.16,0Zm0-30.85a3.08,3.08,0,0,1-6.16,0v-14.4a3.08,3.08,0,1,1,6.16,0Zm-8.83-37h1.63a7.38,7.38,0,0,1,7.2,7.2v1.63a3.08,3.08,0,1,1-6.16,0v-1.63a1.23,1.23,0,0,0-1-1h-1.62a3.09,3.09,0,1,1,0-6.17Zm-27.32,0h14.4a3.09,3.09,0,1,1,0,6.17h-14.4a3.09,3.09,0,0,1,0-6.17Zm-30.86,0h14.4a3.09,3.09,0,1,1,0,6.17h-14.4a3.09,3.09,0,0,1,0-6.17ZM66.92,252.37v-1.63a7.38,7.38,0,0,1,7.2-7.2h1.63a3.09,3.09,0,0,1,0,6.17H74.12a1.23,1.23,0,0,0-1,1v1.63a3.09,3.09,0,1,1-6.17,0Zm0,13.8a3.09,3.09,0,1,1,6.17,0v14.4a3.09,3.09,0,0,1-6.17,0Zm0,30.85a3.09,3.09,0,0,1,6.17,0v14.4a3.09,3.09,0,1,1-6.17,0Zm0,30.86a3.09,3.09,0,0,1,6.17,0v14.4a3.09,3.09,0,1,1-6.17,0Zm0,30.86a3.09,3.09,0,1,1,6.17,0v14.4a3.09,3.09,0,1,1-6.17,0Zm0,30.86a3.09,3.09,0,1,1,6.17,0V404a3.09,3.09,0,0,1-6.17,0Zm0,30.85a3.09,3.09,0,0,1,6.17,0v14.4a3.09,3.09,0,1,1-6.17,0Zm0,30.86a3.09,3.09,0,0,1,6.17,0v14.4a3.09,3.09,0,1,1-6.17,0Zm8.83,37H74.11a7.39,7.39,0,0,1-7.2-7.2v-1.63a3.09,3.09,0,1,1,6.17,0v1.63a1.23,1.23,0,0,0,1,1h1.63a3.09,3.09,0,1,1,0,6.17Zm27.33,0H88.68a3.09,3.09,0,1,1,0-6.17h14.4a3.09,3.09,0,0,1,0,6.17Zm0-238.63H88.68a3.09,3.09,0,1,1,0-6.17h14.4a3.09,3.09,0,0,1,0,6.17Zm30.85,238.63H119.54a3.09,3.09,0,1,1,0-6.17h14.39a3.09,3.09,0,1,1,0,6.17Zm0-238.63H119.54a3.09,3.09,0,1,1,0-6.17h14.39a3.09,3.09,0,1,1,0,6.17Zm30.86,238.63h-14.4a3.09,3.09,0,1,1,0-6.17h14.4a3.09,3.09,0,1,1,0,6.17Zm0-238.63h-14.4a3.09,3.09,0,1,1,0-6.17h14.4a3.09,3.09,0,1,1,0,6.17Zm30.86,238.63h-14.4a3.09,3.09,0,1,1,0-6.17h14.4a3.09,3.09,0,0,1,0,6.17Zm0-238.63h-14.4a3.09,3.09,0,1,1,0-6.17h14.4a3.09,3.09,0,0,1,0,6.17Zm30.86,238.63h-14.4a3.09,3.09,0,1,1,0-6.17h14.4a3.09,3.09,0,0,1,0,6.17Zm0-238.63h-14.4a3.09,3.09,0,1,1,0-6.17h14.4a3.09,3.09,0,0,1,0,6.17Zm30.85,238.63H243a3.09,3.09,0,0,1,0-6.17h14.4a3.09,3.09,0,1,1,0,6.17Zm0-238.63H243a3.09,3.09,0,0,1,0-6.17h14.4a3.09,3.09,0,1,1,0,6.17Zm30.86,238.63h-14.4a3.09,3.09,0,1,1,0-6.17h14.4a3.09,3.09,0,0,1,0,6.17Zm0-238.63h-14.4a3.09,3.09,0,1,1,0-6.17h14.4a3.09,3.09,0,0,1,0,6.17Zm30.86,238.63h-14.4a3.09,3.09,0,1,1,0-6.17h14.4a3.09,3.09,0,1,1,0,6.17Zm0-238.63h-14.4a3.09,3.09,0,1,1,0-6.17h14.4a3.09,3.09,0,1,1,0,6.17Zm16.46-6.17h14.39a3.09,3.09,0,1,1,0,6.17H335.54a3.09,3.09,0,1,1,0-6.17Zm14.39,244.8H335.54a3.09,3.09,0,1,1,0-6.17h14.39a3.09,3.09,0,1,1,0,6.17Zm77.31-67.89a3.08,3.08,0,0,1,6.16,0v14.4a3.08,3.08,0,1,1-6.16,0Zm0,30.86a3.08,3.08,0,0,1,6.16,0v14.4a3.08,3.08,0,1,1-6.16,0Zm-2.66,30.86h1.63a1.23,1.23,0,0,0,1-1v-1.63a3.08,3.08,0,1,1,6.16,0v1.63a7.38,7.38,0,0,1-7.2,7.2h-1.62a3.09,3.09,0,1,1,0-6.17Zm-27.33,0h14.4a3.09,3.09,0,1,1,0,6.17h-14.4a3.09,3.09,0,0,1,0-6.17Zm-13.37,3.08a3.1,3.1,0,0,1-3.09,3.09h-14.4a3.09,3.09,0,0,1,0-6.17h14.4A3.1,3.1,0,0,1,383.88,485.25Z" transform="translate(-43.26 0)" />
  <path d="M421.33,183.17l-19.49,15.45H427.6v-.68a20.5,20.5,0,0,0-6-14.55C421.5,183.31,421.41,183.25,421.33,183.17Z" transform="translate(-43.26 0)" />
  <path d="M164.71,164.19,177,154.42c.05-.14.08-.25.14-.4a32.15,32.15,0,0,1,8.5-11.49l-8.92-6.88a34.65,34.65,0,0,0-8.45,11.63l-3.89-1.68a4.23,4.23,0,0,0-3.26,0,4.29,4.29,0,0,0-2.35,2.29l-.37.86a4.28,4.28,0,0,0,0,3.26,4.22,4.22,0,0,0,2.27,2.33l4.52,1.94A25.14,25.14,0,0,0,164.71,164.19Z" transform="translate(-43.26 0)" />
  <path d="M103.66,209.25,176.43,39.51l10.35-24.15a7.67,7.67,0,0,1,10.06-4l24.1,10.33L301.2,56.08l9.36-7.41a18.18,18.18,0,0,0-2.43-1.3L201.07,1.48a18.46,18.46,0,0,0-24.16,9.65L92,209.25Z" transform="translate(-43.26 0)" />
  <path d="M278.23,51.23l-59.4-25.46A33.87,33.87,0,0,1,180.77,41L109.11,208.22l37.32-29.56c-5.88-11.59-7-24.64-2-36.37,10-23.37,40.69-32.66,68.51-20.74,1.19.51,2.35,1.07,3.5,1.64l63.12-50a33.79,33.79,0,0,1-1.37-21.94S278.23,51.24,278.23,51.23Z" transform="translate(-43.26 0)" />
</svg>
